<?xml version="1.0" encoding="utf-8" standalone="no"?>
<!DOCTYPE svg PUBLIC "-//W3C//DTD SVG 1.1//EN"
  "http://www.w3.org/Graphics/SVG/1.1/DTD/svg11.dtd">
<svg xmlns:xlink="http://www.w3.org/1999/xlink" width="1728pt" height="1440pt" viewBox="0 0 1728 1440" xmlns="http://www.w3.org/2000/svg" version="1.1">
 <metadata>
  <rdf:RDF xmlns:dc="http://purl.org/dc/elements/1.1/" xmlns:cc="http://creativecommons.org/ns#" xmlns:rdf="http://www.w3.org/1999/02/22-rdf-syntax-ns#">
   <cc:Work>
    <dc:type rdf:resource="http://purl.org/dc/dcmitype/StillImage"/>
    <dc:date>2024-10-29T22:13:31.442848</dc:date>
    <dc:format>image/svg+xml</dc:format>
    <dc:creator>
     <cc:Agent>
      <dc:title>Matplotlib v3.9.2, https://matplotlib.org/</dc:title>
     </cc:Agent>
    </dc:creator>
   </cc:Work>
  </rdf:RDF>
 </metadata>
 <defs>
  <style type="text/css">*{stroke-linejoin: round; stroke-linecap: butt}</style>
 </defs>
 <g id="figure_1">
  <g id="patch_1">
   <path d="M 0 1440 
L 1728 1440 
L 1728 0 
L 0 0 
L 0 1440 
z
" style="fill: none"/>
  </g>
  <g id="axes_1">
   <g id="patch_2">
    <path d="M 216 1281.6 
L 1555.2 1281.6 
L 1555.2 172.8 
L 216 172.8 
L 216 1281.6 
z
" style="fill: none"/>
   </g>
   <g id="matplotlib.axis_1">
    <g id="xtick_1">
     <g id="line2d_1">
      <defs>
       <path id="mbc3a1fbcd6" d="M 0 0 
L 0 3.5 
" style="stroke: #000000; stroke-width: 0.8"/>
      </defs>
      <g>
       <use xlink:href="#mbc3a1fbcd6" x="311.871137" y="1281.6" style="stroke: #000000; stroke-width: 0.8"/>
      </g>
     </g>
     <g id="text_1">
      <!-- 1 -->
      <g transform="translate(307.099262 1299.997656) scale(0.15 -0.15)">
       <defs>
        <path id="DejaVuSans-31" d="M 794 531 
L 1825 531 
L 1825 4091 
L 703 3866 
L 703 4441 
L 1819 4666 
L 2450 4666 
L 2450 531 
L 3481 531 
L 3481 0 
L 794 0 
L 794 531 
z
" transform="scale(0.015625)"/>
       </defs>
       <use xlink:href="#DejaVuSans-31"/>
      </g>
     </g>
    </g>
    <g id="xtick_2">
     <g id="line2d_2">
      <g>
       <use xlink:href="#mbc3a1fbcd6" x="461.669792" y="1281.6" style="stroke: #000000; stroke-width: 0.8"/>
      </g>
     </g>
     <g id="text_2">
      <!-- 2 -->
      <g transform="translate(456.897917 1299.997656) scale(0.15 -0.15)">
       <defs>
        <path id="DejaVuSans-32" d="M 1228 531 
L 3431 531 
L 3431 0 
L 469 0 
L 469 531 
Q 828 903 1448 1529 
Q 2069 2156 2228 2338 
Q 2531 2678 2651 2914 
Q 2772 3150 2772 3378 
Q 2772 3750 2511 3984 
Q 2250 4219 1831 4219 
Q 1534 4219 1204 4116 
Q 875 4013 500 3803 
L 500 4441 
Q 881 4594 1212 4672 
Q 1544 4750 1819 4750 
Q 2544 4750 2975 4387 
Q 3406 4025 3406 3419 
Q 3406 3131 3298 2873 
Q 3191 2616 2906 2266 
Q 2828 2175 2409 1742 
Q 1991 1309 1228 531 
z
" transform="scale(0.015625)"/>
       </defs>
       <use xlink:href="#DejaVuSans-32"/>
      </g>
     </g>
    </g>
    <g id="xtick_3">
     <g id="line2d_3">
      <g>
       <use xlink:href="#mbc3a1fbcd6" x="611.468446" y="1281.6" style="stroke: #000000; stroke-width: 0.8"/>
      </g>
     </g>
     <g id="text_3">
      <!-- 3 -->
      <g transform="translate(606.696571 1299.997656) scale(0.15 -0.15)">
       <defs>
        <path id="DejaVuSans-33" d="M 2597 2516 
Q 3050 2419 3304 2112 
Q 3559 1806 3559 1356 
Q 3559 666 3084 287 
Q 2609 -91 1734 -91 
Q 1441 -91 1130 -33 
Q 819 25 488 141 
L 488 750 
Q 750 597 1062 519 
Q 1375 441 1716 441 
Q 2309 441 2620 675 
Q 2931 909 2931 1356 
Q 2931 1769 2642 2001 
Q 2353 2234 1838 2234 
L 1294 2234 
L 1294 2753 
L 1863 2753 
Q 2328 2753 2575 2939 
Q 2822 3125 2822 3475 
Q 2822 3834 2567 4026 
Q 2313 4219 1838 4219 
Q 1578 4219 1281 4162 
Q 984 4106 628 3988 
L 628 4550 
Q 988 4650 1302 4700 
Q 1616 4750 1894 4750 
Q 2613 4750 3031 4423 
Q 3450 4097 3450 3541 
Q 3450 3153 3228 2886 
Q 3006 2619 2597 2516 
z
" transform="scale(0.015625)"/>
       </defs>
       <use xlink:href="#DejaVuSans-33"/>
      </g>
     </g>
    </g>
    <g id="xtick_4">
     <g id="line2d_4">
      <g>
       <use xlink:href="#mbc3a1fbcd6" x="761.267101" y="1281.6" style="stroke: #000000; stroke-width: 0.8"/>
      </g>
     </g>
     <g id="text_4">
      <!-- 4 -->
      <g transform="translate(756.495226 1299.997656) scale(0.15 -0.15)">
       <defs>
        <path id="DejaVuSans-34" d="M 2419 4116 
L 825 1625 
L 2419 1625 
L 2419 4116 
z
M 2253 4666 
L 3047 4666 
L 3047 1625 
L 3713 1625 
L 3713 1100 
L 3047 1100 
L 3047 0 
L 2419 0 
L 2419 1100 
L 313 1100 
L 313 1709 
L 2253 4666 
z
" transform="scale(0.015625)"/>
       </defs>
       <use xlink:href="#DejaVuSans-34"/>
      </g>
     </g>
    </g>
    <g id="xtick_5">
     <g id="line2d_5">
      <g>
       <use xlink:href="#mbc3a1fbcd6" x="911.065756" y="1281.6" style="stroke: #000000; stroke-width: 0.8"/>
      </g>
     </g>
     <g id="text_5">
      <!-- 5 -->
      <g transform="translate(906.293881 1299.997656) scale(0.15 -0.15)">
       <defs>
        <path id="DejaVuSans-35" d="M 691 4666 
L 3169 4666 
L 3169 4134 
L 1269 4134 
L 1269 2991 
Q 1406 3038 1543 3061 
Q 1681 3084 1819 3084 
Q 2600 3084 3056 2656 
Q 3513 2228 3513 1497 
Q 3513 744 3044 326 
Q 2575 -91 1722 -91 
Q 1428 -91 1123 -41 
Q 819 9 494 109 
L 494 744 
Q 775 591 1075 516 
Q 1375 441 1709 441 
Q 2250 441 2565 725 
Q 2881 1009 2881 1497 
Q 2881 1984 2565 2268 
Q 2250 2553 1709 2553 
Q 1456 2553 1204 2497 
Q 953 2441 691 2322 
L 691 4666 
z
" transform="scale(0.015625)"/>
       </defs>
       <use xlink:href="#DejaVuSans-35"/>
      </g>
     </g>
    </g>
    <g id="xtick_6">
     <g id="line2d_6">
      <g>
       <use xlink:href="#mbc3a1fbcd6" x="1060.864411" y="1281.6" style="stroke: #000000; stroke-width: 0.8"/>
      </g>
     </g>
     <g id="text_6">
      <!-- 6 -->
      <g transform="translate(1056.092536 1299.997656) scale(0.15 -0.15)">
       <defs>
        <path id="DejaVuSans-36" d="M 2113 2584 
Q 1688 2584 1439 2293 
Q 1191 2003 1191 1497 
Q 1191 994 1439 701 
Q 1688 409 2113 409 
Q 2538 409 2786 701 
Q 3034 994 3034 1497 
Q 3034 2003 2786 2293 
Q 2538 2584 2113 2584 
z
M 3366 4563 
L 3366 3988 
Q 3128 4100 2886 4159 
Q 2644 4219 2406 4219 
Q 1781 4219 1451 3797 
Q 1122 3375 1075 2522 
Q 1259 2794 1537 2939 
Q 1816 3084 2150 3084 
Q 2853 3084 3261 2657 
Q 3669 2231 3669 1497 
Q 3669 778 3244 343 
Q 2819 -91 2113 -91 
Q 1303 -91 875 529 
Q 447 1150 447 2328 
Q 447 3434 972 4092 
Q 1497 4750 2381 4750 
Q 2619 4750 2861 4703 
Q 3103 4656 3366 4563 
z
" transform="scale(0.015625)"/>
       </defs>
       <use xlink:href="#DejaVuSans-36"/>
      </g>
     </g>
    </g>
    <g id="xtick_7">
     <g id="line2d_7">
      <g>
       <use xlink:href="#mbc3a1fbcd6" x="1210.663065" y="1281.6" style="stroke: #000000; stroke-width: 0.8"/>
      </g>
     </g>
     <g id="text_7">
      <!-- 7 -->
      <g transform="translate(1205.89119 1299.997656) scale(0.15 -0.15)">
       <defs>
        <path id="DejaVuSans-37" d="M 525 4666 
L 3525 4666 
L 3525 4397 
L 1831 0 
L 1172 0 
L 2766 4134 
L 525 4134 
L 525 4666 
z
" transform="scale(0.015625)"/>
       </defs>
       <use xlink:href="#DejaVuSans-37"/>
      </g>
     </g>
    </g>
    <g id="xtick_8">
     <g id="line2d_8">
      <g>
       <use xlink:href="#mbc3a1fbcd6" x="1360.46172" y="1281.6" style="stroke: #000000; stroke-width: 0.8"/>
      </g>
     </g>
     <g id="text_8">
      <!-- 8 -->
      <g transform="translate(1355.689845 1299.997656) scale(0.15 -0.15)">
       <defs>
        <path id="DejaVuSans-38" d="M 2034 2216 
Q 1584 2216 1326 1975 
Q 1069 1734 1069 1313 
Q 1069 891 1326 650 
Q 1584 409 2034 409 
Q 2484 409 2743 651 
Q 3003 894 3003 1313 
Q 3003 1734 2745 1975 
Q 2488 2216 2034 2216 
z
M 1403 2484 
Q 997 2584 770 2862 
Q 544 3141 544 3541 
Q 544 4100 942 4425 
Q 1341 4750 2034 4750 
Q 2731 4750 3128 4425 
Q 3525 4100 3525 3541 
Q 3525 3141 3298 2862 
Q 3072 2584 2669 2484 
Q 3125 2378 3379 2068 
Q 3634 1759 3634 1313 
Q 3634 634 3220 271 
Q 2806 -91 2034 -91 
Q 1263 -91 848 271 
Q 434 634 434 1313 
Q 434 1759 690 2068 
Q 947 2378 1403 2484 
z
M 1172 3481 
Q 1172 3119 1398 2916 
Q 1625 2713 2034 2713 
Q 2441 2713 2670 2916 
Q 2900 3119 2900 3481 
Q 2900 3844 2670 4047 
Q 2441 4250 2034 4250 
Q 1625 4250 1398 4047 
Q 1172 3844 1172 3481 
z
" transform="scale(0.015625)"/>
       </defs>
       <use xlink:href="#DejaVuSans-38"/>
      </g>
     </g>
    </g>
    <g id="xtick_9">
     <g id="line2d_9">
      <g>
       <use xlink:href="#mbc3a1fbcd6" x="1510.260375" y="1281.6" style="stroke: #000000; stroke-width: 0.8"/>
      </g>
     </g>
     <g id="text_9">
      <!-- 9 -->
      <g transform="translate(1505.4885 1299.997656) scale(0.15 -0.15)">
       <defs>
        <path id="DejaVuSans-39" d="M 703 97 
L 703 672 
Q 941 559 1184 500 
Q 1428 441 1663 441 
Q 2288 441 2617 861 
Q 2947 1281 2994 2138 
Q 2813 1869 2534 1725 
Q 2256 1581 1919 1581 
Q 1219 1581 811 2004 
Q 403 2428 403 3163 
Q 403 3881 828 4315 
Q 1253 4750 1959 4750 
Q 2769 4750 3195 4129 
Q 3622 3509 3622 2328 
Q 3622 1225 3098 567 
Q 2575 -91 1691 -91 
Q 1453 -91 1209 -44 
Q 966 3 703 97 
z
M 1959 2075 
Q 2384 2075 2632 2365 
Q 2881 2656 2881 3163 
Q 2881 3666 2632 3958 
Q 2384 4250 1959 4250 
Q 1534 4250 1286 3958 
Q 1038 3666 1038 3163 
Q 1038 2656 1286 2365 
Q 1534 2075 1959 2075 
z
" transform="scale(0.015625)"/>
       </defs>
       <use xlink:href="#DejaVuSans-39"/>
      </g>
     </g>
    </g>
    <g id="text_10">
     <!-- T (s) -->
     <g transform="translate(868.876172 1318.514844) scale(0.15 -0.15)">
      <defs>
       <path id="DejaVuSans-54" d="M -19 4666 
L 3928 4666 
L 3928 4134 
L 2272 4134 
L 2272 0 
L 1638 0 
L 1638 4134 
L -19 4134 
L -19 4666 
z
" transform="scale(0.015625)"/>
       <path id="DejaVuSans-20" transform="scale(0.015625)"/>
       <path id="DejaVuSans-28" d="M 1984 4856 
Q 1566 4138 1362 3434 
Q 1159 2731 1159 2009 
Q 1159 1288 1364 580 
Q 1569 -128 1984 -844 
L 1484 -844 
Q 1016 -109 783 600 
Q 550 1309 550 2009 
Q 550 2706 781 3412 
Q 1013 4119 1484 4856 
L 1984 4856 
z
" transform="scale(0.015625)"/>
       <path id="DejaVuSans-73" d="M 2834 3397 
L 2834 2853 
Q 2591 2978 2328 3040 
Q 2066 3103 1784 3103 
Q 1356 3103 1142 2972 
Q 928 2841 928 2578 
Q 928 2378 1081 2264 
Q 1234 2150 1697 2047 
L 1894 2003 
Q 2506 1872 2764 1633 
Q 3022 1394 3022 966 
Q 3022 478 2636 193 
Q 2250 -91 1575 -91 
Q 1294 -91 989 -36 
Q 684 19 347 128 
L 347 722 
Q 666 556 975 473 
Q 1284 391 1588 391 
Q 1994 391 2212 530 
Q 2431 669 2431 922 
Q 2431 1156 2273 1281 
Q 2116 1406 1581 1522 
L 1381 1569 
Q 847 1681 609 1914 
Q 372 2147 372 2553 
Q 372 3047 722 3315 
Q 1072 3584 1716 3584 
Q 2034 3584 2315 3537 
Q 2597 3491 2834 3397 
z
" transform="scale(0.015625)"/>
       <path id="DejaVuSans-29" d="M 513 4856 
L 1013 4856 
Q 1481 4119 1714 3412 
Q 1947 2706 1947 2009 
Q 1947 1309 1714 600 
Q 1481 -109 1013 -844 
L 513 -844 
Q 928 -128 1133 580 
Q 1338 1288 1338 2009 
Q 1338 2731 1133 3434 
Q 928 4138 513 4856 
z
" transform="scale(0.015625)"/>
      </defs>
      <use xlink:href="#DejaVuSans-54"/>
      <use xlink:href="#DejaVuSans-20" x="61.083984"/>
      <use xlink:href="#DejaVuSans-28" x="92.871094"/>
      <use xlink:href="#DejaVuSans-73" x="131.884766"/>
      <use xlink:href="#DejaVuSans-29" x="183.984375"/>
     </g>
    </g>
   </g>
   <g id="matplotlib.axis_2">
    <g id="ytick_1">
     <g id="line2d_10">
      <defs>
       <path id="mdeaee1a6fd" d="M 0 0 
L -3.5 0 
" style="stroke: #000000; stroke-width: 0.8"/>
      </defs>
      <g>
       <use xlink:href="#mdeaee1a6fd" x="216" y="1159.77971" style="stroke: #000000; stroke-width: 0.8"/>
      </g>
     </g>
     <g id="text_11">
      <!-- 2023.00 -->
      <g transform="translate(146.970313 1165.478538) scale(0.15 -0.15)">
       <defs>
        <path id="DejaVuSans-30" d="M 2034 4250 
Q 1547 4250 1301 3770 
Q 1056 3291 1056 2328 
Q 1056 1369 1301 889 
Q 1547 409 2034 409 
Q 2525 409 2770 889 
Q 3016 1369 3016 2328 
Q 3016 3291 2770 3770 
Q 2525 4250 2034 4250 
z
M 2034 4750 
Q 2819 4750 3233 4129 
Q 3647 3509 3647 2328 
Q 3647 1150 3233 529 
Q 2819 -91 2034 -91 
Q 1250 -91 836 529 
Q 422 1150 422 2328 
Q 422 3509 836 4129 
Q 1250 4750 2034 4750 
z
" transform="scale(0.015625)"/>
        <path id="DejaVuSans-2e" d="M 684 794 
L 1344 794 
L 1344 0 
L 684 0 
L 684 794 
z
" transform="scale(0.015625)"/>
       </defs>
       <use xlink:href="#DejaVuSans-32"/>
       <use xlink:href="#DejaVuSans-30" x="63.623047"/>
       <use xlink:href="#DejaVuSans-32" x="127.246094"/>
       <use xlink:href="#DejaVuSans-33" x="190.869141"/>
       <use xlink:href="#DejaVuSans-2e" x="254.492188"/>
       <use xlink:href="#DejaVuSans-30" x="286.279297"/>
       <use xlink:href="#DejaVuSans-30" x="349.902344"/>
      </g>
     </g>
    </g>
    <g id="ytick_2">
     <g id="line2d_11">
      <g>
       <use xlink:href="#mdeaee1a6fd" x="216" y="913.536017" style="stroke: #000000; stroke-width: 0.8"/>
      </g>
     </g>
     <g id="text_12">
      <!-- 2023.50 -->
      <g transform="translate(146.970313 919.234845) scale(0.15 -0.15)">
       <use xlink:href="#DejaVuSans-32"/>
       <use xlink:href="#DejaVuSans-30" x="63.623047"/>
       <use xlink:href="#DejaVuSans-32" x="127.246094"/>
       <use xlink:href="#DejaVuSans-33" x="190.869141"/>
       <use xlink:href="#DejaVuSans-2e" x="254.492188"/>
       <use xlink:href="#DejaVuSans-35" x="286.279297"/>
       <use xlink:href="#DejaVuSans-30" x="349.902344"/>
      </g>
     </g>
    </g>
    <g id="ytick_3">
     <g id="line2d_12">
      <g>
       <use xlink:href="#mdeaee1a6fd" x="216" y="667.292324" style="stroke: #000000; stroke-width: 0.8"/>
      </g>
     </g>
     <g id="text_13">
      <!-- 2024.00 -->
      <g transform="translate(146.970313 672.991152) scale(0.15 -0.15)">
       <use xlink:href="#DejaVuSans-32"/>
       <use xlink:href="#DejaVuSans-30" x="63.623047"/>
       <use xlink:href="#DejaVuSans-32" x="127.246094"/>
       <use xlink:href="#DejaVuSans-34" x="190.869141"/>
       <use xlink:href="#DejaVuSans-2e" x="254.492188"/>
       <use xlink:href="#DejaVuSans-30" x="286.279297"/>
       <use xlink:href="#DejaVuSans-30" x="349.902344"/>
      </g>
     </g>
    </g>
    <g id="ytick_4">
     <g id="line2d_13">
      <g>
       <use xlink:href="#mdeaee1a6fd" x="216" y="421.048631" style="stroke: #000000; stroke-width: 0.8"/>
      </g>
     </g>
     <g id="text_14">
      <!-- 2024.50 -->
      <g transform="translate(146.970313 426.747459) scale(0.15 -0.15)">
       <use xlink:href="#DejaVuSans-32"/>
       <use xlink:href="#DejaVuSans-30" x="63.623047"/>
       <use xlink:href="#DejaVuSans-32" x="127.246094"/>
       <use xlink:href="#DejaVuSans-34" x="190.869141"/>
       <use xlink:href="#DejaVuSans-2e" x="254.492188"/>
       <use xlink:href="#DejaVuSans-35" x="286.279297"/>
       <use xlink:href="#DejaVuSans-30" x="349.902344"/>
      </g>
     </g>
    </g>
    <g id="ytick_5">
     <g id="line2d_14">
      <g>
       <use xlink:href="#mdeaee1a6fd" x="216" y="174.804938" style="stroke: #000000; stroke-width: 0.8"/>
      </g>
     </g>
     <g id="text_15">
      <!-- 2025.00 -->
      <g transform="translate(146.970313 180.503766) scale(0.15 -0.15)">
       <use xlink:href="#DejaVuSans-32"/>
       <use xlink:href="#DejaVuSans-30" x="63.623047"/>
       <use xlink:href="#DejaVuSans-32" x="127.246094"/>
       <use xlink:href="#DejaVuSans-35" x="190.869141"/>
       <use xlink:href="#DejaVuSans-2e" x="254.492188"/>
       <use xlink:href="#DejaVuSans-30" x="286.279297"/>
       <use xlink:href="#DejaVuSans-30" x="349.902344"/>
      </g>
     </g>
    </g>
    <g id="text_16">
     <!-- Mass (kg) -->
     <g transform="translate(139.850781 763.421484) rotate(-90) scale(0.15 -0.15)">
      <defs>
       <path id="DejaVuSans-4d" d="M 628 4666 
L 1569 4666 
L 2759 1491 
L 3956 4666 
L 4897 4666 
L 4897 0 
L 4281 0 
L 4281 4097 
L 3078 897 
L 2444 897 
L 1241 4097 
L 1241 0 
L 628 0 
L 628 4666 
z
" transform="scale(0.015625)"/>
       <path id="DejaVuSans-61" d="M 2194 1759 
Q 1497 1759 1228 1600 
Q 959 1441 959 1056 
Q 959 750 1161 570 
Q 1363 391 1709 391 
Q 2188 391 2477 730 
Q 2766 1069 2766 1631 
L 2766 1759 
L 2194 1759 
z
M 3341 1997 
L 3341 0 
L 2766 0 
L 2766 531 
Q 2569 213 2275 61 
Q 1981 -91 1556 -91 
Q 1019 -91 701 211 
Q 384 513 384 1019 
Q 384 1609 779 1909 
Q 1175 2209 1959 2209 
L 2766 2209 
L 2766 2266 
Q 2766 2663 2505 2880 
Q 2244 3097 1772 3097 
Q 1472 3097 1187 3025 
Q 903 2953 641 2809 
L 641 3341 
Q 956 3463 1253 3523 
Q 1550 3584 1831 3584 
Q 2591 3584 2966 3190 
Q 3341 2797 3341 1997 
z
" transform="scale(0.015625)"/>
       <path id="DejaVuSans-6b" d="M 581 4863 
L 1159 4863 
L 1159 1991 
L 2875 3500 
L 3609 3500 
L 1753 1863 
L 3688 0 
L 2938 0 
L 1159 1709 
L 1159 0 
L 581 0 
L 581 4863 
z
" transform="scale(0.015625)"/>
       <path id="DejaVuSans-67" d="M 2906 1791 
Q 2906 2416 2648 2759 
Q 2391 3103 1925 3103 
Q 1463 3103 1205 2759 
Q 947 2416 947 1791 
Q 947 1169 1205 825 
Q 1463 481 1925 481 
Q 2391 481 2648 825 
Q 2906 1169 2906 1791 
z
M 3481 434 
Q 3481 -459 3084 -895 
Q 2688 -1331 1869 -1331 
Q 1566 -1331 1297 -1286 
Q 1028 -1241 775 -1147 
L 775 -588 
Q 1028 -725 1275 -790 
Q 1522 -856 1778 -856 
Q 2344 -856 2625 -561 
Q 2906 -266 2906 331 
L 2906 616 
Q 2728 306 2450 153 
Q 2172 0 1784 0 
Q 1141 0 747 490 
Q 353 981 353 1791 
Q 353 2603 747 3093 
Q 1141 3584 1784 3584 
Q 2172 3584 2450 3431 
Q 2728 3278 2906 2969 
L 2906 3500 
L 3481 3500 
L 3481 434 
z
" transform="scale(0.015625)"/>
      </defs>
      <use xlink:href="#DejaVuSans-4d"/>
      <use xlink:href="#DejaVuSans-61" x="86.279297"/>
      <use xlink:href="#DejaVuSans-73" x="147.558594"/>
      <use xlink:href="#DejaVuSans-73" x="199.658203"/>
      <use xlink:href="#DejaVuSans-20" x="251.757812"/>
      <use xlink:href="#DejaVuSans-28" x="283.544922"/>
      <use xlink:href="#DejaVuSans-6b" x="322.558594"/>
      <use xlink:href="#DejaVuSans-67" x="380.46875"/>
      <use xlink:href="#DejaVuSans-29" x="443.945312"/>
     </g>
    </g>
   </g>
   <g id="line2d_15">
    <path d="M 216 507.859152 
L 218.99597 613.426516 
L 224.987915 613.606871 
L 236.97181 614.027697 
L 245.959729 614.26817 
L 254.947649 614.56876 
L 296.891268 615.470531 
L 302.883217 615.650886 
L 323.855036 616.13183 
L 326.851006 616.252067 
L 329.846976 613.30628 
L 332.842946 613.787225 
L 335.838917 619.017499 
L 338.834887 621.001396 
L 341.830875 639.277295 
L 344.826845 655.749651 
L 347.822815 658.93591 
L 350.818786 655.990123 
L 353.814756 635.429737 
L 356.810726 610.420612 
L 359.806714 582.225228 
L 362.802685 565.933226 
L 365.798655 571.403972 
L 368.794625 581.143103 
L 371.790595 585.531723 
L 374.786565 588.717982 
L 377.782554 598.998175 
L 380.778524 601.222544 
L 383.774494 624.428127 
L 389.766435 672.582716 
L 392.762405 664.647128 
L 395.758375 654.006227 
L 398.754363 670.658937 
L 401.750333 660.739452 
L 404.746304 654.487171 
L 407.742274 635.790446 
L 410.738244 620.881159 
L 413.734214 614.208052 
L 416.730202 602.785615 
L 419.726173 622.203757 
L 422.722143 644.387332 
L 425.718113 642.162963 
L 428.714083 658.875792 
L 431.710054 692.421685 
L 434.706042 703.964359 
L 437.702012 714.785615 
L 440.697982 727.891358 
L 443.693952 726.929469 
L 446.689923 717.911755 
L 449.685893 701.439399 
L 452.681881 704.445303 
L 455.677851 710.336876 
L 458.673821 708.713688 
L 461.669792 712.621363 
L 464.665762 709.735695 
L 467.661732 706.549436 
L 470.657702 714.785615 
L 473.653673 732.099624 
L 476.649643 746.287493 
L 479.645613 745.566076 
L 482.641619 744.243478 
L 485.637589 744.063124 
L 488.63356 744.604187 
L 491.62953 743.582179 
L 494.6255 742.92088 
L 497.62147 746.70832 
L 500.61744 754.824262 
L 503.613411 764.262802 
L 506.609381 774.422759 
L 509.605351 793.179603 
L 512.601321 820.593451 
L 515.597292 851.434031 
L 518.593298 876.443156 
L 521.589268 903.436178 
L 524.585238 948.945572 
L 527.581208 983.393237 
L 530.577179 1003.592915 
L 533.573149 1046.697585 
L 536.569119 1087.517767 
L 539.565089 1111.865593 
L 542.56106 1132.005153 
L 545.55703 1166.272464 
L 548.553 1191.762534 
L 551.54897 1187.193559 
L 554.54494 1202.944498 
L 557.540946 1231.2 
L 560.536917 1224.466774 
L 563.532887 1203.18497 
L 566.528857 1201.140955 
L 569.524827 1164.82963 
L 572.520798 1124.249919 
L 575.516768 1085.353516 
L 578.512738 1014.594525 
L 581.508708 953.334192 
L 584.504679 910.409877 
L 587.500649 848.909071 
L 590.496619 756.808159 
L 593.492625 686.590231 
L 596.488595 658.334729 
L 599.484565 591.122705 
L 602.480536 505.995491 
L 605.476506 461.868814 
L 608.472476 420.086742 
L 611.468446 375.298765 
L 614.464417 347.644444 
L 617.460387 331.893505 
L 620.456357 319.268706 
L 623.452327 309.529576 
L 626.448298 309.349222 
L 629.444268 312.415244 
L 632.440274 313.377134 
L 635.436244 312.295008 
L 638.432214 311.032528 
L 641.428185 308.327214 
L 644.424155 301.714224 
L 647.420125 292.876865 
L 650.416095 284.881159 
L 653.412065 277.426516 
L 656.408036 277.847343 
L 659.404006 284.580569 
L 662.399976 290.772732 
L 665.395946 301.954697 
L 668.391952 329.84949 
L 671.387923 370.789909 
L 674.383893 410.167257 
L 677.379863 445.877402 
L 680.375833 490.184434 
L 683.371804 550.242405 
L 686.367774 601.883843 
L 692.359714 662.603113 
L 695.355685 708.172625 
L 698.351655 742.800644 
L 701.347625 761.256897 
L 704.343595 783.380354 
L 707.339601 807.247236 
L 713.331542 831.294471 
L 716.327512 847.406119 
L 719.323482 853.838755 
L 722.319452 854.319699 
L 725.315423 860.872571 
L 728.311393 865.561782 
L 731.307363 863.818357 
L 734.303333 863.277295 
L 737.299304 862.255287 
L 743.29128 858.828556 
L 746.28725 855.461943 
L 752.27919 844.640687 
L 755.275161 840.913366 
L 758.271131 835.983682 
L 764.263071 821.435105 
L 770.255012 810.132904 
L 773.250982 802.798497 
L 776.246952 794.983145 
L 779.242923 788.610628 
L 782.238893 783.50059 
L 785.234863 779.172088 
L 788.230833 774.362641 
L 791.226804 770.575201 
L 794.222774 767.569297 
L 797.218744 763.841975 
L 800.214786 760.715835 
L 803.210756 759.152764 
L 806.206726 757.108749 
L 809.202696 754.824262 
L 812.198667 753.561782 
L 815.194637 753.020719 
L 818.190607 752.780247 
L 821.186577 752.179066 
L 824.182548 751.758239 
L 827.178518 751.758239 
L 833.170458 751.036822 
L 836.166429 751.397531 
L 839.162399 751.457649 
L 842.158369 751.277295 
L 869.122101 751.277295 
L 872.118071 751.397531 
L 893.089935 751.457649 
L 896.085905 751.517767 
L 899.081875 751.457649 
L 908.069786 751.577885 
L 914.061726 751.517767 
L 920.053667 751.698121 
L 926.045607 751.818357 
L 929.041577 752.539775 
L 932.037548 753.441546 
L 935.033518 753.261192 
L 938.029488 752.539775 
L 941.025458 756.14686 
L 944.021429 756.988513 
L 947.017399 752.179066 
L 950.01344 745.205368 
L 953.009411 745.325604 
L 956.005381 736.668599 
L 959.001351 717.671283 
L 961.997321 684.606334 
L 964.993292 654.246699 
L 967.989262 625.991197 
L 970.985232 578.618143 
L 973.981202 520.483951 
L 976.977173 468.541922 
L 979.973143 436.919807 
L 985.965083 335.741063 
L 991.957024 274.901557 
L 994.952994 249.832313 
L 997.948964 234.682555 
L 1000.944935 236.365862 
L 1003.940905 235.403972 
L 1006.936875 223.2 
L 1009.932845 224.161889 
L 1012.928815 231.796887 
L 1015.924786 231.676651 
L 1018.920756 244.481804 
L 1021.916726 251.695974 
L 1024.912768 263.599356 
L 1027.908738 285.241868 
L 1030.904708 296.303596 
L 1033.900679 318.487171 
L 1039.892619 386.420612 
L 1042.888589 423.874181 
L 1045.88456 451.949329 
L 1048.88053 494.573054 
L 1054.87247 638.135051 
L 1057.86844 686.469995 
L 1060.864411 744.18336 
L 1063.860381 833.518841 
L 1066.856351 902.354053 
L 1069.852321 943.595062 
L 1075.844262 1044.232743 
L 1078.840232 1084.932689 
L 1081.836202 1108.559098 
L 1084.832173 1134.169404 
L 1087.828143 1156.052389 
L 1090.824113 1139.880623 
L 1093.820083 1146.313258 
L 1096.816054 1169.518841 
L 1099.812095 1151.242941 
L 1102.808065 1142.946645 
L 1105.804036 1147.996565 
L 1108.800006 1136.934836 
L 1111.795976 1134.049168 
L 1114.791946 1134.28964 
L 1117.787917 1135.852711 
L 1120.783887 1134.590231 
L 1123.779857 1133.928932 
L 1126.775827 1135.732475 
L 1129.771798 1135.191412 
L 1132.767768 1121.183897 
L 1135.763738 1115.11197 
L 1138.759708 1103.509179 
L 1141.755679 1082.828556 
L 1144.751649 1053.250456 
L 1147.747619 1016.879012 
L 1153.73956 954.777026 
L 1156.73553 914.37767 
L 1159.7315 865.802254 
L 1162.72747 826.545142 
L 1165.72344 806.285346 
L 1168.719411 777.007837 
L 1171.715381 738.291787 
L 1174.711423 712.982072 
L 1177.707393 702.882233 
L 1183.699333 680.157595 
L 1186.695304 673.72496 
L 1189.691274 673.183897 
L 1192.687244 672.342244 
L 1195.683214 673.664842 
L 1198.679185 677.271927 
L 1201.675155 677.271927 
L 1204.671125 678.774879 
L 1207.667095 683.764681 
L 1210.663065 686.469995 
L 1213.659036 687.371766 
L 1216.655006 688.874718 
L 1219.650976 690.858615 
L 1222.646946 691.940741 
L 1225.642917 692.782394 
L 1228.638887 694.104992 
L 1231.634857 694.4657 
L 1234.630827 694.585937 
L 1237.626798 695.187118 
L 1246.614708 696.209125 
L 1252.60672 696.629952 
L 1255.60269 697.351369 
L 1258.598661 698.373376 
L 1261.594631 699.996565 
L 1267.586571 703.844122 
L 1270.582542 706.489318 
L 1273.578512 709.495223 
L 1276.574482 711.960064 
L 1279.570452 713.463017 
L 1282.566423 715.146323 
L 1285.562393 717.430811 
L 1288.558363 718.993881 
L 1291.554333 720.076006 
L 1294.550304 721.278368 
L 1297.546274 722.600966 
L 1300.542244 723.442619 
L 1306.534185 724.524745 
L 1312.526125 725.246162 
L 1318.518065 725.787225 
L 1321.514036 726.147933 
L 1327.506048 726.56876 
L 1330.502018 726.809232 
L 1345.481869 727.410413 
L 1348.477839 727.650886 
L 1378.437542 728.913366 
L 1384.429482 729.213956 
L 1387.425524 729.274074 
L 1393.417464 729.574665 
L 1396.413363 729.574665 
L 1399.409405 729.815137 
L 1411.393286 730.296082 
L 1414.389185 730.536554 
L 1417.385226 730.65679 
L 1423.377167 730.65679 
L 1456.332911 731.91927 
L 1468.316792 732.21986 
L 1486.292613 732.941278 
L 1489.288512 732.941278 
L 1492.284554 733.061514 
L 1495.280452 733.061514 
L 1501.272393 733.301986 
L 1504.268435 733.301986 
L 1519.248357 733.843049 
L 1525.240298 734.023403 
L 1534.228137 734.323994 
L 1549.20806 734.624584 
L 1552.203958 734.865056 
L 1555.2 734.865056 
L 1555.2 734.865056 
" clip-path="url(#p42a76129a6)" style="fill: none; stroke: #0000ff; stroke-width: 2; stroke-linecap: square"/>
   </g>
   <g id="patch_3">
    <path d="M 216 1281.6 
L 216 172.8 
" style="fill: none; stroke: #000000; stroke-width: 0.8; stroke-linejoin: miter; stroke-linecap: square"/>
   </g>
   <g id="patch_4">
    <path d="M 1555.2 1281.6 
L 1555.2 172.8 
" style="fill: none; stroke: #000000; stroke-width: 0.8; stroke-linejoin: miter; stroke-linecap: square"/>
   </g>
   <g id="patch_5">
    <path d="M 216 1281.6 
L 1555.2 1281.6 
" style="fill: none; stroke: #000000; stroke-width: 0.8; stroke-linejoin: miter; stroke-linecap: square"/>
   </g>
   <g id="patch_6">
    <path d="M 216 172.8 
L 1555.2 172.8 
" style="fill: none; stroke: #000000; stroke-width: 0.8; stroke-linejoin: miter; stroke-linecap: square"/>
   </g>
  </g>
 </g>
 <defs>
  <clipPath id="p42a76129a6">
   <rect x="216" y="172.8" width="1339.2" height="1108.8"/>
  </clipPath>
 </defs>
</svg>
