<?xml version="1.0" encoding="utf-8" standalone="no"?>
<!DOCTYPE svg PUBLIC "-//W3C//DTD SVG 1.1//EN"
  "http://www.w3.org/Graphics/SVG/1.1/DTD/svg11.dtd">
<svg xmlns:xlink="http://www.w3.org/1999/xlink" width="720pt" height="540pt" viewBox="0 0 720 540" xmlns="http://www.w3.org/2000/svg" version="1.1">
 <metadata>
  <rdf:RDF xmlns:dc="http://purl.org/dc/elements/1.1/" xmlns:cc="http://creativecommons.org/ns#" xmlns:rdf="http://www.w3.org/1999/02/22-rdf-syntax-ns#">
   <cc:Work>
    <dc:type rdf:resource="http://purl.org/dc/dcmitype/StillImage"/>
    <dc:date>2024-08-14T19:40:44.336847</dc:date>
    <dc:format>image/svg+xml</dc:format>
    <dc:creator>
     <cc:Agent>
      <dc:title>Matplotlib v3.9.2, https://matplotlib.org/</dc:title>
     </cc:Agent>
    </dc:creator>
   </cc:Work>
  </rdf:RDF>
 </metadata>
 <defs>
  <style type="text/css">*{stroke-linejoin: round; stroke-linecap: butt}</style>
 </defs>
 <g id="figure_1">
  <g id="patch_1">
   <path d="M 0 540 
L 720 540 
L 720 0 
L 0 0 
L 0 540 
z
" style="fill: none"/>
  </g>
  <g id="axes_1">
   <g id="patch_2">
    <path d="M 134.3 202.461151 
L 709.2 202.461151 
L 709.2 10.8 
L 134.3 10.8 
L 134.3 202.461151 
z
" style="fill: none"/>
   </g>
   <g id="matplotlib.axis_1">
    <g id="xtick_1">
     <g id="line2d_1">
      <path d="M 157.481452 202.461151 
L 157.481452 10.8 
" clip-path="url(#pb9a8e6b326)" style="fill: none; stroke-dasharray: 1.85,0.8; stroke-dashoffset: 0; stroke: #b0b0b0; stroke-width: 0.5"/>
     </g>
     <g id="line2d_2">
      <defs>
       <path id="m9f45e09587" d="M 0 0 
L 0 3.5 
" style="stroke: #000000; stroke-width: 0.8"/>
      </defs>
      <g>
       <use xlink:href="#m9f45e09587" x="157.481452" y="202.461151" style="stroke: #000000; stroke-width: 0.8"/>
      </g>
     </g>
     <g id="text_1">
      <!-- −0.075 -->
      <g transform="translate(109.371295 229.217088) scale(0.26 -0.26)">
       <defs>
        <path id="DejaVuSans-2212" d="M 678 2272 
L 4684 2272 
L 4684 1741 
L 678 1741 
L 678 2272 
z
" transform="scale(0.015625)"/>
        <path id="DejaVuSans-30" d="M 2034 4250 
Q 1547 4250 1301 3770 
Q 1056 3291 1056 2328 
Q 1056 1369 1301 889 
Q 1547 409 2034 409 
Q 2525 409 2770 889 
Q 3016 1369 3016 2328 
Q 3016 3291 2770 3770 
Q 2525 4250 2034 4250 
z
M 2034 4750 
Q 2819 4750 3233 4129 
Q 3647 3509 3647 2328 
Q 3647 1150 3233 529 
Q 2819 -91 2034 -91 
Q 1250 -91 836 529 
Q 422 1150 422 2328 
Q 422 3509 836 4129 
Q 1250 4750 2034 4750 
z
" transform="scale(0.015625)"/>
        <path id="DejaVuSans-2e" d="M 684 794 
L 1344 794 
L 1344 0 
L 684 0 
L 684 794 
z
" transform="scale(0.015625)"/>
        <path id="DejaVuSans-37" d="M 525 4666 
L 3525 4666 
L 3525 4397 
L 1831 0 
L 1172 0 
L 2766 4134 
L 525 4134 
L 525 4666 
z
" transform="scale(0.015625)"/>
        <path id="DejaVuSans-35" d="M 691 4666 
L 3169 4666 
L 3169 4134 
L 1269 4134 
L 1269 2991 
Q 1406 3038 1543 3061 
Q 1681 3084 1819 3084 
Q 2600 3084 3056 2656 
Q 3513 2228 3513 1497 
Q 3513 744 3044 326 
Q 2575 -91 1722 -91 
Q 1428 -91 1123 -41 
Q 819 9 494 109 
L 494 744 
Q 775 591 1075 516 
Q 1375 441 1709 441 
Q 2250 441 2565 725 
Q 2881 1009 2881 1497 
Q 2881 1984 2565 2268 
Q 2250 2553 1709 2553 
Q 1456 2553 1204 2497 
Q 953 2441 691 2322 
L 691 4666 
z
" transform="scale(0.015625)"/>
       </defs>
       <use xlink:href="#DejaVuSans-2212"/>
       <use xlink:href="#DejaVuSans-30" x="83.789062"/>
       <use xlink:href="#DejaVuSans-2e" x="147.412109"/>
       <use xlink:href="#DejaVuSans-30" x="179.199219"/>
       <use xlink:href="#DejaVuSans-37" x="242.822266"/>
       <use xlink:href="#DejaVuSans-35" x="306.445312"/>
      </g>
     </g>
    </g>
    <g id="xtick_2">
     <g id="line2d_3">
      <path d="M 273.38871 202.461151 
L 273.38871 10.8 
" clip-path="url(#pb9a8e6b326)" style="fill: none; stroke-dasharray: 1.85,0.8; stroke-dashoffset: 0; stroke: #b0b0b0; stroke-width: 0.5"/>
     </g>
     <g id="line2d_4">
      <g>
       <use xlink:href="#m9f45e09587" x="273.38871" y="202.461151" style="stroke: #000000; stroke-width: 0.8"/>
      </g>
     </g>
     <g id="text_2">
      <!-- −0.050 -->
      <g transform="translate(225.278553 229.217088) scale(0.26 -0.26)">
       <use xlink:href="#DejaVuSans-2212"/>
       <use xlink:href="#DejaVuSans-30" x="83.789062"/>
       <use xlink:href="#DejaVuSans-2e" x="147.412109"/>
       <use xlink:href="#DejaVuSans-30" x="179.199219"/>
       <use xlink:href="#DejaVuSans-35" x="242.822266"/>
       <use xlink:href="#DejaVuSans-30" x="306.445312"/>
      </g>
     </g>
    </g>
    <g id="xtick_3">
     <g id="line2d_5">
      <path d="M 389.295968 202.461151 
L 389.295968 10.8 
" clip-path="url(#pb9a8e6b326)" style="fill: none; stroke-dasharray: 1.85,0.8; stroke-dashoffset: 0; stroke: #b0b0b0; stroke-width: 0.5"/>
     </g>
     <g id="line2d_6">
      <g>
       <use xlink:href="#m9f45e09587" x="389.295968" y="202.461151" style="stroke: #000000; stroke-width: 0.8"/>
      </g>
     </g>
     <g id="text_3">
      <!-- −0.025 -->
      <g transform="translate(341.185811 229.217088) scale(0.26 -0.26)">
       <defs>
        <path id="DejaVuSans-32" d="M 1228 531 
L 3431 531 
L 3431 0 
L 469 0 
L 469 531 
Q 828 903 1448 1529 
Q 2069 2156 2228 2338 
Q 2531 2678 2651 2914 
Q 2772 3150 2772 3378 
Q 2772 3750 2511 3984 
Q 2250 4219 1831 4219 
Q 1534 4219 1204 4116 
Q 875 4013 500 3803 
L 500 4441 
Q 881 4594 1212 4672 
Q 1544 4750 1819 4750 
Q 2544 4750 2975 4387 
Q 3406 4025 3406 3419 
Q 3406 3131 3298 2873 
Q 3191 2616 2906 2266 
Q 2828 2175 2409 1742 
Q 1991 1309 1228 531 
z
" transform="scale(0.015625)"/>
       </defs>
       <use xlink:href="#DejaVuSans-2212"/>
       <use xlink:href="#DejaVuSans-30" x="83.789062"/>
       <use xlink:href="#DejaVuSans-2e" x="147.412109"/>
       <use xlink:href="#DejaVuSans-30" x="179.199219"/>
       <use xlink:href="#DejaVuSans-32" x="242.822266"/>
       <use xlink:href="#DejaVuSans-35" x="306.445312"/>
      </g>
     </g>
    </g>
    <g id="xtick_4">
     <g id="line2d_7">
      <path d="M 505.203226 202.461151 
L 505.203226 10.8 
" clip-path="url(#pb9a8e6b326)" style="fill: none; stroke-dasharray: 1.85,0.8; stroke-dashoffset: 0; stroke: #b0b0b0; stroke-width: 0.5"/>
     </g>
     <g id="line2d_8">
      <g>
       <use xlink:href="#m9f45e09587" x="505.203226" y="202.461151" style="stroke: #000000; stroke-width: 0.8"/>
      </g>
     </g>
     <g id="text_4">
      <!-- 0.000 -->
      <g transform="translate(467.986663 229.217088) scale(0.26 -0.26)">
       <use xlink:href="#DejaVuSans-30"/>
       <use xlink:href="#DejaVuSans-2e" x="63.623047"/>
       <use xlink:href="#DejaVuSans-30" x="95.410156"/>
       <use xlink:href="#DejaVuSans-30" x="159.033203"/>
       <use xlink:href="#DejaVuSans-30" x="222.65625"/>
      </g>
     </g>
    </g>
    <g id="xtick_5">
     <g id="line2d_9">
      <path d="M 621.110484 202.461151 
L 621.110484 10.8 
" clip-path="url(#pb9a8e6b326)" style="fill: none; stroke-dasharray: 1.85,0.8; stroke-dashoffset: 0; stroke: #b0b0b0; stroke-width: 0.5"/>
     </g>
     <g id="line2d_10">
      <g>
       <use xlink:href="#m9f45e09587" x="621.110484" y="202.461151" style="stroke: #000000; stroke-width: 0.8"/>
      </g>
     </g>
     <g id="text_5">
      <!-- 0.025 -->
      <g transform="translate(583.893921 229.217088) scale(0.26 -0.26)">
       <use xlink:href="#DejaVuSans-30"/>
       <use xlink:href="#DejaVuSans-2e" x="63.623047"/>
       <use xlink:href="#DejaVuSans-30" x="95.410156"/>
       <use xlink:href="#DejaVuSans-32" x="159.033203"/>
       <use xlink:href="#DejaVuSans-35" x="222.65625"/>
      </g>
     </g>
    </g>
    <g id="text_6">
     <!-- Slip Angle (rad) -->
     <g transform="translate(321.054844 258.380213) scale(0.26 -0.26)">
      <defs>
       <path id="DejaVuSans-53" d="M 3425 4513 
L 3425 3897 
Q 3066 4069 2747 4153 
Q 2428 4238 2131 4238 
Q 1616 4238 1336 4038 
Q 1056 3838 1056 3469 
Q 1056 3159 1242 3001 
Q 1428 2844 1947 2747 
L 2328 2669 
Q 3034 2534 3370 2195 
Q 3706 1856 3706 1288 
Q 3706 609 3251 259 
Q 2797 -91 1919 -91 
Q 1588 -91 1214 -16 
Q 841 59 441 206 
L 441 856 
Q 825 641 1194 531 
Q 1563 422 1919 422 
Q 2459 422 2753 634 
Q 3047 847 3047 1241 
Q 3047 1584 2836 1778 
Q 2625 1972 2144 2069 
L 1759 2144 
Q 1053 2284 737 2584 
Q 422 2884 422 3419 
Q 422 4038 858 4394 
Q 1294 4750 2059 4750 
Q 2388 4750 2728 4690 
Q 3069 4631 3425 4513 
z
" transform="scale(0.015625)"/>
       <path id="DejaVuSans-6c" d="M 603 4863 
L 1178 4863 
L 1178 0 
L 603 0 
L 603 4863 
z
" transform="scale(0.015625)"/>
       <path id="DejaVuSans-69" d="M 603 3500 
L 1178 3500 
L 1178 0 
L 603 0 
L 603 3500 
z
M 603 4863 
L 1178 4863 
L 1178 4134 
L 603 4134 
L 603 4863 
z
" transform="scale(0.015625)"/>
       <path id="DejaVuSans-70" d="M 1159 525 
L 1159 -1331 
L 581 -1331 
L 581 3500 
L 1159 3500 
L 1159 2969 
Q 1341 3281 1617 3432 
Q 1894 3584 2278 3584 
Q 2916 3584 3314 3078 
Q 3713 2572 3713 1747 
Q 3713 922 3314 415 
Q 2916 -91 2278 -91 
Q 1894 -91 1617 61 
Q 1341 213 1159 525 
z
M 3116 1747 
Q 3116 2381 2855 2742 
Q 2594 3103 2138 3103 
Q 1681 3103 1420 2742 
Q 1159 2381 1159 1747 
Q 1159 1113 1420 752 
Q 1681 391 2138 391 
Q 2594 391 2855 752 
Q 3116 1113 3116 1747 
z
" transform="scale(0.015625)"/>
       <path id="DejaVuSans-20" transform="scale(0.015625)"/>
       <path id="DejaVuSans-41" d="M 2188 4044 
L 1331 1722 
L 3047 1722 
L 2188 4044 
z
M 1831 4666 
L 2547 4666 
L 4325 0 
L 3669 0 
L 3244 1197 
L 1141 1197 
L 716 0 
L 50 0 
L 1831 4666 
z
" transform="scale(0.015625)"/>
       <path id="DejaVuSans-6e" d="M 3513 2113 
L 3513 0 
L 2938 0 
L 2938 2094 
Q 2938 2591 2744 2837 
Q 2550 3084 2163 3084 
Q 1697 3084 1428 2787 
Q 1159 2491 1159 1978 
L 1159 0 
L 581 0 
L 581 3500 
L 1159 3500 
L 1159 2956 
Q 1366 3272 1645 3428 
Q 1925 3584 2291 3584 
Q 2894 3584 3203 3211 
Q 3513 2838 3513 2113 
z
" transform="scale(0.015625)"/>
       <path id="DejaVuSans-67" d="M 2906 1791 
Q 2906 2416 2648 2759 
Q 2391 3103 1925 3103 
Q 1463 3103 1205 2759 
Q 947 2416 947 1791 
Q 947 1169 1205 825 
Q 1463 481 1925 481 
Q 2391 481 2648 825 
Q 2906 1169 2906 1791 
z
M 3481 434 
Q 3481 -459 3084 -895 
Q 2688 -1331 1869 -1331 
Q 1566 -1331 1297 -1286 
Q 1028 -1241 775 -1147 
L 775 -588 
Q 1028 -725 1275 -790 
Q 1522 -856 1778 -856 
Q 2344 -856 2625 -561 
Q 2906 -266 2906 331 
L 2906 616 
Q 2728 306 2450 153 
Q 2172 0 1784 0 
Q 1141 0 747 490 
Q 353 981 353 1791 
Q 353 2603 747 3093 
Q 1141 3584 1784 3584 
Q 2172 3584 2450 3431 
Q 2728 3278 2906 2969 
L 2906 3500 
L 3481 3500 
L 3481 434 
z
" transform="scale(0.015625)"/>
       <path id="DejaVuSans-65" d="M 3597 1894 
L 3597 1613 
L 953 1613 
Q 991 1019 1311 708 
Q 1631 397 2203 397 
Q 2534 397 2845 478 
Q 3156 559 3463 722 
L 3463 178 
Q 3153 47 2828 -22 
Q 2503 -91 2169 -91 
Q 1331 -91 842 396 
Q 353 884 353 1716 
Q 353 2575 817 3079 
Q 1281 3584 2069 3584 
Q 2775 3584 3186 3129 
Q 3597 2675 3597 1894 
z
M 3022 2063 
Q 3016 2534 2758 2815 
Q 2500 3097 2075 3097 
Q 1594 3097 1305 2825 
Q 1016 2553 972 2059 
L 3022 2063 
z
" transform="scale(0.015625)"/>
       <path id="DejaVuSans-28" d="M 1984 4856 
Q 1566 4138 1362 3434 
Q 1159 2731 1159 2009 
Q 1159 1288 1364 580 
Q 1569 -128 1984 -844 
L 1484 -844 
Q 1016 -109 783 600 
Q 550 1309 550 2009 
Q 550 2706 781 3412 
Q 1013 4119 1484 4856 
L 1984 4856 
z
" transform="scale(0.015625)"/>
       <path id="DejaVuSans-72" d="M 2631 2963 
Q 2534 3019 2420 3045 
Q 2306 3072 2169 3072 
Q 1681 3072 1420 2755 
Q 1159 2438 1159 1844 
L 1159 0 
L 581 0 
L 581 3500 
L 1159 3500 
L 1159 2956 
Q 1341 3275 1631 3429 
Q 1922 3584 2338 3584 
Q 2397 3584 2469 3576 
Q 2541 3569 2628 3553 
L 2631 2963 
z
" transform="scale(0.015625)"/>
       <path id="DejaVuSans-61" d="M 2194 1759 
Q 1497 1759 1228 1600 
Q 959 1441 959 1056 
Q 959 750 1161 570 
Q 1363 391 1709 391 
Q 2188 391 2477 730 
Q 2766 1069 2766 1631 
L 2766 1759 
L 2194 1759 
z
M 3341 1997 
L 3341 0 
L 2766 0 
L 2766 531 
Q 2569 213 2275 61 
Q 1981 -91 1556 -91 
Q 1019 -91 701 211 
Q 384 513 384 1019 
Q 384 1609 779 1909 
Q 1175 2209 1959 2209 
L 2766 2209 
L 2766 2266 
Q 2766 2663 2505 2880 
Q 2244 3097 1772 3097 
Q 1472 3097 1187 3025 
Q 903 2953 641 2809 
L 641 3341 
Q 956 3463 1253 3523 
Q 1550 3584 1831 3584 
Q 2591 3584 2966 3190 
Q 3341 2797 3341 1997 
z
" transform="scale(0.015625)"/>
       <path id="DejaVuSans-64" d="M 2906 2969 
L 2906 4863 
L 3481 4863 
L 3481 0 
L 2906 0 
L 2906 525 
Q 2725 213 2448 61 
Q 2172 -91 1784 -91 
Q 1150 -91 751 415 
Q 353 922 353 1747 
Q 353 2572 751 3078 
Q 1150 3584 1784 3584 
Q 2172 3584 2448 3432 
Q 2725 3281 2906 2969 
z
M 947 1747 
Q 947 1113 1208 752 
Q 1469 391 1925 391 
Q 2381 391 2643 752 
Q 2906 1113 2906 1747 
Q 2906 2381 2643 2742 
Q 2381 3103 1925 3103 
Q 1469 3103 1208 2742 
Q 947 2381 947 1747 
z
" transform="scale(0.015625)"/>
       <path id="DejaVuSans-29" d="M 513 4856 
L 1013 4856 
Q 1481 4119 1714 3412 
Q 1947 2706 1947 2009 
Q 1947 1309 1714 600 
Q 1481 -109 1013 -844 
L 513 -844 
Q 928 -128 1133 580 
Q 1338 1288 1338 2009 
Q 1338 2731 1133 3434 
Q 928 4138 513 4856 
z
" transform="scale(0.015625)"/>
      </defs>
      <use xlink:href="#DejaVuSans-53"/>
      <use xlink:href="#DejaVuSans-6c" x="63.476562"/>
      <use xlink:href="#DejaVuSans-69" x="91.259766"/>
      <use xlink:href="#DejaVuSans-70" x="119.042969"/>
      <use xlink:href="#DejaVuSans-20" x="182.519531"/>
      <use xlink:href="#DejaVuSans-41" x="214.306641"/>
      <use xlink:href="#DejaVuSans-6e" x="282.714844"/>
      <use xlink:href="#DejaVuSans-67" x="346.09375"/>
      <use xlink:href="#DejaVuSans-6c" x="409.570312"/>
      <use xlink:href="#DejaVuSans-65" x="437.353516"/>
      <use xlink:href="#DejaVuSans-20" x="498.876953"/>
      <use xlink:href="#DejaVuSans-28" x="530.664062"/>
      <use xlink:href="#DejaVuSans-72" x="569.677734"/>
      <use xlink:href="#DejaVuSans-61" x="610.791016"/>
      <use xlink:href="#DejaVuSans-64" x="672.070312"/>
      <use xlink:href="#DejaVuSans-29" x="735.546875"/>
     </g>
    </g>
   </g>
   <g id="matplotlib.axis_2">
    <g id="ytick_1">
     <g id="line2d_11">
      <path d="M 134.3 193.148925 
L 709.2 193.148925 
" clip-path="url(#pb9a8e6b326)" style="fill: none; stroke-dasharray: 1.85,0.8; stroke-dashoffset: 0; stroke: #b0b0b0; stroke-width: 0.5"/>
     </g>
     <g id="line2d_12">
      <defs>
       <path id="m487fe9dc73" d="M 0 0 
L -3.5 0 
" style="stroke: #000000; stroke-width: 0.8"/>
      </defs>
      <g>
       <use xlink:href="#m487fe9dc73" x="134.3" y="193.148925" style="stroke: #000000; stroke-width: 0.8"/>
      </g>
     </g>
     <g id="text_7">
      <!-- −5000 -->
      <g transform="translate(39.342813 203.026893) scale(0.26 -0.26)">
       <use xlink:href="#DejaVuSans-2212"/>
       <use xlink:href="#DejaVuSans-35" x="83.789062"/>
       <use xlink:href="#DejaVuSans-30" x="147.412109"/>
       <use xlink:href="#DejaVuSans-30" x="211.035156"/>
       <use xlink:href="#DejaVuSans-30" x="274.658203"/>
      </g>
     </g>
    </g>
    <g id="ytick_2">
     <g id="line2d_13">
      <path d="M 134.3 97.642657 
L 709.2 97.642657 
" clip-path="url(#pb9a8e6b326)" style="fill: none; stroke-dasharray: 1.85,0.8; stroke-dashoffset: 0; stroke: #b0b0b0; stroke-width: 0.5"/>
     </g>
     <g id="line2d_14">
      <g>
       <use xlink:href="#m487fe9dc73" x="134.3" y="97.642657" style="stroke: #000000; stroke-width: 0.8"/>
      </g>
     </g>
     <g id="text_8">
      <!-- 0 -->
      <g transform="translate(110.7575 107.520626) scale(0.26 -0.26)">
       <use xlink:href="#DejaVuSans-30"/>
      </g>
     </g>
    </g>
    <g id="text_9">
     <!-- Force (N) -->
     <g transform="translate(29.935625 165.790732) rotate(-90) scale(0.26 -0.26)">
      <defs>
       <path id="DejaVuSans-46" d="M 628 4666 
L 3309 4666 
L 3309 4134 
L 1259 4134 
L 1259 2759 
L 3109 2759 
L 3109 2228 
L 1259 2228 
L 1259 0 
L 628 0 
L 628 4666 
z
" transform="scale(0.015625)"/>
       <path id="DejaVuSans-6f" d="M 1959 3097 
Q 1497 3097 1228 2736 
Q 959 2375 959 1747 
Q 959 1119 1226 758 
Q 1494 397 1959 397 
Q 2419 397 2687 759 
Q 2956 1122 2956 1747 
Q 2956 2369 2687 2733 
Q 2419 3097 1959 3097 
z
M 1959 3584 
Q 2709 3584 3137 3096 
Q 3566 2609 3566 1747 
Q 3566 888 3137 398 
Q 2709 -91 1959 -91 
Q 1206 -91 779 398 
Q 353 888 353 1747 
Q 353 2609 779 3096 
Q 1206 3584 1959 3584 
z
" transform="scale(0.015625)"/>
       <path id="DejaVuSans-63" d="M 3122 3366 
L 3122 2828 
Q 2878 2963 2633 3030 
Q 2388 3097 2138 3097 
Q 1578 3097 1268 2742 
Q 959 2388 959 1747 
Q 959 1106 1268 751 
Q 1578 397 2138 397 
Q 2388 397 2633 464 
Q 2878 531 3122 666 
L 3122 134 
Q 2881 22 2623 -34 
Q 2366 -91 2075 -91 
Q 1284 -91 818 406 
Q 353 903 353 1747 
Q 353 2603 823 3093 
Q 1294 3584 2113 3584 
Q 2378 3584 2631 3529 
Q 2884 3475 3122 3366 
z
" transform="scale(0.015625)"/>
       <path id="DejaVuSans-4e" d="M 628 4666 
L 1478 4666 
L 3547 763 
L 3547 4666 
L 4159 4666 
L 4159 0 
L 3309 0 
L 1241 3903 
L 1241 0 
L 628 0 
L 628 4666 
z
" transform="scale(0.015625)"/>
      </defs>
      <use xlink:href="#DejaVuSans-46"/>
      <use xlink:href="#DejaVuSans-6f" x="53.894531"/>
      <use xlink:href="#DejaVuSans-72" x="115.076172"/>
      <use xlink:href="#DejaVuSans-63" x="153.939453"/>
      <use xlink:href="#DejaVuSans-65" x="208.919922"/>
      <use xlink:href="#DejaVuSans-20" x="270.443359"/>
      <use xlink:href="#DejaVuSans-28" x="302.230469"/>
      <use xlink:href="#DejaVuSans-4e" x="341.244141"/>
      <use xlink:href="#DejaVuSans-29" x="416.048828"/>
     </g>
    </g>
   </g>
   <g id="line2d_15">
    <path d="M 134.216 193.044847 
L 146.572119 192.510935 
L 173.005432 191.082007 
L 189.898575 189.923984 
L 206.235367 188.585534 
L 221.664299 187.092204 
L 235.772442 185.504795 
L 246.73772 184.107951 
L 261.104281 182.038076 
L 270.961625 180.447915 
L 282.927615 178.316316 
L 294.923296 175.944189 
L 304.573433 173.855549 
L 318.316699 170.590727 
L 329.78444 167.597873 
L 337.69454 165.388148 
L 350.466058 161.570113 
L 361.61286 157.987919 
L 372.558284 154.251451 
L 384.928213 149.779099 
L 397.580392 144.950446 
L 406.871654 141.256149 
L 420.684506 135.556824 
L 435.356306 129.274202 
L 450.661111 122.519913 
L 452.3191 121.778359 
L 456.328802 119.977362 
L 463.244714 116.849956 
L 464.445888 116.304442 
L 486.415293 106.230234 
L 509.874578 95.367997 
L 564.603342 70.383314 
L 580.975299 63.229135 
L 597.817586 56.141397 
L 613.269204 49.943618 
L 625.933197 45.118602 
L 629.097669 43.953794 
L 649.418044 36.872961 
L 661.476247 33.021661 
L 673.709359 29.394778 
L 684.583824 26.408379 
L 698.475348 22.917396 
L 712.353003 19.783592 
L 712.353003 19.783592 
" clip-path="url(#pb9a8e6b326)" style="fill: none; stroke-dasharray: 19.2,4.8,3,4.8; stroke-dashoffset: 0; stroke: #0000ff; stroke-width: 3"/>
   </g>
   <g id="line2d_16">
    <path d="M 134.358939 193.74928 
L 135.831682 192.440471 
L 147.062216 191.995006 
L 168.305331 190.931817 
L 171.113163 192.000135 
L 171.735629 190.583826 
L 171.910383 190.607889 
L 174.798666 190.465674 
L 178.347135 190.268366 
L 178.371281 190.170108 
L 182.818285 189.989551 
L 182.947959 189.917017 
L 183.37885 190.952607 
L 184.300527 189.822135 
L 197.416629 188.964398 
L 200.249954 189.90034 
L 200.645299 188.548041 
L 202.851806 188.354958 
L 203.553997 188.443431 
L 204.184822 188.235043 
L 204.84304 188.373984 
L 206.405181 188.053926 
L 206.730507 188.196309 
L 207.517122 188.029863 
L 209.778897 187.892358 
L 213.555869 187.42365 
L 215.107785 187.418399 
L 215.282193 187.279356 
L 215.490108 187.397638 
L 218.922927 186.881951 
L 221.927137 186.754258 
L 222.153808 186.580341 
L 224.098634 186.520239 
L 225.415295 186.209545 
L 228.315253 186.087113 
L 230.744511 186.730847 
L 231.440191 185.550431 
L 234.397162 185.390132 
L 234.621675 185.189466 
L 236.256701 184.987746 
L 237.557144 185.017666 
L 238.203928 184.724759 
L 238.474106 184.769984 
L 242.781574 184.179375 
L 243.425283 184.297051 
L 244.551318 184.149651 
L 246.020538 183.779312 
L 252.87799 183.837772 
L 255.453779 182.651275 
L 257.204042 182.259074 
L 257.612185 182.366528 
L 259.676547 182.03387 
L 261.602944 181.559836 
L 266.770516 181.398445 
L 266.811588 180.931406 
L 269.906162 180.313069 
L 271.460668 180.151426 
L 278.186927 178.820942 
L 280.747327 178.98915 
L 281.139045 178.458885 
L 281.608675 178.269029 
L 283.437402 177.871335 
L 289.031269 176.861767 
L 289.599969 176.858185 
L 292.924721 176.195779 
L 293.932998 175.858839 
L 294.924038 175.786613 
L 295.406881 175.695835 
L 299.589769 175.094351 
L 301.85524 174.130852 
L 305.077313 173.600797 
L 313.335659 171.594069 
L 313.972892 171.387989 
L 316.462842 170.915261 
L 319.752222 170.101807 
L 320.290558 169.894841 
L 321.213013 169.771224 
L 322.277992 169.340784 
L 324.384221 168.928605 
L 325.615732 168.518129 
L 327.363766 168.129174 
L 328.138463 167.764492 
L 328.852538 167.714645 
L 329.186206 167.522121 
L 330.107625 167.423136 
L 330.259338 167.251757 
L 330.614371 167.269076 
L 338.166761 165.152624 
L 353.404877 160.595054 
L 353.405551 160.540506 
L 354.187726 160.248899 
L 354.584851 160.323532 
L 354.806945 160.120675 
L 356.627416 159.538777 
L 358.802437 158.770632 
L 362.663409 157.535244 
L 363.722611 157.190414 
L 364.727486 156.928895 
L 368.029034 155.660644 
L 368.691941 155.576348 
L 369.89511 155.090796 
L 370.26124 154.864566 
L 371.595932 154.54447 
L 372.997784 154.024423 
L 373.884029 153.689666 
L 374.333961 153.501605 
L 375.406385 153.217731 
L 375.835669 153.061605 
L 376.441502 152.783592 
L 376.665384 152.758018 
L 378.861649 151.904543 
L 379.158167 151.866695 
L 380.277059 151.431749 
L 382.22926 150.725115 
L 383.124314 150.329464 
L 387.892965 148.634633 
L 388.068228 148.455582 
L 388.082598 148.557617 
L 388.666315 148.269233 
L 389.002652 148.188631 
L 389.004639 148.07767 
L 389.046859 148.197323 
L 389.059329 148.116092 
L 389.159219 148.159806 
L 389.174573 148.032589 
L 389.626232 147.947641 
L 389.679964 147.833299 
L 394.406438 146.033458 
L 395.005363 145.797682 
L 395.041417 145.897301 
L 395.127637 145.726551 
L 395.156592 145.821698 
L 397.660938 144.756929 
L 397.70644 144.818593 
L 398.232539 144.54385 
L 398.355608 144.587816 
L 398.598307 144.467706 
L 398.698629 144.472355 
L 398.822077 144.241387 
L 399.292035 144.123566 
L 400.831783 143.55639 
L 400.851326 143.617933 
L 400.90384 143.593101 
L 400.949411 143.460917 
L 400.961864 143.494885 
L 401.194166 143.362281 
L 409.952281 139.855494 
L 411.610952 139.157422 
L 411.63268 139.280494 
L 411.648967 139.187799 
L 414.765882 137.913126 
L 414.797316 137.956585 
L 414.865918 137.811236 
L 414.953442 137.899425 
L 414.960074 137.831969 
L 415.206392 137.73456 
L 417.37206 136.818404 
L 417.617894 136.7234 
L 417.664044 136.655764 
L 422.84602 134.443675 
L 422.881099 134.585195 
L 422.91812 134.489861 
L 424.232941 133.937809 
L 424.301725 133.908933 
L 424.349653 134.021824 
L 424.372763 133.828004 
L 425.423347 133.430031 
L 425.471975 133.325293 
L 425.5705 133.373265 
L 425.684743 133.318683 
L 438.968684 127.566186 
L 439.092707 127.478069 
L 439.150627 127.427947 
L 439.204359 127.471974 
L 439.522798 127.291053 
L 439.719992 127.24842 
L 439.872534 127.153651 
L 439.887724 127.166892 
L 439.924435 127.1575 
L 439.924469 127.158631 
L 439.942535 126.9995 
L 440.026406 127.09395 
L 440.193318 127.037355 
L 440.273656 127.09464 
L 440.375744 126.935646 
L 441.831988 126.314529 
L 441.83486 126.320755 
L 441.837826 126.274953 
L 441.91978 126.264584 
L 441.921537 126.217381 
L 441.930756 126.273529 
L 442.017433 126.234279 
L 442.161011 126.166886 
L 442.172168 126.293087 
L 442.219354 126.087231 
L 442.262084 126.127231 
L 442.534853 126.007484 
L 444.425343 125.165824 
L 444.711679 125.015355 
L 444.715669 125.0461 
L 445.007195 124.87446 
L 445.128838 124.853143 
L 445.877291 124.517274 
L 445.996516 124.448559 
L 446.244242 124.363156 
L 446.337292 124.286644 
L 446.247247 124.363396 
L 446.352776 124.302933 
L 446.384288 124.302523 
L 446.417272 124.260599 
L 446.458625 124.269844 
L 446.563938 124.218668 
L 446.631245 124.03112 
L 446.681 124.160842 
L 446.886682 124.069425 
L 446.984949 124.003191 
L 446.946934 124.076665 
L 447.000692 124.019744 
L 447.117335 123.964609 
L 447.117473 123.974378 
L 447.462696 123.821466 
L 447.463119 123.823243 
L 451.077515 122.169716 
L 451.078611 122.262503 
L 451.185017 122.129279 
L 451.188398 122.158185 
L 451.293275 122.074678 
L 451.305628 122.100175 
L 451.405216 122.065125 
L 451.324243 122.055563 
L 451.406909 122.06318 
L 452.394214 121.587137 
L 452.398053 121.619095 
L 452.400401 121.532393 
L 452.5053 121.571822 
L 452.885369 121.395222 
L 452.964826 121.33141 
L 452.994887 121.352486 
L 453.29508 121.187521 
L 453.304726 121.257276 
L 453.378242 121.157881 
L 453.398074 121.170003 
L 468.301744 114.408437 
L 468.319426 114.465818 
L 468.397161 114.367579 
L 468.407606 114.377293 
L 468.919184 114.138291 
L 469.196206 114.021941 
L 469.302128 113.953528 
L 469.313804 113.964004 
L 469.46784 113.883628 
L 469.473842 113.894167 
L 469.555994 113.851337 
L 469.559504 113.854143 
L 469.782872 113.736761 
L 469.783296 113.747173 
L 469.891415 113.683135 
L 470.038474 113.633551 
L 470.195653 113.546435 
L 470.204185 113.55973 
L 470.271346 113.512879 
L 470.298782 113.507181 
L 470.494874 113.417701 
L 470.846272 113.268573 
L 470.970653 113.191622 
L 470.973304 113.210078 
L 471.075655 113.148806 
L 471.186288 113.115966 
L 472.870149 112.322399 
L 472.873949 112.336208 
L 472.97836 112.287488 
L 474.173191 111.732168 
L 474.175367 111.745377 
L 474.248856 111.707715 
L 529.212799 86.332678 
L 536.383195 83.053659 
L 562.533367 71.201061 
L 564.344778 70.421333 
L 566.699052 69.3775 
L 585.388269 61.274271 
L 598.240177 55.870836 
L 613.514537 49.713918 
L 629.392977 43.690802 
L 653.210163 35.469592 
L 654.439948 35.101296 
L 661.691381 32.792791 
L 661.705302 32.604311 
L 665.988002 31.489569 
L 673.756407 29.048908 
L 674.078417 29.068989 
L 678.291944 27.952741 
L 681.769877 26.90974 
L 684.988841 26.134232 
L 692.836401 24.038065 
L 709.554894 20.223546 
L 709.554894 20.223546 
" clip-path="url(#pb9a8e6b326)" style="fill: none; stroke-dasharray: 11.1,4.8; stroke-dashoffset: 0; stroke: #008000; stroke-width: 3"/>
   </g>
   <g id="line2d_17">
    <path d="M 132.096541 191.27716 
L 158.981332 190.273785 
L 164.526874 189.931912 
L 168.302291 189.817201 
L 184.903925 188.83026 
L 185.45468 188.725455 
L 189.126468 188.490989 
L 209.989472 187.016032 
L 211.29627 186.800556 
L 221.879778 185.925685 
L 224.49258 185.580379 
L 228.30002 185.307589 
L 230.576752 184.952174 
L 231.050355 184.996616 
L 232.746436 184.831821 
L 233.730119 184.611588 
L 234.92859 184.621036 
L 253.68046 182.284975 
L 253.787992 182.157701 
L 274.635382 179.130218 
L 298.303731 174.664857 
L 307.03245 172.719602 
L 311.829945 171.724406 
L 311.945819 171.607691 
L 318.72087 170.07282 
L 320.528888 169.560886 
L 322.051494 169.255737 
L 325.072836 168.359219 
L 325.678376 168.328161 
L 326.772458 167.966207 
L 334.317871 165.953468 
L 349.522981 161.566233 
L 349.5421 161.504732 
L 350.7671 161.220671 
L 351.393021 160.984964 
L 363.121735 157.259744 
L 364.789689 156.760929 
L 373.267401 153.805845 
L 378.889128 151.859951 
L 379.196026 151.903853 
L 379.268048 151.683274 
L 379.876688 151.463628 
L 381.506127 151.069726 
L 381.786073 150.782148 
L 381.78704 150.895455 
L 382.209709 150.808622 
L 382.228612 150.673501 
L 385.076739 149.709106 
L 385.121075 149.548681 
L 385.149573 149.574805 
L 385.294049 149.678902 
L 385.758498 149.363157 
L 385.809976 149.490976 
L 386.135726 149.369845 
L 386.273224 149.134404 
L 386.653802 149.054669 
L 386.669537 149.174122 
L 387.013024 148.928865 
L 387.081808 149.012713 
L 387.679101 148.715412 
L 388.602644 148.260885 
L 388.903082 148.33182 
L 389.34709 148.14972 
L 389.449251 147.978671 
L 389.711743 148.029022 
L 389.959884 147.81528 
L 390.076803 147.880768 
L 390.28939 147.65693 
L 390.294977 147.812626 
L 390.356826 147.682247 
L 390.960976 147.541851 
L 391.06951 147.363672 
L 391.128553 147.487952 
L 391.136852 147.396717 
L 391.270274 147.302521 
L 391.516687 147.192824 
L 391.627881 147.274988 
L 391.6465 147.245544 
L 392.90955 146.761027 
L 393.0264 146.762174 
L 395.792996 145.607471 
L 395.818757 145.682827 
L 395.904078 145.66879 
L 396.188143 145.493834 
L 396.339925 145.43695 
L 396.641236 145.269329 
L 396.962806 145.156116 
L 396.96993 145.085988 
L 397.058524 145.196519 
L 397.072229 145.162229 
L 397.075787 145.181526 
L 397.179037 145.132029 
L 397.286569 145.016927 
L 397.342909 145.071275 
L 398.107044 144.765487 
L 398.1648 144.652166 
L 398.247937 144.713905 
L 399.021805 144.31518 
L 399.166359 144.345763 
L 399.460795 144.108144 
L 400.305425 143.876458 
L 400.621399 143.768799 
L 400.714311 143.765501 
L 402.441809 143.056638 
L 402.606174 143.015372 
L 402.657945 142.882283 
L 402.677255 142.954365 
L 402.953452 142.856145 
L 403.754747 142.446774 
L 403.75764 142.56818 
L 403.86519 142.473742 
L 404.049624 142.419525 
L 404.108296 142.318008 
L 404.337454 142.319752 
L 404.378345 142.248994 
L 404.491672 142.245334 
L 409.228725 140.335008 
L 409.357121 140.334765 
L 409.400974 140.167928 
L 409.471459 140.258192 
L 409.551158 140.246329 
L 410.118139 140.000792 
L 410.142639 139.9328 
L 410.145498 140.017874 
L 410.177623 140.00663 
L 410.736166 139.703421 
L 410.73722 139.766727 
L 410.782264 139.60148 
L 410.99492 139.65515 
L 411.665444 139.356894 
L 411.703743 139.255363 
L 411.964086 139.262274 
L 412.237451 139.092937 
L 412.48066 139.061785 
L 413.353235 138.66722 
L 413.459351 138.638317 
L 413.652395 138.508334 
L 414.19903 138.33909 
L 414.340078 138.295996 
L 414.347168 138.161704 
L 414.390286 138.270338 
L 414.512206 138.123501 
L 414.819907 138.104447 
L 414.915919 137.990511 
L 414.943424 138.065815 
L 415.891061 137.630767 
L 415.894153 137.667767 
L 415.989232 137.604708 
L 419.107969 136.314511 
L 419.108816 136.325782 
L 419.205174 136.223034 
L 419.821802 136.021398 
L 419.839928 136.024178 
L 419.929075 135.91453 
L 419.940967 135.966351 
L 420.022281 135.873016 
L 420.133579 135.891861 
L 420.414638 135.741522 
L 421.100447 135.499154 
L 421.168929 135.39583 
L 421.359123 135.389578 
L 421.53613 135.188411 
L 421.547158 135.291463 
L 421.564291 135.229069 
L 421.605968 135.262347 
L 421.773432 135.186977 
L 422.576058 134.805367 
L 422.924372 134.651179 
L 422.926505 134.678213 
L 423.080783 134.649671 
L 423.247834 134.578041 
L 423.815031 134.310987 
L 423.818442 134.317213 
L 424.118094 134.197431 
L 424.184555 134.210477 
L 424.230463 134.131074 
L 424.277977 134.034304 
L 424.336156 134.092782 
L 424.485995 134.05707 
L 424.715369 133.898123 
L 424.733289 133.937811 
L 424.905149 133.864111 
L 425.183333 133.756979 
L 425.186778 133.772473 
L 425.886008 133.440234 
L 427.167857 132.856531 
L 427.27912 132.798878 
L 427.207832 132.883271 
L 427.292584 132.841949 
L 427.852423 132.599714 
L 428.10261 132.49839 
L 428.159744 132.482709 
L 428.177542 132.3833 
L 428.274522 132.41329 
L 428.861296 132.173587 
L 429.090774 132.043233 
L 429.738206 131.786791 
L 429.82775 131.782473 
L 429.850497 131.736823 
L 430.117566 131.629257 
L 430.585046 131.450194 
L 430.713356 131.369268 
L 430.839628 131.289056 
L 431.751746 130.950125 
L 431.925256 130.853947 
L 432.206817 130.726709 
L 432.20686 130.760654 
L 432.243976 130.677753 
L 432.307475 130.718595 
L 432.434948 130.613267 
L 432.551807 130.588829 
L 432.620841 130.509381 
L 432.669961 130.532362 
L 432.797201 130.479409 
L 433.928378 129.964741 
L 433.942458 129.998196 
L 434.094344 129.872338 
L 434.095752 129.928565 
L 434.097367 129.82303 
L 434.181665 129.89389 
L 434.843518 129.586952 
L 434.859309 129.60614 
L 434.951979 129.507994 
L 435.064684 129.507306 
L 435.273186 129.387219 
L 435.33748 129.415162 
L 435.379225 129.362137 
L 435.459779 129.333017 
L 435.472578 129.238779 
L 435.573849 129.284541 
L 436.236514 128.962802 
L 436.239356 129.012964 
L 436.344341 128.937617 
L 436.361068 128.966099 
L 436.439973 128.918931 
L 436.645478 128.791877 
L 436.689279 128.748974 
L 436.757571 128.770255 
L 437.068484 128.658723 
L 437.198815 128.519966 
L 438.115898 128.142537 
L 438.133403 128.083468 
L 438.155623 128.185228 
L 438.213655 128.141578 
L 439.028422 127.794951 
L 439.040106 127.814899 
L 439.046307 127.723899 
L 439.117168 127.755303 
L 439.218828 127.640446 
L 439.242382 127.705188 
L 439.463673 127.553494 
L 439.583171 127.524535 
L 439.697556 127.47473 
L 439.611103 127.556922 
L 439.698955 127.496718 
L 440.07164 127.276785 
L 440.073907 127.352227 
L 440.171901 127.234742 
L 440.195874 127.263548 
L 440.364012 127.15574 
L 440.452183 127.182643 
L 440.460197 127.110125 
L 440.479278 127.167473 
L 440.691541 127.041295 
L 440.819808 127.001237 
L 440.929283 126.911737 
L 440.931563 126.943905 
L 440.935557 126.963491 
L 440.966702 126.878408 
L 441.030054 126.898591 
L 441.145661 126.808599 
L 441.171413 126.839133 
L 441.277106 126.818985 
L 441.359871 126.704545 
L 441.395597 126.754709 
L 441.620766 126.632906 
L 441.624406 126.666984 
L 441.69322 126.607388 
L 441.700151 126.633151 
L 441.823616 126.516393 
L 441.843724 126.53916 
L 441.872952 126.571142 
L 441.881661 126.484857 
L 441.946663 126.500848 
L 442.028314 126.409387 
L 441.952505 126.5082 
L 442.063353 126.445971 
L 442.063617 126.453002 
L 442.166771 126.400247 
L 442.265854 126.304855 
L 442.184587 126.419215 
L 442.326705 126.344932 
L 442.547962 126.218944 
L 442.557237 126.256836 
L 442.625986 126.15603 
L 442.644778 126.166525 
L 442.815667 126.131162 
L 442.892188 126.052498 
L 442.823758 126.137754 
L 442.924257 126.065324 
L 443.131179 125.936538 
L 443.142932 125.967964 
L 443.147608 125.993669 
L 443.209557 125.937867 
L 443.243435 125.94292 
L 443.647761 125.710457 
L 443.654791 125.727912 
L 443.660823 125.781727 
L 443.760095 125.684218 
L 443.986909 125.574934 
L 443.988753 125.595005 
L 443.992087 125.636204 
L 444.030628 125.543465 
L 444.08062 125.573451 
L 444.240624 125.446509 
L 444.245814 125.468909 
L 444.281281 125.504701 
L 444.345488 125.443193 
L 444.346287 125.46291 
L 444.638871 125.321427 
L 444.704451 125.246251 
L 444.732232 125.282933 
L 444.968856 125.119983 
L 444.969301 125.163982 
L 444.974228 125.188975 
L 445.064104 125.080721 
L 445.069838 125.118504 
L 445.128937 125.047038 
L 445.173519 125.101931 
L 445.873742 124.740191 
L 445.874726 124.747 
L 445.877412 124.805612 
L 445.923363 124.697482 
L 445.967474 124.72448 
L 446.063314 124.72088 
L 446.067606 124.702292 
L 446.16266 124.593315 
L 446.179586 124.652233 
L 446.296518 124.536042 
L 446.318345 124.580517 
L 446.378109 124.581701 
L 446.33952 124.547719 
L 446.414436 124.526274 
L 446.525021 124.445236 
L 446.425114 124.53821 
L 446.526813 124.486018 
L 446.573036 124.500015 
L 446.590614 124.40868 
L 446.627065 124.424797 
L 446.639686 124.467616 
L 446.959395 124.290869 
L 446.95997 124.344551 
L 447.043128 124.177047 
L 447.068893 124.260109 
L 447.190963 124.179563 
L 447.078958 124.272099 
L 447.191093 124.184462 
L 447.191382 124.222067 
L 447.250162 124.112641 
L 447.298237 124.155665 
L 447.4402 124.054111 
L 447.449181 124.065895 
L 447.453663 124.086314 
L 447.538397 123.984288 
L 447.555596 124.044227 
L 447.667882 123.925623 
L 447.691566 123.986261 
L 447.738549 123.897549 
L 447.778929 123.939272 
L 447.861254 123.847156 
L 447.79143 123.955977 
L 447.891104 123.897293 
L 447.971926 123.854961 
L 448.069454 123.750811 
L 448.005666 123.859127 
L 448.082304 123.756132 
L 448.200204 123.749132 
L 448.305115 123.669264 
L 448.220308 123.764237 
L 448.320625 123.681261 
L 448.334131 123.690476 
L 448.46783 123.605742 
L 448.635964 123.570683 
L 448.650904 123.576598 
L 448.74702 123.455352 
L 448.791732 123.51219 
L 448.823749 123.420953 
L 448.837078 123.474976 
L 448.980665 123.331821 
L 448.997384 123.369341 
L 449.024068 123.408548 
L 449.078508 123.301927 
L 449.100059 123.329748 
L 449.108336 123.356798 
L 449.544857 123.13636 
L 449.545029 123.161314 
L 449.638093 123.078406 
L 449.652571 123.110725 
L 449.838779 123.005568 
L 449.840195 123.0451 
L 449.892248 122.954795 
L 449.946851 122.955653 
L 449.966437 122.964089 
L 450.053987 122.906082 
L 450.19092 122.894789 
L 450.295572 122.790429 
L 450.374037 122.80957 
L 450.399996 122.753288 
L 450.409029 122.778153 
L 450.506838 122.678555 
L 450.585276 122.713691 
L 450.61038 122.651638 
L 450.683659 122.648781 
L 450.616624 122.627955 
L 450.703491 122.612027 
L 450.757896 122.647762 
L 450.81472 122.532201 
L 450.843447 122.582997 
L 450.916846 122.492385 
L 450.925266 122.531537 
L 451.015881 122.45065 
L 450.931501 122.54157 
L 451.036175 122.485278 
L 451.057765 122.50229 
L 451.175859 122.382457 
L 451.176593 122.453747 
L 451.276949 122.328161 
L 451.285006 122.368378 
L 451.388968 122.285512 
L 451.296816 122.394596 
L 451.412461 122.292496 
L 451.822557 122.091713 
L 451.824923 122.130466 
L 451.885244 122.057207 
L 451.828584 122.133225 
L 451.931 122.076497 
L 452.075118 121.969987 
L 452.077078 122.052555 
L 452.146113 121.915775 
L 452.185958 121.984626 
L 452.542434 121.772581 
L 452.551035 121.803856 
L 452.560919 121.832739 
L 452.583929 121.744904 
L 452.653615 121.766493 
L 452.793761 121.662623 
L 452.672614 121.781372 
L 452.811904 121.678714 
L 452.829232 121.716152 
L 452.897519 121.606707 
L 452.908992 121.645506 
L 452.99449 121.56351 
L 452.924575 121.672831 
L 453.03032 121.607087 
L 453.03399 121.62225 
L 453.071901 121.526014 
L 453.130521 121.577362 
L 453.240627 121.462661 
L 453.286107 121.511091 
L 453.3272 121.418215 
L 453.339644 121.424422 
L 453.45102 121.372924 
L 453.343945 121.451675 
L 453.454172 121.394583 
L 454.154627 121.066945 
L 454.208091 121.094671 
L 454.25982 120.998339 
L 454.481215 120.884014 
L 454.287644 121.060773 
L 454.501297 120.926959 
L 454.503348 120.96425 
L 454.606131 120.843121 
L 454.608687 120.887001 
L 454.66963 120.813925 
L 454.613765 120.903183 
L 454.722571 120.824078 
L 454.842017 120.736103 
L 454.750521 120.855376 
L 454.843459 120.770288 
L 454.848407 120.808866 
L 454.938487 120.697494 
L 454.949523 120.739558 
L 455.180098 120.589882 
L 455.192741 120.603613 
L 455.205846 120.648468 
L 455.232664 120.544631 
L 455.298534 120.570293 
L 455.370271 120.574257 
L 455.308046 120.527798 
L 455.387547 120.516865 
L 455.527722 120.452547 
L 455.529678 120.472801 
L 455.751104 120.336842 
L 455.7522 120.355759 
L 455.758112 120.406284 
L 455.847911 120.300609 
L 455.858066 120.319018 
L 455.95483 120.223531 
L 455.865851 120.352266 
L 455.964614 120.281317 
L 456.084923 120.232449 
L 456.189153 120.155375 
L 456.197435 120.168654 
L 456.284418 120.113188 
L 456.445333 120.021212 
L 456.322299 120.153631 
L 456.446239 120.065959 
L 456.45304 120.101923 
L 456.531354 119.959417 
L 456.542744 119.978591 
L 456.672989 119.990736 
L 456.741514 119.890268 
L 456.691482 119.991424 
L 456.783483 119.902841 
L 456.882173 119.829061 
L 456.800409 119.94458 
L 456.894919 119.855258 
L 456.908685 119.893199 
L 457.011398 119.767719 
L 457.12131 119.797607 
L 457.079163 119.742677 
L 457.122273 119.751546 
L 457.191722 119.690125 
L 457.174852 119.770652 
L 457.233061 119.69261 
L 457.471512 119.583641 
L 457.63212 119.467968 
L 457.646062 119.491488 
L 457.666719 119.545576 
L 457.720438 119.42897 
L 457.754722 119.48647 
L 457.76217 119.501141 
L 457.851762 119.388639 
L 458.014572 119.347027 
L 458.036671 119.37792 
L 458.250587 119.224254 
L 458.257837 119.2772 
L 458.322739 119.180467 
L 458.34204 119.206461 
L 458.762477 119.002284 
L 458.84617 118.948398 
L 458.772857 119.053213 
L 458.854452 118.975861 
L 459.101374 118.869037 
L 459.223242 118.778089 
L 459.119138 118.897521 
L 459.223933 118.785979 
L 459.228838 118.839914 
L 459.317337 118.714758 
L 459.328935 118.753231 
L 459.433203 118.680827 
L 459.349009 118.764614 
L 459.445255 118.705284 
L 459.445574 118.718694 
L 459.54685 118.63077 
L 459.547653 118.663304 
L 459.798531 118.516696 
L 459.565715 118.698692 
L 459.80347 118.535763 
L 459.804373 118.56936 
L 459.905683 118.470114 
L 459.911763 118.482183 
L 459.941366 118.521185 
L 459.972403 118.439702 
L 460.017188 118.454359 
L 460.069685 118.458227 
L 460.029563 118.412323 
L 460.108676 118.406256 
L 460.225112 118.324488 
L 461.271071 117.859429 
L 460.249577 118.393478 
L 461.272794 117.877728 
L 461.277522 117.917707 
L 461.362122 117.814527 
L 461.379799 117.860098 
L 461.458851 117.769759 
L 461.485363 117.770806 
L 461.508429 117.802402 
L 461.651092 117.683027 
L 461.6825 117.739181 
L 461.74321 117.639394 
L 461.74612 117.642518 
L 463.226255 116.979128 
L 463.2355 117.037072 
L 463.273312 116.936091 
L 463.316667 116.958509 
L 463.468575 116.864517 
L 463.506179 116.904193 
L 463.537255 116.831715 
L 463.564976 116.83438 
L 463.726706 116.756779 
L 463.727898 116.810145 
L 463.784652 116.721598 
L 463.817494 116.761428 
L 464.001125 116.625255 
L 464.001341 116.672942 
L 464.093415 116.580361 
L 464.095078 116.627734 
L 464.330847 116.472228 
L 464.33637 116.523897 
L 464.430305 116.431147 
L 464.434062 116.434441 
L 465.63347 115.92084 
L 465.724064 115.843302 
L 465.738412 115.847606 
L 465.950925 115.740432 
L 465.980425 115.785708 
L 465.991591 115.722889 
L 466.01347 115.765181 
L 466.189 115.642893 
L 466.33912 115.598141 
L 466.596448 115.447254 
L 466.612917 115.469657 
L 467.442909 115.075394 
L 467.451488 115.114008 
L 467.543774 115.027481 
L 467.543947 115.029649 
L 467.670249 114.993294 
L 468.009631 114.809917 
L 468.04268 114.840409 
L 468.087629 114.772802 
L 468.114033 114.792188 
L 468.211483 114.715682 
L 468.231626 114.72782 
L 468.281951 114.67133 
L 468.315345 114.684443 
L 468.651691 114.526495 
L 469.442097 114.171175 
L 469.457067 114.193713 
L 469.545601 114.126738 
L 469.821008 113.989033 
L 469.856125 114.002506 
L 469.879291 113.950534 
L 469.920475 113.944392 
L 470.019764 113.933823 
L 470.029337 113.912821 
L 470.118415 113.852097 
L 470.141032 113.854108 
L 475.411024 111.442428 
L 475.411378 111.455852 
L 475.423529 111.471106 
L 475.48815 111.417419 
L 551.789725 76.419439 
L 552.151382 76.286602 
L 555.599211 74.70623 
L 563.027013 71.444553 
L 569.983345 68.336824 
L 577.781319 64.998216 
L 581.69275 63.263725 
L 609.780087 51.713376 
L 613.058569 50.454647 
L 642.815165 39.550349 
L 662.389393 33.266209 
L 670.168281 31.096771 
L 670.376058 30.947282 
L 671.771839 30.524228 
L 672.387586 30.493072 
L 672.545155 30.307949 
L 677.960556 28.798419 
L 677.993803 28.967504 
L 681.363513 27.864248 
L 686.813958 26.444268 
L 689.165891 26.024391 
L 695.290616 24.373485 
L 709.202866 21.235428 
L 709.202866 21.235428 
" clip-path="url(#pb9a8e6b326)" style="fill: none; stroke-dasharray: 3,4.95; stroke-dashoffset: 0; stroke: #a52a2a; stroke-width: 3"/>
   </g>
   <g id="patch_3">
    <path d="M 134.3 202.461151 
L 134.3 10.8 
" style="fill: none; stroke: #000000; stroke-width: 0.8; stroke-linejoin: miter; stroke-linecap: square"/>
   </g>
   <g id="patch_4">
    <path d="M 709.2 202.461151 
L 709.2 10.8 
" style="fill: none; stroke: #000000; stroke-width: 0.8; stroke-linejoin: miter; stroke-linecap: square"/>
   </g>
   <g id="patch_5">
    <path d="M 134.3 202.461151 
L 709.2 202.461151 
" style="fill: none; stroke: #000000; stroke-width: 0.8; stroke-linejoin: miter; stroke-linecap: square"/>
   </g>
   <g id="patch_6">
    <path d="M 134.3 10.8 
L 709.2 10.8 
" style="fill: none; stroke: #000000; stroke-width: 0.8; stroke-linejoin: miter; stroke-linecap: square"/>
   </g>
   <g id="legend_1">
    <g id="patch_7">
     <path d="M 142.7 120.200156 
L 333.905 120.200156 
Q 338.105 120.200156 338.105 116.000156 
L 338.105 19.2 
Q 338.105 15 333.905 15 
L 142.7 15 
Q 138.5 15 138.5 19.2 
L 138.5 116.000156 
Q 138.5 120.200156 142.7 120.200156 
z
" style="fill: #ffffff; opacity: 0.8; stroke: #cccccc; stroke-linejoin: miter"/>
    </g>
    <g id="line2d_18">
     <path d="M 146.9 32.006719 
L 162.65 32.006719 
L 178.4 32.006719 
" style="fill: none; stroke-dasharray: 19.2,4.8,3,4.8; stroke-dashoffset: 0; stroke: #0000ff; stroke-width: 3"/>
    </g>
    <g id="text_10">
     <!-- FTHD $F_{fy}$ 60% -->
     <g transform="translate(186.275 39.356719) scale(0.21 -0.21)">
      <defs>
       <path id="DejaVuSans-54" d="M -19 4666 
L 3928 4666 
L 3928 4134 
L 2272 4134 
L 2272 0 
L 1638 0 
L 1638 4134 
L -19 4134 
L -19 4666 
z
" transform="scale(0.015625)"/>
       <path id="DejaVuSans-48" d="M 628 4666 
L 1259 4666 
L 1259 2753 
L 3553 2753 
L 3553 4666 
L 4184 4666 
L 4184 0 
L 3553 0 
L 3553 2222 
L 1259 2222 
L 1259 0 
L 628 0 
L 628 4666 
z
" transform="scale(0.015625)"/>
       <path id="DejaVuSans-44" d="M 1259 4147 
L 1259 519 
L 2022 519 
Q 2988 519 3436 956 
Q 3884 1394 3884 2338 
Q 3884 3275 3436 3711 
Q 2988 4147 2022 4147 
L 1259 4147 
z
M 628 4666 
L 1925 4666 
Q 3281 4666 3915 4102 
Q 4550 3538 4550 2338 
Q 4550 1131 3912 565 
Q 3275 0 1925 0 
L 628 0 
L 628 4666 
z
" transform="scale(0.015625)"/>
       <path id="DejaVuSans-Oblique-46" d="M 1081 4666 
L 3756 4666 
L 3653 4134 
L 1606 4134 
L 1338 2759 
L 3188 2759 
L 3084 2228 
L 1234 2228 
L 800 0 
L 172 0 
L 1081 4666 
z
" transform="scale(0.015625)"/>
       <path id="DejaVuSans-Oblique-66" d="M 3059 4863 
L 2969 4384 
L 2419 4384 
Q 2106 4384 1964 4261 
Q 1822 4138 1753 3809 
L 1691 3500 
L 2638 3500 
L 2553 3053 
L 1606 3053 
L 1013 0 
L 434 0 
L 1031 3053 
L 481 3053 
L 563 3500 
L 1113 3500 
L 1159 3744 
Q 1278 4363 1576 4613 
Q 1875 4863 2516 4863 
L 3059 4863 
z
" transform="scale(0.015625)"/>
       <path id="DejaVuSans-Oblique-79" d="M 1588 -325 
Q 1188 -997 936 -1164 
Q 684 -1331 294 -1331 
L -159 -1331 
L -63 -850 
L 269 -850 
Q 509 -850 678 -719 
Q 847 -588 1056 -206 
L 1234 128 
L 459 3500 
L 1069 3500 
L 1650 819 
L 3256 3500 
L 3859 3500 
L 1588 -325 
z
" transform="scale(0.015625)"/>
       <path id="DejaVuSans-36" d="M 2113 2584 
Q 1688 2584 1439 2293 
Q 1191 2003 1191 1497 
Q 1191 994 1439 701 
Q 1688 409 2113 409 
Q 2538 409 2786 701 
Q 3034 994 3034 1497 
Q 3034 2003 2786 2293 
Q 2538 2584 2113 2584 
z
M 3366 4563 
L 3366 3988 
Q 3128 4100 2886 4159 
Q 2644 4219 2406 4219 
Q 1781 4219 1451 3797 
Q 1122 3375 1075 2522 
Q 1259 2794 1537 2939 
Q 1816 3084 2150 3084 
Q 2853 3084 3261 2657 
Q 3669 2231 3669 1497 
Q 3669 778 3244 343 
Q 2819 -91 2113 -91 
Q 1303 -91 875 529 
Q 447 1150 447 2328 
Q 447 3434 972 4092 
Q 1497 4750 2381 4750 
Q 2619 4750 2861 4703 
Q 3103 4656 3366 4563 
z
" transform="scale(0.015625)"/>
       <path id="DejaVuSans-25" d="M 4653 2053 
Q 4381 2053 4226 1822 
Q 4072 1591 4072 1178 
Q 4072 772 4226 539 
Q 4381 306 4653 306 
Q 4919 306 5073 539 
Q 5228 772 5228 1178 
Q 5228 1588 5073 1820 
Q 4919 2053 4653 2053 
z
M 4653 2450 
Q 5147 2450 5437 2106 
Q 5728 1763 5728 1178 
Q 5728 594 5436 251 
Q 5144 -91 4653 -91 
Q 4153 -91 3862 251 
Q 3572 594 3572 1178 
Q 3572 1766 3864 2108 
Q 4156 2450 4653 2450 
z
M 1428 4353 
Q 1159 4353 1004 4120 
Q 850 3888 850 3481 
Q 850 3069 1003 2837 
Q 1156 2606 1428 2606 
Q 1700 2606 1854 2837 
Q 2009 3069 2009 3481 
Q 2009 3884 1853 4118 
Q 1697 4353 1428 4353 
z
M 4250 4750 
L 4750 4750 
L 1831 -91 
L 1331 -91 
L 4250 4750 
z
M 1428 4750 
Q 1922 4750 2215 4408 
Q 2509 4066 2509 3481 
Q 2509 2891 2217 2550 
Q 1925 2209 1428 2209 
Q 931 2209 642 2551 
Q 353 2894 353 3481 
Q 353 4063 643 4406 
Q 934 4750 1428 4750 
z
" transform="scale(0.015625)"/>
      </defs>
      <use xlink:href="#DejaVuSans-46" transform="translate(0 0.78125)"/>
      <use xlink:href="#DejaVuSans-54" transform="translate(57.519531 0.78125)"/>
      <use xlink:href="#DejaVuSans-48" transform="translate(118.603516 0.78125)"/>
      <use xlink:href="#DejaVuSans-44" transform="translate(193.798828 0.78125)"/>
      <use xlink:href="#DejaVuSans-20" transform="translate(270.800781 0.78125)"/>
      <use xlink:href="#DejaVuSans-Oblique-46" transform="translate(302.587891 0.78125)"/>
      <use xlink:href="#DejaVuSans-Oblique-66" transform="translate(360.107422 -15.625) scale(0.7)"/>
      <use xlink:href="#DejaVuSans-Oblique-79" transform="translate(384.750977 -15.625) scale(0.7)"/>
      <use xlink:href="#DejaVuSans-20" transform="translate(428.911133 0.78125)"/>
      <use xlink:href="#DejaVuSans-36" transform="translate(460.698242 0.78125)"/>
      <use xlink:href="#DejaVuSans-30" transform="translate(524.321289 0.78125)"/>
      <use xlink:href="#DejaVuSans-25" transform="translate(587.944336 0.78125)"/>
     </g>
    </g>
    <g id="line2d_19">
     <path d="M 146.9 64.973437 
L 162.65 64.973437 
L 178.4 64.973437 
" style="fill: none; stroke-dasharray: 11.1,4.8; stroke-dashoffset: 0; stroke: #008000; stroke-width: 3"/>
    </g>
    <g id="text_11">
     <!-- FTHD $F_{fy}$ 5% -->
     <g transform="translate(186.275 72.323437) scale(0.21 -0.21)">
      <use xlink:href="#DejaVuSans-46" transform="translate(0 0.78125)"/>
      <use xlink:href="#DejaVuSans-54" transform="translate(57.519531 0.78125)"/>
      <use xlink:href="#DejaVuSans-48" transform="translate(118.603516 0.78125)"/>
      <use xlink:href="#DejaVuSans-44" transform="translate(193.798828 0.78125)"/>
      <use xlink:href="#DejaVuSans-20" transform="translate(270.800781 0.78125)"/>
      <use xlink:href="#DejaVuSans-Oblique-46" transform="translate(302.587891 0.78125)"/>
      <use xlink:href="#DejaVuSans-Oblique-66" transform="translate(360.107422 -15.625) scale(0.7)"/>
      <use xlink:href="#DejaVuSans-Oblique-79" transform="translate(384.750977 -15.625) scale(0.7)"/>
      <use xlink:href="#DejaVuSans-20" transform="translate(428.911133 0.78125)"/>
      <use xlink:href="#DejaVuSans-35" transform="translate(460.698242 0.78125)"/>
      <use xlink:href="#DejaVuSans-25" transform="translate(524.321289 0.78125)"/>
     </g>
    </g>
    <g id="line2d_20">
     <path d="M 146.9 97.940156 
L 162.65 97.940156 
L 178.4 97.940156 
" style="fill: none; stroke-dasharray: 3,4.95; stroke-dashoffset: 0; stroke: #a52a2a; stroke-width: 3"/>
    </g>
    <g id="text_12">
     <!-- FTHD $F_{fy}$ 90% -->
     <g transform="translate(186.275 105.290156) scale(0.21 -0.21)">
      <defs>
       <path id="DejaVuSans-39" d="M 703 97 
L 703 672 
Q 941 559 1184 500 
Q 1428 441 1663 441 
Q 2288 441 2617 861 
Q 2947 1281 2994 2138 
Q 2813 1869 2534 1725 
Q 2256 1581 1919 1581 
Q 1219 1581 811 2004 
Q 403 2428 403 3163 
Q 403 3881 828 4315 
Q 1253 4750 1959 4750 
Q 2769 4750 3195 4129 
Q 3622 3509 3622 2328 
Q 3622 1225 3098 567 
Q 2575 -91 1691 -91 
Q 1453 -91 1209 -44 
Q 966 3 703 97 
z
M 1959 2075 
Q 2384 2075 2632 2365 
Q 2881 2656 2881 3163 
Q 2881 3666 2632 3958 
Q 2384 4250 1959 4250 
Q 1534 4250 1286 3958 
Q 1038 3666 1038 3163 
Q 1038 2656 1286 2365 
Q 1534 2075 1959 2075 
z
" transform="scale(0.015625)"/>
      </defs>
      <use xlink:href="#DejaVuSans-46" transform="translate(0 0.78125)"/>
      <use xlink:href="#DejaVuSans-54" transform="translate(57.519531 0.78125)"/>
      <use xlink:href="#DejaVuSans-48" transform="translate(118.603516 0.78125)"/>
      <use xlink:href="#DejaVuSans-44" transform="translate(193.798828 0.78125)"/>
      <use xlink:href="#DejaVuSans-20" transform="translate(270.800781 0.78125)"/>
      <use xlink:href="#DejaVuSans-Oblique-46" transform="translate(302.587891 0.78125)"/>
      <use xlink:href="#DejaVuSans-Oblique-66" transform="translate(360.107422 -15.625) scale(0.7)"/>
      <use xlink:href="#DejaVuSans-Oblique-79" transform="translate(384.750977 -15.625) scale(0.7)"/>
      <use xlink:href="#DejaVuSans-20" transform="translate(428.911133 0.78125)"/>
      <use xlink:href="#DejaVuSans-39" transform="translate(460.698242 0.78125)"/>
      <use xlink:href="#DejaVuSans-30" transform="translate(524.321289 0.78125)"/>
      <use xlink:href="#DejaVuSans-25" transform="translate(587.944336 0.78125)"/>
     </g>
    </g>
   </g>
  </g>
  <g id="axes_2">
   <g id="patch_8">
    <path d="M 134.3 469.24 
L 709.2 469.24 
L 709.2 277.578849 
L 134.3 277.578849 
L 134.3 469.24 
z
" style="fill: none"/>
   </g>
   <g id="matplotlib.axis_3">
    <g id="xtick_6">
     <g id="line2d_21">
      <path d="M 146.741811 469.24 
L 146.741811 277.578849 
" clip-path="url(#pff6f51929c)" style="fill: none; stroke-dasharray: 1.85,0.8; stroke-dashoffset: 0; stroke: #b0b0b0; stroke-width: 0.5"/>
     </g>
     <g id="line2d_22">
      <g>
       <use xlink:href="#m9f45e09587" x="146.741811" y="469.24" style="stroke: #000000; stroke-width: 0.8"/>
      </g>
     </g>
     <g id="text_13">
      <!-- −0.08 -->
      <g transform="translate(106.902904 495.995937) scale(0.26 -0.26)">
       <defs>
        <path id="DejaVuSans-38" d="M 2034 2216 
Q 1584 2216 1326 1975 
Q 1069 1734 1069 1313 
Q 1069 891 1326 650 
Q 1584 409 2034 409 
Q 2484 409 2743 651 
Q 3003 894 3003 1313 
Q 3003 1734 2745 1975 
Q 2488 2216 2034 2216 
z
M 1403 2484 
Q 997 2584 770 2862 
Q 544 3141 544 3541 
Q 544 4100 942 4425 
Q 1341 4750 2034 4750 
Q 2731 4750 3128 4425 
Q 3525 4100 3525 3541 
Q 3525 3141 3298 2862 
Q 3072 2584 2669 2484 
Q 3125 2378 3379 2068 
Q 3634 1759 3634 1313 
Q 3634 634 3220 271 
Q 2806 -91 2034 -91 
Q 1263 -91 848 271 
Q 434 634 434 1313 
Q 434 1759 690 2068 
Q 947 2378 1403 2484 
z
M 1172 3481 
Q 1172 3119 1398 2916 
Q 1625 2713 2034 2713 
Q 2441 2713 2670 2916 
Q 2900 3119 2900 3481 
Q 2900 3844 2670 4047 
Q 2441 4250 2034 4250 
Q 1625 4250 1398 4047 
Q 1172 3844 1172 3481 
z
" transform="scale(0.015625)"/>
       </defs>
       <use xlink:href="#DejaVuSans-2212"/>
       <use xlink:href="#DejaVuSans-30" x="83.789062"/>
       <use xlink:href="#DejaVuSans-2e" x="147.412109"/>
       <use xlink:href="#DejaVuSans-30" x="179.199219"/>
       <use xlink:href="#DejaVuSans-38" x="242.822266"/>
      </g>
     </g>
    </g>
    <g id="xtick_7">
     <g id="line2d_23">
      <path d="M 293.982174 469.24 
L 293.982174 277.578849 
" clip-path="url(#pff6f51929c)" style="fill: none; stroke-dasharray: 1.85,0.8; stroke-dashoffset: 0; stroke: #b0b0b0; stroke-width: 0.5"/>
     </g>
     <g id="line2d_24">
      <g>
       <use xlink:href="#m9f45e09587" x="293.982174" y="469.24" style="stroke: #000000; stroke-width: 0.8"/>
      </g>
     </g>
     <g id="text_14">
      <!-- −0.04 -->
      <g transform="translate(254.143268 495.995937) scale(0.26 -0.26)">
       <defs>
        <path id="DejaVuSans-34" d="M 2419 4116 
L 825 1625 
L 2419 1625 
L 2419 4116 
z
M 2253 4666 
L 3047 4666 
L 3047 1625 
L 3713 1625 
L 3713 1100 
L 3047 1100 
L 3047 0 
L 2419 0 
L 2419 1100 
L 313 1100 
L 313 1709 
L 2253 4666 
z
" transform="scale(0.015625)"/>
       </defs>
       <use xlink:href="#DejaVuSans-2212"/>
       <use xlink:href="#DejaVuSans-30" x="83.789062"/>
       <use xlink:href="#DejaVuSans-2e" x="147.412109"/>
       <use xlink:href="#DejaVuSans-30" x="179.199219"/>
       <use xlink:href="#DejaVuSans-34" x="242.822266"/>
      </g>
     </g>
    </g>
    <g id="xtick_8">
     <g id="line2d_25">
      <path d="M 441.222538 469.24 
L 441.222538 277.578849 
" clip-path="url(#pff6f51929c)" style="fill: none; stroke-dasharray: 1.85,0.8; stroke-dashoffset: 0; stroke: #b0b0b0; stroke-width: 0.5"/>
     </g>
     <g id="line2d_26">
      <g>
       <use xlink:href="#m9f45e09587" x="441.222538" y="469.24" style="stroke: #000000; stroke-width: 0.8"/>
      </g>
     </g>
     <g id="text_15">
      <!-- 0.00 -->
      <g transform="translate(412.277226 495.995937) scale(0.26 -0.26)">
       <use xlink:href="#DejaVuSans-30"/>
       <use xlink:href="#DejaVuSans-2e" x="63.623047"/>
       <use xlink:href="#DejaVuSans-30" x="95.410156"/>
       <use xlink:href="#DejaVuSans-30" x="159.033203"/>
      </g>
     </g>
    </g>
    <g id="xtick_9">
     <g id="line2d_27">
      <path d="M 588.462902 469.24 
L 588.462902 277.578849 
" clip-path="url(#pff6f51929c)" style="fill: none; stroke-dasharray: 1.85,0.8; stroke-dashoffset: 0; stroke: #b0b0b0; stroke-width: 0.5"/>
     </g>
     <g id="line2d_28">
      <g>
       <use xlink:href="#m9f45e09587" x="588.462902" y="469.24" style="stroke: #000000; stroke-width: 0.8"/>
      </g>
     </g>
     <g id="text_16">
      <!-- 0.04 -->
      <g transform="translate(559.517589 495.995937) scale(0.26 -0.26)">
       <use xlink:href="#DejaVuSans-30"/>
       <use xlink:href="#DejaVuSans-2e" x="63.623047"/>
       <use xlink:href="#DejaVuSans-30" x="95.410156"/>
       <use xlink:href="#DejaVuSans-34" x="159.033203"/>
      </g>
     </g>
    </g>
    <g id="text_17">
     <!-- Slip Angle (rad) -->
     <g transform="translate(321.054844 525.159063) scale(0.26 -0.26)">
      <use xlink:href="#DejaVuSans-53"/>
      <use xlink:href="#DejaVuSans-6c" x="63.476562"/>
      <use xlink:href="#DejaVuSans-69" x="91.259766"/>
      <use xlink:href="#DejaVuSans-70" x="119.042969"/>
      <use xlink:href="#DejaVuSans-20" x="182.519531"/>
      <use xlink:href="#DejaVuSans-41" x="214.306641"/>
      <use xlink:href="#DejaVuSans-6e" x="282.714844"/>
      <use xlink:href="#DejaVuSans-67" x="346.09375"/>
      <use xlink:href="#DejaVuSans-6c" x="409.570312"/>
      <use xlink:href="#DejaVuSans-65" x="437.353516"/>
      <use xlink:href="#DejaVuSans-20" x="498.876953"/>
      <use xlink:href="#DejaVuSans-28" x="530.664062"/>
      <use xlink:href="#DejaVuSans-72" x="569.677734"/>
      <use xlink:href="#DejaVuSans-61" x="610.791016"/>
      <use xlink:href="#DejaVuSans-64" x="672.070312"/>
      <use xlink:href="#DejaVuSans-29" x="735.546875"/>
     </g>
    </g>
   </g>
   <g id="matplotlib.axis_4">
    <g id="ytick_3">
     <g id="line2d_29">
      <path d="M 134.3 461.753814 
L 709.2 461.753814 
" clip-path="url(#pff6f51929c)" style="fill: none; stroke-dasharray: 1.85,0.8; stroke-dashoffset: 0; stroke: #b0b0b0; stroke-width: 0.5"/>
     </g>
     <g id="line2d_30">
      <g>
       <use xlink:href="#m487fe9dc73" x="134.3" y="461.753814" style="stroke: #000000; stroke-width: 0.8"/>
      </g>
     </g>
     <g id="text_18">
      <!-- −5000 -->
      <g transform="translate(39.342813 471.631783) scale(0.26 -0.26)">
       <use xlink:href="#DejaVuSans-2212"/>
       <use xlink:href="#DejaVuSans-35" x="83.789062"/>
       <use xlink:href="#DejaVuSans-30" x="147.412109"/>
       <use xlink:href="#DejaVuSans-30" x="211.035156"/>
       <use xlink:href="#DejaVuSans-30" x="274.658203"/>
      </g>
     </g>
    </g>
    <g id="ytick_4">
     <g id="line2d_31">
      <path d="M 134.3 372.385234 
L 709.2 372.385234 
" clip-path="url(#pff6f51929c)" style="fill: none; stroke-dasharray: 1.85,0.8; stroke-dashoffset: 0; stroke: #b0b0b0; stroke-width: 0.5"/>
     </g>
     <g id="line2d_32">
      <g>
       <use xlink:href="#m487fe9dc73" x="134.3" y="372.385234" style="stroke: #000000; stroke-width: 0.8"/>
      </g>
     </g>
     <g id="text_19">
      <!-- 0 -->
      <g transform="translate(110.7575 382.263202) scale(0.26 -0.26)">
       <use xlink:href="#DejaVuSans-30"/>
      </g>
     </g>
    </g>
    <g id="ytick_5">
     <g id="line2d_33">
      <path d="M 134.3 283.016653 
L 709.2 283.016653 
" clip-path="url(#pff6f51929c)" style="fill: none; stroke-dasharray: 1.85,0.8; stroke-dashoffset: 0; stroke: #b0b0b0; stroke-width: 0.5"/>
     </g>
     <g id="line2d_34">
      <g>
       <use xlink:href="#m487fe9dc73" x="134.3" y="283.016653" style="stroke: #000000; stroke-width: 0.8"/>
      </g>
     </g>
     <g id="text_20">
      <!-- 5000 -->
      <g transform="translate(61.13 292.894622) scale(0.26 -0.26)">
       <use xlink:href="#DejaVuSans-35"/>
       <use xlink:href="#DejaVuSans-30" x="63.623047"/>
       <use xlink:href="#DejaVuSans-30" x="127.246094"/>
       <use xlink:href="#DejaVuSans-30" x="190.869141"/>
      </g>
     </g>
    </g>
    <g id="text_21">
     <!-- Force (N) -->
     <g transform="translate(29.935625 432.569581) rotate(-90) scale(0.26 -0.26)">
      <use xlink:href="#DejaVuSans-46"/>
      <use xlink:href="#DejaVuSans-6f" x="53.894531"/>
      <use xlink:href="#DejaVuSans-72" x="115.076172"/>
      <use xlink:href="#DejaVuSans-63" x="153.939453"/>
      <use xlink:href="#DejaVuSans-65" x="208.919922"/>
      <use xlink:href="#DejaVuSans-20" x="270.443359"/>
      <use xlink:href="#DejaVuSans-28" x="302.230469"/>
      <use xlink:href="#DejaVuSans-4e" x="341.244141"/>
      <use xlink:href="#DejaVuSans-29" x="416.048828"/>
     </g>
    </g>
   </g>
   <g id="line2d_35">
    <path d="M 136.223174 458.848314 
L 168.778633 457.361401 
L 198.118735 455.21426 
L 210.501967 453.998777 
L 223.250947 452.512597 
L 235.168697 450.876995 
L 245.706621 449.208805 
L 257.721705 447.023917 
L 265.438228 445.449721 
L 276.65229 442.906483 
L 286.367664 440.44231 
L 295.508936 437.895013 
L 304.401225 435.197954 
L 313.894588 432.07889 
L 322.299564 429.110823 
L 333.028233 425.047127 
L 343.861614 420.646083 
L 353.395396 416.544047 
L 364.85358 411.355874 
L 376.977427 405.604639 
L 390.373509 398.992843 
L 399.172201 394.534874 
L 404.110522 392.001303 
L 409.312141 389.311754 
L 425.066318 381.071806 
L 475.055429 354.77383 
L 492.068845 346.090656 
L 506.299503 339.075275 
L 518.493279 333.307408 
L 529.966136 328.134464 
L 540.120554 323.792674 
L 550.605286 319.568573 
L 559.079573 316.361057 
L 577.126175 310.173836 
L 582.705952 308.442075 
L 593.847652 305.239931 
L 620.530784 298.895722 
L 635.916344 296.012826 
L 654.800196 293.143248 
L 671.821723 291.096314 
L 694.704154 289.001154 
L 707.48407 288.099037 
L 707.48407 288.099037 
" clip-path="url(#pff6f51929c)" style="fill: none; stroke-dasharray: 19.2,4.8,3,4.8; stroke-dashoffset: 0; stroke: #0000ff; stroke-width: 3"/>
   </g>
   <g id="line2d_36">
    <path d="M 135.435262 457.754361 
L 167.985044 456.008008 
L 196.375095 453.741101 
L 197.259874 453.537953 
L 198.011721 453.566108 
L 211.905653 452.056416 
L 212.575895 451.859543 
L 212.892689 451.915957 
L 219.981864 451.063587 
L 219.982646 450.893699 
L 220.338288 451.003193 
L 227.386366 450.051121 
L 231.374262 449.488762 
L 234.335958 448.837148 
L 237.14488 448.585206 
L 244.962522 447.276741 
L 257.503177 444.896727 
L 259.106234 444.498417 
L 264.505605 443.446608 
L 277.872513 440.412117 
L 277.893246 440.378656 
L 278.234476 440.311521 
L 294.214418 436.040235 
L 299.43123 434.472654 
L 299.691431 434.458376 
L 304.799446 432.870901 
L 306.306362 432.403143 
L 320.80732 427.59315 
L 321.414223 427.304037 
L 331.025537 423.761922 
L 345.699928 417.956354 
L 358.253686 412.616172 
L 361.276 411.281769 
L 372.610015 406.172863 
L 375.337757 404.884842 
L 375.430723 404.863006 
L 377.643576 403.803928 
L 378.255991 403.54007 
L 379.279626 403.034775 
L 379.566875 402.916277 
L 380.7696 402.34547 
L 380.933578 402.271963 
L 382.660167 401.449572 
L 383.001877 401.286786 
L 383.380838 401.106107 
L 384.106123 400.763982 
L 386.271577 399.729687 
L 386.280775 399.7733 
L 386.321862 399.704035 
L 387.395467 399.158743 
L 387.469622 399.181641 
L 387.489993 399.127573 
L 387.49905 399.136189 
L 387.670861 399.048011 
L 387.672675 399.05627 
L 388.521485 398.645711 
L 389.28543 398.27124 
L 389.521452 398.1593 
L 389.742931 398.053038 
L 389.854996 397.986635 
L 390.570531 397.634511 
L 390.623343 397.559326 
L 390.67443 397.600797 
L 391.80808 397.027575 
L 391.810397 397.042503 
L 391.813479 397.130482 
L 391.882719 396.990468 
L 391.905516 396.990904 
L 392.266884 396.810775 
L 392.374454 396.753408 
L 392.293785 396.819171 
L 392.388102 396.765268 
L 392.434221 396.739531 
L 392.435925 396.870475 
L 392.488545 396.669806 
L 392.537763 396.694771 
L 393.230038 396.333539 
L 393.231646 396.488455 
L 393.324883 396.311465 
L 393.529393 396.197304 
L 393.533592 396.207762 
L 395.767312 395.10277 
L 395.780158 395.227926 
L 395.793792 395.046422 
L 395.872891 395.066827 
L 395.961555 394.980299 
L 395.984771 395.001033 
L 396.108525 394.916288 
L 396.120517 394.930343 
L 396.227981 394.896677 
L 396.347207 394.815807 
L 396.402624 394.812726 
L 396.395466 394.780572 
L 396.416965 394.8006 
L 396.417431 394.597982 
L 396.522814 394.740195 
L 396.585697 394.615171 
L 396.562437 394.755675 
L 396.658571 394.658733 
L 396.666346 394.680384 
L 396.728187 394.611261 
L 396.752058 394.636352 
L 396.923568 394.512711 
L 396.924617 394.529758 
L 397.144931 394.433811 
L 397.28115 394.35598 
L 397.286029 394.374129 
L 397.357469 394.29685 
L 397.383585 394.32112 
L 397.575147 394.210134 
L 397.633885 394.20322 
L 397.605712 394.193692 
L 397.66177 394.175945 
L 397.846685 394.081089 
L 397.847497 394.084994 
L 397.855882 394.103389 
L 397.862674 394.054448 
L 397.945348 394.033893 
L 398.168089 393.921798 
L 398.176289 393.843503 
L 398.177349 393.939975 
L 398.283256 393.87111 
L 398.495521 393.749779 
L 398.503148 393.768785 
L 398.543769 393.719779 
L 398.603674 393.720728 
L 398.735889 393.637451 
L 446.703693 369.458223 
L 447.312357 369.148429 
L 455.033609 365.220056 
L 489.728364 347.876729 
L 492.687887 346.451235 
L 492.779698 346.348086 
L 492.997618 346.280601 
L 520.31317 333.484234 
L 520.371086 333.49208 
L 522.142516 332.690555 
L 530.819307 328.936438 
L 538.190247 325.834008 
L 538.375219 325.821624 
L 540.469387 324.937425 
L 554.846402 319.326762 
L 558.322405 318.056825 
L 576.355048 311.908123 
L 593.373572 306.597823 
L 635.389867 297.056178 
L 654.267987 294.226082 
L 671.103802 292.358907 
L 688.300921 290.241806 
L 694.214578 289.878187 
L 706.850867 288.97196 
L 706.850867 288.97196 
" clip-path="url(#pff6f51929c)" style="fill: none; stroke-dasharray: 11.1,4.8; stroke-dashoffset: 0; stroke: #008000; stroke-width: 3"/>
   </g>
   <g id="line2d_37">
    <path d="M 134.86799 460.52813 
L 167.424052 459.131702 
L 196.81492 457.139245 
L 197.469296 457.02873 
L 212.277408 455.599557 
L 225.456436 454.049283 
L 233.872849 453.012258 
L 239.377041 452.090566 
L 241.452751 451.766422 
L 248.303639 450.63254 
L 261.676621 448.164929 
L 261.808511 448.121816 
L 277.765553 444.558558 
L 290.623879 441.217966 
L 301.832525 437.928408 
L 304.811486 436.96194 
L 305.190083 436.965204 
L 305.85233 436.663345 
L 317.696483 432.658874 
L 337.252964 425.121533 
L 349.945509 419.68503 
L 356.027086 416.916834 
L 356.621379 416.64954 
L 358.314495 415.855473 
L 363.458451 413.492416 
L 363.482572 413.44431 
L 365.32007 412.624995 
L 367.654048 411.488709 
L 372.573381 409.08867 
L 373.587342 408.586314 
L 374.600117 408.129718 
L 375.568606 407.57737 
L 375.67691 407.599751 
L 381.417003 404.697044 
L 381.435385 404.720682 
L 381.518039 404.654476 
L 382.215666 404.28434 
L 382.434241 404.183962 
L 382.55826 404.123639 
L 382.979977 403.905785 
L 384.215445 403.264897 
L 384.231177 403.328557 
L 384.310201 403.208749 
L 384.49701 403.131612 
L 384.593031 403.064082 
L 384.930264 402.906129 
L 385.087958 402.82847 
L 385.528455 402.598327 
L 385.547883 402.601925 
L 385.551273 402.577357 
L 385.638456 402.500287 
L 385.649121 402.536009 
L 390.022128 400.27372 
L 390.041655 400.309298 
L 390.136939 400.207204 
L 390.137309 400.290189 
L 390.244139 400.093923 
L 390.309912 400.199823 
L 390.358051 400.104186 
L 393.074744 398.681712 
L 393.076887 398.771333 
L 393.170514 398.605687 
L 393.181491 398.694543 
L 393.311033 398.549011 
L 393.319604 398.61544 
L 393.395898 398.498146 
L 393.412563 398.501733 
L 393.936664 398.222938 
L 394.01014 398.160084 
L 393.994923 398.295463 
L 394.042136 398.168628 
L 394.057436 398.222395 
L 394.178815 398.101058 
L 394.182919 398.185288 
L 394.252864 398.05376 
L 394.281545 398.103059 
L 394.413363 397.920298 
L 394.428752 398.032321 
L 394.527375 397.933446 
L 394.632387 397.861382 
L 394.536288 398.000811 
L 394.640019 397.910702 
L 394.742032 397.799188 
L 394.765196 397.835387 
L 394.855972 397.747168 
L 394.887196 397.79261 
L 394.991982 397.664782 
L 395.02405 397.74618 
L 395.087595 397.601067 
L 395.101119 397.614015 
L 395.104376 397.702763 
L 395.207342 397.559436 
L 395.238776 397.617436 
L 395.32012 397.500809 
L 395.323106 397.587145 
L 395.403779 397.430043 
L 395.431355 397.508814 
L 395.543612 397.36291 
L 395.543632 397.432284 
L 395.547472 397.469305 
L 395.606595 397.325884 
L 395.647257 397.392672 
L 395.757035 397.203905 
L 395.774323 397.340306 
L 395.871112 397.23549 
L 395.942213 397.256344 
L 395.944424 397.145813 
L 395.963293 397.209353 
L 396.08772 397.081743 
L 395.979899 397.230229 
L 396.091888 397.091605 
L 396.119461 397.166264 
L 396.126722 397.072311 
L 396.18302 397.101382 
L 396.27372 396.935887 
L 396.301492 397.044672 
L 396.341105 397.025146 
L 396.422988 396.908371 
L 396.44452 396.965776 
L 396.608084 396.813978 
L 396.612376 396.820105 
L 396.612677 396.895813 
L 396.720073 396.749736 
L 396.722157 396.756259 
L 396.783214 396.816559 
L 396.735582 396.720226 
L 396.815178 396.787486 
L 396.921038 396.629319 
L 396.932512 396.649102 
L 396.971535 396.717235 
L 397.039609 396.584482 
L 397.040017 396.676679 
L 397.151602 396.485629 
L 397.160872 396.536497 
L 397.35653 396.421114 
L 397.172538 396.585281 
L 397.359721 396.474281 
L 397.363009 396.496567 
L 397.394415 396.35853 
L 397.452019 396.398545 
L 397.586264 396.339336 
L 397.587245 396.306707 
L 397.592452 396.363812 
L 397.706135 396.214349 
L 397.707115 396.294925 
L 397.771168 396.129021 
L 397.813537 396.160525 
L 397.875571 396.236381 
L 397.890271 396.127782 
L 397.909681 396.193986 
L 398.016466 396.049294 
L 398.040145 396.059379 
L 398.086693 396.111361 
L 398.138572 396.000894 
L 398.146899 396.051526 
L 398.268121 395.931996 
L 398.157643 396.06266 
L 398.278155 395.989278 
L 398.312643 396.003842 
L 398.335043 395.849166 
L 398.36047 395.942194 
L 398.458513 395.83553 
L 398.466919 395.902102 
L 398.62379 395.730445 
L 398.663033 395.815889 
L 398.728656 395.671886 
L 398.730867 395.675275 
L 398.866357 395.620718 
L 398.741834 395.760585 
L 398.869867 395.63183 
L 398.872527 395.699989 
L 398.960804 395.557167 
L 398.978747 395.622444 
L 398.984643 395.641823 
L 398.993001 395.521132 
L 399.065919 395.540325 
L 399.075426 395.59524 
L 399.168882 395.459974 
L 399.252623 395.490479 
L 399.208084 395.367577 
L 399.256775 395.431964 
L 399.342833 395.338148 
L 399.309264 395.472594 
L 399.352956 395.437711 
L 399.421195 395.360292 
L 399.477555 395.241772 
L 399.438617 395.402253 
L 399.532564 395.277057 
L 399.645917 395.189994 
L 399.561816 395.332172 
L 399.648324 395.207414 
L 399.728239 395.232346 
L 399.816015 395.104712 
L 399.75007 395.238809 
L 399.837564 395.134717 
L 399.868168 395.160013 
L 399.916458 395.053958 
L 399.942385 395.116922 
L 400.045924 394.97918 
L 400.070981 395.04774 
L 400.092064 395.053613 
L 400.102349 394.934905 
L 400.149857 394.96963 
L 400.229477 394.879803 
L 400.191749 394.994813 
L 400.260509 394.936793 
L 400.282765 394.868516 
L 400.316084 394.901037 
L 400.424233 394.788266 
L 400.450411 394.794301 
L 400.506521 394.824 
L 400.512811 394.720022 
L 400.545722 394.793273 
L 400.644249 394.657963 
L 400.55081 394.795802 
L 400.64959 394.750245 
L 400.770163 394.598122 
L 400.776677 394.628369 
L 400.783701 394.671694 
L 400.869787 394.539657 
L 400.886441 394.61195 
L 400.952756 394.470564 
L 400.887278 394.624299 
L 400.996816 394.546818 
L 401.109645 394.437767 
L 401.114338 394.458446 
L 401.118401 394.478467 
L 401.207383 394.374438 
L 401.324792 394.314767 
L 401.220441 394.439287 
L 401.325865 394.341281 
L 401.325889 394.380491 
L 401.433011 394.2289 
L 401.445215 394.327919 
L 401.519532 394.208382 
L 401.539755 394.218331 
L 401.651144 394.116356 
L 401.569052 394.246228 
L 401.672279 394.126471 
L 402.105501 393.896421 
L 402.109015 393.957965 
L 402.216949 393.812232 
L 402.22025 393.868402 
L 402.224254 393.89763 
L 402.338606 393.756792 
L 402.393988 393.80301 
L 402.380238 393.699963 
L 402.439182 393.779439 
L 402.524247 393.643028 
L 402.440955 393.779969 
L 402.550695 393.651177 
L 402.566897 393.717019 
L 402.650048 393.601226 
L 402.654799 393.607669 
L 402.66952 393.663173 
L 403.463483 393.173441 
L 403.572698 393.083684 
L 403.467243 393.219703 
L 403.580364 393.138553 
L 403.581386 393.166424 
L 403.670841 393.040798 
L 403.687091 393.047887 
L 403.691438 393.101972 
L 403.753667 392.99502 
L 403.795727 393.016791 
L 403.79957 393.037383 
L 403.90927 392.914425 
L 403.922074 392.995858 
L 403.983027 392.855308 
L 404.018893 392.933307 
L 404.132737 392.803986 
L 404.134448 392.837356 
L 404.234521 392.744679 
L 404.239138 392.750895 
L 404.257147 392.805605 
L 404.333397 392.699735 
L 404.336623 392.729703 
L 404.352139 392.755571 
L 404.469247 392.617128 
L 404.492603 392.692184 
L 404.570848 392.56486 
L 404.571195 392.61638 
L 404.678683 392.494312 
L 404.611791 392.628919 
L 404.692793 392.529588 
L 404.70195 392.503037 
L 404.806363 392.512991 
L 404.929336 392.379841 
L 404.930399 392.386092 
L 404.944396 392.427054 
L 405.023718 392.32104 
L 405.03775 392.378868 
L 405.153606 392.251256 
L 405.225269 392.295576 
L 405.25458 392.203648 
L 405.25771 392.203384 
L 405.411095 392.127268 
L 405.510084 392.059238 
L 405.417643 392.171176 
L 405.519954 392.074147 
L 405.653805 392.025936 
L 405.655639 391.989019 
L 405.661392 392.036896 
L 406.732977 391.410207 
L 406.778912 391.435238 
L 406.851384 391.343809 
L 406.856475 391.38596 
L 406.952722 391.290725 
L 406.957933 391.30972 
L 406.974865 391.329051 
L 407.080618 391.217565 
L 407.139943 391.169706 
L 407.190468 391.217677 
L 407.307672 391.096538 
L 407.381532 391.101264 
L 407.322663 391.08166 
L 407.407354 391.076103 
L 407.537073 390.970074 
L 408.170442 390.662577 
L 408.272722 390.571081 
L 408.172893 390.687246 
L 408.283555 390.57183 
L 408.313367 390.607066 
L 408.344488 390.527642 
L 408.392257 390.544196 
L 408.491898 390.449978 
L 408.393158 390.555123 
L 408.504771 390.475175 
L 408.521161 390.483929 
L 408.591466 390.399967 
L 408.686404 390.39328 
L 408.694686 390.36685 
L 408.715314 390.37574 
L 408.824468 390.285167 
L 408.842744 390.306414 
L 409.055673 390.149681 
L 409.058303 390.196971 
L 409.133723 390.097186 
L 409.163021 390.095822 
L 464.855794 359.543468 
L 468.877686 357.355304 
L 482.344318 350.073447 
L 486.845499 347.724105 
L 487.407204 347.40747 
L 491.778894 345.139171 
L 492.138626 344.947417 
L 497.321324 342.262812 
L 499.721227 340.988081 
L 514.517471 333.614752 
L 519.592204 331.251533 
L 519.772624 331.082828 
L 521.496991 330.292479 
L 523.737564 329.261887 
L 527.325286 327.545242 
L 530.866089 325.954813 
L 538.74382 322.498012 
L 539.517697 322.239423 
L 542.666079 320.851348 
L 557.707481 314.843388 
L 575.75108 308.481458 
L 581.326236 306.699318 
L 592.447736 303.570021 
L 619.069545 297.05945 
L 634.502949 294.223141 
L 653.382482 291.337915 
L 670.385771 289.265795 
L 693.287098 287.190681 
L 706.07505 286.29072 
L 706.07505 286.29072 
" clip-path="url(#pff6f51929c)" style="fill: none; stroke-dasharray: 3,4.95; stroke-dashoffset: 0; stroke: #a52a2a; stroke-width: 3"/>
   </g>
   <g id="patch_9">
    <path d="M 134.3 469.24 
L 134.3 277.578849 
" style="fill: none; stroke: #000000; stroke-width: 0.8; stroke-linejoin: miter; stroke-linecap: square"/>
   </g>
   <g id="patch_10">
    <path d="M 709.2 469.24 
L 709.2 277.578849 
" style="fill: none; stroke: #000000; stroke-width: 0.8; stroke-linejoin: miter; stroke-linecap: square"/>
   </g>
   <g id="patch_11">
    <path d="M 134.3 469.24 
L 709.2 469.24 
" style="fill: none; stroke: #000000; stroke-width: 0.8; stroke-linejoin: miter; stroke-linecap: square"/>
   </g>
   <g id="patch_12">
    <path d="M 134.3 277.578849 
L 709.2 277.578849 
" style="fill: none; stroke: #000000; stroke-width: 0.8; stroke-linejoin: miter; stroke-linecap: square"/>
   </g>
   <g id="legend_2">
    <g id="patch_13">
     <path d="M 142.7 386.979005 
L 334.955 386.979005 
Q 339.155 386.979005 339.155 382.779005 
L 339.155 285.978849 
Q 339.155 281.778849 334.955 281.778849 
L 142.7 281.778849 
Q 138.5 281.778849 138.5 285.978849 
L 138.5 382.779005 
Q 138.5 386.979005 142.7 386.979005 
z
" style="fill: #ffffff; opacity: 0.8; stroke: #cccccc; stroke-linejoin: miter"/>
    </g>
    <g id="line2d_38">
     <path d="M 146.9 298.785568 
L 162.65 298.785568 
L 178.4 298.785568 
" style="fill: none; stroke-dasharray: 19.2,4.8,3,4.8; stroke-dashoffset: 0; stroke: #0000ff; stroke-width: 3"/>
    </g>
    <g id="text_22">
     <!-- FTHD $F_{ry}$ 60% -->
     <g transform="translate(186.275 306.135568) scale(0.21 -0.21)">
      <defs>
       <path id="DejaVuSans-Oblique-72" d="M 2853 2969 
Q 2766 3016 2653 3041 
Q 2541 3066 2413 3066 
Q 1953 3066 1609 2717 
Q 1266 2369 1153 1784 
L 800 0 
L 225 0 
L 909 3500 
L 1484 3500 
L 1375 2956 
Q 1603 3259 1920 3421 
Q 2238 3584 2597 3584 
Q 2691 3584 2781 3573 
Q 2872 3563 2963 3538 
L 2853 2969 
z
" transform="scale(0.015625)"/>
      </defs>
      <use xlink:href="#DejaVuSans-46" transform="translate(0 0.78125)"/>
      <use xlink:href="#DejaVuSans-54" transform="translate(57.519531 0.78125)"/>
      <use xlink:href="#DejaVuSans-48" transform="translate(118.603516 0.78125)"/>
      <use xlink:href="#DejaVuSans-44" transform="translate(193.798828 0.78125)"/>
      <use xlink:href="#DejaVuSans-20" transform="translate(270.800781 0.78125)"/>
      <use xlink:href="#DejaVuSans-Oblique-46" transform="translate(302.587891 0.78125)"/>
      <use xlink:href="#DejaVuSans-Oblique-72" transform="translate(360.107422 -15.625) scale(0.7)"/>
      <use xlink:href="#DejaVuSans-Oblique-79" transform="translate(388.886719 -15.625) scale(0.7)"/>
      <use xlink:href="#DejaVuSans-20" transform="translate(433.046875 0.78125)"/>
      <use xlink:href="#DejaVuSans-36" transform="translate(464.833984 0.78125)"/>
      <use xlink:href="#DejaVuSans-30" transform="translate(528.457031 0.78125)"/>
      <use xlink:href="#DejaVuSans-25" transform="translate(592.080078 0.78125)"/>
     </g>
    </g>
    <g id="line2d_39">
     <path d="M 146.9 331.752287 
L 162.65 331.752287 
L 178.4 331.752287 
" style="fill: none; stroke-dasharray: 11.1,4.8; stroke-dashoffset: 0; stroke: #008000; stroke-width: 3"/>
    </g>
    <g id="text_23">
     <!-- FTHD $F_{ry}$ 5% -->
     <g transform="translate(186.275 339.102287) scale(0.21 -0.21)">
      <use xlink:href="#DejaVuSans-46" transform="translate(0 0.78125)"/>
      <use xlink:href="#DejaVuSans-54" transform="translate(57.519531 0.78125)"/>
      <use xlink:href="#DejaVuSans-48" transform="translate(118.603516 0.78125)"/>
      <use xlink:href="#DejaVuSans-44" transform="translate(193.798828 0.78125)"/>
      <use xlink:href="#DejaVuSans-20" transform="translate(270.800781 0.78125)"/>
      <use xlink:href="#DejaVuSans-Oblique-46" transform="translate(302.587891 0.78125)"/>
      <use xlink:href="#DejaVuSans-Oblique-72" transform="translate(360.107422 -15.625) scale(0.7)"/>
      <use xlink:href="#DejaVuSans-Oblique-79" transform="translate(388.886719 -15.625) scale(0.7)"/>
      <use xlink:href="#DejaVuSans-20" transform="translate(433.046875 0.78125)"/>
      <use xlink:href="#DejaVuSans-35" transform="translate(464.833984 0.78125)"/>
      <use xlink:href="#DejaVuSans-25" transform="translate(528.457031 0.78125)"/>
     </g>
    </g>
    <g id="line2d_40">
     <path d="M 146.9 364.719005 
L 162.65 364.719005 
L 178.4 364.719005 
" style="fill: none; stroke-dasharray: 3,4.95; stroke-dashoffset: 0; stroke: #a52a2a; stroke-width: 3"/>
    </g>
    <g id="text_24">
     <!-- FTHD $F_{ry}$ 90% -->
     <g transform="translate(186.275 372.069005) scale(0.21 -0.21)">
      <use xlink:href="#DejaVuSans-46" transform="translate(0 0.78125)"/>
      <use xlink:href="#DejaVuSans-54" transform="translate(57.519531 0.78125)"/>
      <use xlink:href="#DejaVuSans-48" transform="translate(118.603516 0.78125)"/>
      <use xlink:href="#DejaVuSans-44" transform="translate(193.798828 0.78125)"/>
      <use xlink:href="#DejaVuSans-20" transform="translate(270.800781 0.78125)"/>
      <use xlink:href="#DejaVuSans-Oblique-46" transform="translate(302.587891 0.78125)"/>
      <use xlink:href="#DejaVuSans-Oblique-72" transform="translate(360.107422 -15.625) scale(0.7)"/>
      <use xlink:href="#DejaVuSans-Oblique-79" transform="translate(388.886719 -15.625) scale(0.7)"/>
      <use xlink:href="#DejaVuSans-20" transform="translate(433.046875 0.78125)"/>
      <use xlink:href="#DejaVuSans-39" transform="translate(464.833984 0.78125)"/>
      <use xlink:href="#DejaVuSans-30" transform="translate(528.457031 0.78125)"/>
      <use xlink:href="#DejaVuSans-25" transform="translate(592.080078 0.78125)"/>
     </g>
    </g>
   </g>
  </g>
 </g>
 <defs>
  <clipPath id="pb9a8e6b326">
   <rect x="134.3" y="10.8" width="574.9" height="191.661151"/>
  </clipPath>
  <clipPath id="pff6f51929c">
   <rect x="134.3" y="277.578849" width="574.9" height="191.661151"/>
  </clipPath>
 </defs>
</svg>
