<?xml version="1.0" encoding="utf-8" standalone="no"?>
<!DOCTYPE svg PUBLIC "-//W3C//DTD SVG 1.1//EN"
  "http://www.w3.org/Graphics/SVG/1.1/DTD/svg11.dtd">
<svg xmlns:xlink="http://www.w3.org/1999/xlink" width="720pt" height="540pt" viewBox="0 0 720 540" xmlns="http://www.w3.org/2000/svg" version="1.1">
 <metadata>
  <rdf:RDF xmlns:dc="http://purl.org/dc/elements/1.1/" xmlns:cc="http://creativecommons.org/ns#" xmlns:rdf="http://www.w3.org/1999/02/22-rdf-syntax-ns#">
   <cc:Work>
    <dc:type rdf:resource="http://purl.org/dc/dcmitype/StillImage"/>
    <dc:date>2024-04-19T14:06:18.651831</dc:date>
    <dc:format>image/svg+xml</dc:format>
    <dc:creator>
     <cc:Agent>
      <dc:title>Matplotlib v3.8.4, https://matplotlib.org/</dc:title>
     </cc:Agent>
    </dc:creator>
   </cc:Work>
  </rdf:RDF>
 </metadata>
 <defs>
  <style type="text/css">*{stroke-linejoin: round; stroke-linecap: butt}</style>
 </defs>
 <g id="figure_1">
  <g id="patch_1">
   <path d="M 0 540 
L 720 540 
L 720 0 
L 0 0 
L 0 540 
z
" style="fill: none"/>
  </g>
  <g id="axes_1">
   <g id="patch_2">
    <path d="M 109.46 201.481817 
L 707.99345 201.481817 
L 707.99345 14.176858 
L 109.46 14.176858 
L 109.46 201.481817 
z
" style="fill: none"/>
   </g>
   <g id="matplotlib.axis_1">
    <g id="xtick_1">
     <g id="line2d_1">
      <path d="M 164.347347 201.481817 
L 164.347347 14.176858 
" clip-path="url(#p79ee9f8482)" style="fill: none; stroke-dasharray: 1.85,0.8; stroke-dashoffset: 0; stroke: #b0b0b0; stroke-width: 0.5"/>
     </g>
     <g id="line2d_2">
      <defs>
       <path id="mcf43ac470e" d="M 0 0 
L 0 3.5 
" style="stroke: #000000; stroke-width: 0.8"/>
      </defs>
      <g>
       <use xlink:href="#mcf43ac470e" x="164.347347" y="201.481817" style="stroke: #000000; stroke-width: 0.8"/>
      </g>
     </g>
     <g id="text_1">
      <!-- −0.4 -->
      <g transform="translate(132.779691 228.237755) scale(0.26 -0.26)">
       <defs>
        <path id="DejaVuSans-2212" d="M 678 2272 
L 4684 2272 
L 4684 1741 
L 678 1741 
L 678 2272 
z
" transform="scale(0.015625)"/>
        <path id="DejaVuSans-30" d="M 2034 4250 
Q 1547 4250 1301 3770 
Q 1056 3291 1056 2328 
Q 1056 1369 1301 889 
Q 1547 409 2034 409 
Q 2525 409 2770 889 
Q 3016 1369 3016 2328 
Q 3016 3291 2770 3770 
Q 2525 4250 2034 4250 
z
M 2034 4750 
Q 2819 4750 3233 4129 
Q 3647 3509 3647 2328 
Q 3647 1150 3233 529 
Q 2819 -91 2034 -91 
Q 1250 -91 836 529 
Q 422 1150 422 2328 
Q 422 3509 836 4129 
Q 1250 4750 2034 4750 
z
" transform="scale(0.015625)"/>
        <path id="DejaVuSans-2e" d="M 684 794 
L 1344 794 
L 1344 0 
L 684 0 
L 684 794 
z
" transform="scale(0.015625)"/>
        <path id="DejaVuSans-34" d="M 2419 4116 
L 825 1625 
L 2419 1625 
L 2419 4116 
z
M 2253 4666 
L 3047 4666 
L 3047 1625 
L 3713 1625 
L 3713 1100 
L 3047 1100 
L 3047 0 
L 2419 0 
L 2419 1100 
L 313 1100 
L 313 1709 
L 2253 4666 
z
" transform="scale(0.015625)"/>
       </defs>
       <use xlink:href="#DejaVuSans-2212"/>
       <use xlink:href="#DejaVuSans-30" x="83.789062"/>
       <use xlink:href="#DejaVuSans-2e" x="147.412109"/>
       <use xlink:href="#DejaVuSans-34" x="179.199219"/>
      </g>
     </g>
    </g>
    <g id="xtick_2">
     <g id="line2d_3">
      <path d="M 268.894674 201.481817 
L 268.894674 14.176858 
" clip-path="url(#p79ee9f8482)" style="fill: none; stroke-dasharray: 1.85,0.8; stroke-dashoffset: 0; stroke: #b0b0b0; stroke-width: 0.5"/>
     </g>
     <g id="line2d_4">
      <g>
       <use xlink:href="#mcf43ac470e" x="268.894674" y="201.481817" style="stroke: #000000; stroke-width: 0.8"/>
      </g>
     </g>
     <g id="text_2">
      <!-- −0.2 -->
      <g transform="translate(237.327018 228.237755) scale(0.26 -0.26)">
       <defs>
        <path id="DejaVuSans-32" d="M 1228 531 
L 3431 531 
L 3431 0 
L 469 0 
L 469 531 
Q 828 903 1448 1529 
Q 2069 2156 2228 2338 
Q 2531 2678 2651 2914 
Q 2772 3150 2772 3378 
Q 2772 3750 2511 3984 
Q 2250 4219 1831 4219 
Q 1534 4219 1204 4116 
Q 875 4013 500 3803 
L 500 4441 
Q 881 4594 1212 4672 
Q 1544 4750 1819 4750 
Q 2544 4750 2975 4387 
Q 3406 4025 3406 3419 
Q 3406 3131 3298 2873 
Q 3191 2616 2906 2266 
Q 2828 2175 2409 1742 
Q 1991 1309 1228 531 
z
" transform="scale(0.015625)"/>
       </defs>
       <use xlink:href="#DejaVuSans-2212"/>
       <use xlink:href="#DejaVuSans-30" x="83.789062"/>
       <use xlink:href="#DejaVuSans-2e" x="147.412109"/>
       <use xlink:href="#DejaVuSans-32" x="179.199219"/>
      </g>
     </g>
    </g>
    <g id="xtick_3">
     <g id="line2d_5">
      <path d="M 373.442002 201.481817 
L 373.442002 14.176858 
" clip-path="url(#p79ee9f8482)" style="fill: none; stroke-dasharray: 1.85,0.8; stroke-dashoffset: 0; stroke: #b0b0b0; stroke-width: 0.5"/>
     </g>
     <g id="line2d_6">
      <g>
       <use xlink:href="#mcf43ac470e" x="373.442002" y="201.481817" style="stroke: #000000; stroke-width: 0.8"/>
      </g>
     </g>
     <g id="text_3">
      <!-- 0.0 -->
      <g transform="translate(352.767939 228.237755) scale(0.26 -0.26)">
       <use xlink:href="#DejaVuSans-30"/>
       <use xlink:href="#DejaVuSans-2e" x="63.623047"/>
       <use xlink:href="#DejaVuSans-30" x="95.410156"/>
      </g>
     </g>
    </g>
    <g id="xtick_4">
     <g id="line2d_7">
      <path d="M 477.989329 201.481817 
L 477.989329 14.176858 
" clip-path="url(#p79ee9f8482)" style="fill: none; stroke-dasharray: 1.85,0.8; stroke-dashoffset: 0; stroke: #b0b0b0; stroke-width: 0.5"/>
     </g>
     <g id="line2d_8">
      <g>
       <use xlink:href="#mcf43ac470e" x="477.989329" y="201.481817" style="stroke: #000000; stroke-width: 0.8"/>
      </g>
     </g>
     <g id="text_4">
      <!-- 0.2 -->
      <g transform="translate(457.315267 228.237755) scale(0.26 -0.26)">
       <use xlink:href="#DejaVuSans-30"/>
       <use xlink:href="#DejaVuSans-2e" x="63.623047"/>
       <use xlink:href="#DejaVuSans-32" x="95.410156"/>
      </g>
     </g>
    </g>
    <g id="xtick_5">
     <g id="line2d_9">
      <path d="M 582.536657 201.481817 
L 582.536657 14.176858 
" clip-path="url(#p79ee9f8482)" style="fill: none; stroke-dasharray: 1.85,0.8; stroke-dashoffset: 0; stroke: #b0b0b0; stroke-width: 0.5"/>
     </g>
     <g id="line2d_10">
      <g>
       <use xlink:href="#mcf43ac470e" x="582.536657" y="201.481817" style="stroke: #000000; stroke-width: 0.8"/>
      </g>
     </g>
     <g id="text_5">
      <!-- 0.4 -->
      <g transform="translate(561.862594 228.237755) scale(0.26 -0.26)">
       <use xlink:href="#DejaVuSans-30"/>
       <use xlink:href="#DejaVuSans-2e" x="63.623047"/>
       <use xlink:href="#DejaVuSans-34" x="95.410156"/>
      </g>
     </g>
    </g>
    <g id="xtick_6">
     <g id="line2d_11">
      <path d="M 687.083984 201.481817 
L 687.083984 14.176858 
" clip-path="url(#p79ee9f8482)" style="fill: none; stroke-dasharray: 1.85,0.8; stroke-dashoffset: 0; stroke: #b0b0b0; stroke-width: 0.5"/>
     </g>
     <g id="line2d_12">
      <g>
       <use xlink:href="#mcf43ac470e" x="687.083984" y="201.481817" style="stroke: #000000; stroke-width: 0.8"/>
      </g>
     </g>
     <g id="text_6">
      <!-- 0.6 -->
      <g transform="translate(666.409922 228.237755) scale(0.26 -0.26)">
       <defs>
        <path id="DejaVuSans-36" d="M 2113 2584 
Q 1688 2584 1439 2293 
Q 1191 2003 1191 1497 
Q 1191 994 1439 701 
Q 1688 409 2113 409 
Q 2538 409 2786 701 
Q 3034 994 3034 1497 
Q 3034 2003 2786 2293 
Q 2538 2584 2113 2584 
z
M 3366 4563 
L 3366 3988 
Q 3128 4100 2886 4159 
Q 2644 4219 2406 4219 
Q 1781 4219 1451 3797 
Q 1122 3375 1075 2522 
Q 1259 2794 1537 2939 
Q 1816 3084 2150 3084 
Q 2853 3084 3261 2657 
Q 3669 2231 3669 1497 
Q 3669 778 3244 343 
Q 2819 -91 2113 -91 
Q 1303 -91 875 529 
Q 447 1150 447 2328 
Q 447 3434 972 4092 
Q 1497 4750 2381 4750 
Q 2619 4750 2861 4703 
Q 3103 4656 3366 4563 
z
" transform="scale(0.015625)"/>
       </defs>
       <use xlink:href="#DejaVuSans-30"/>
       <use xlink:href="#DejaVuSans-2e" x="63.623047"/>
       <use xlink:href="#DejaVuSans-36" x="95.410156"/>
      </g>
     </g>
    </g>
    <g id="text_7">
     <!-- Slip Angle (rad) -->
     <g transform="translate(308.031569 257.40088) scale(0.26 -0.26)">
      <defs>
       <path id="DejaVuSans-53" d="M 3425 4513 
L 3425 3897 
Q 3066 4069 2747 4153 
Q 2428 4238 2131 4238 
Q 1616 4238 1336 4038 
Q 1056 3838 1056 3469 
Q 1056 3159 1242 3001 
Q 1428 2844 1947 2747 
L 2328 2669 
Q 3034 2534 3370 2195 
Q 3706 1856 3706 1288 
Q 3706 609 3251 259 
Q 2797 -91 1919 -91 
Q 1588 -91 1214 -16 
Q 841 59 441 206 
L 441 856 
Q 825 641 1194 531 
Q 1563 422 1919 422 
Q 2459 422 2753 634 
Q 3047 847 3047 1241 
Q 3047 1584 2836 1778 
Q 2625 1972 2144 2069 
L 1759 2144 
Q 1053 2284 737 2584 
Q 422 2884 422 3419 
Q 422 4038 858 4394 
Q 1294 4750 2059 4750 
Q 2388 4750 2728 4690 
Q 3069 4631 3425 4513 
z
" transform="scale(0.015625)"/>
       <path id="DejaVuSans-6c" d="M 603 4863 
L 1178 4863 
L 1178 0 
L 603 0 
L 603 4863 
z
" transform="scale(0.015625)"/>
       <path id="DejaVuSans-69" d="M 603 3500 
L 1178 3500 
L 1178 0 
L 603 0 
L 603 3500 
z
M 603 4863 
L 1178 4863 
L 1178 4134 
L 603 4134 
L 603 4863 
z
" transform="scale(0.015625)"/>
       <path id="DejaVuSans-70" d="M 1159 525 
L 1159 -1331 
L 581 -1331 
L 581 3500 
L 1159 3500 
L 1159 2969 
Q 1341 3281 1617 3432 
Q 1894 3584 2278 3584 
Q 2916 3584 3314 3078 
Q 3713 2572 3713 1747 
Q 3713 922 3314 415 
Q 2916 -91 2278 -91 
Q 1894 -91 1617 61 
Q 1341 213 1159 525 
z
M 3116 1747 
Q 3116 2381 2855 2742 
Q 2594 3103 2138 3103 
Q 1681 3103 1420 2742 
Q 1159 2381 1159 1747 
Q 1159 1113 1420 752 
Q 1681 391 2138 391 
Q 2594 391 2855 752 
Q 3116 1113 3116 1747 
z
" transform="scale(0.015625)"/>
       <path id="DejaVuSans-20" transform="scale(0.015625)"/>
       <path id="DejaVuSans-41" d="M 2188 4044 
L 1331 1722 
L 3047 1722 
L 2188 4044 
z
M 1831 4666 
L 2547 4666 
L 4325 0 
L 3669 0 
L 3244 1197 
L 1141 1197 
L 716 0 
L 50 0 
L 1831 4666 
z
" transform="scale(0.015625)"/>
       <path id="DejaVuSans-6e" d="M 3513 2113 
L 3513 0 
L 2938 0 
L 2938 2094 
Q 2938 2591 2744 2837 
Q 2550 3084 2163 3084 
Q 1697 3084 1428 2787 
Q 1159 2491 1159 1978 
L 1159 0 
L 581 0 
L 581 3500 
L 1159 3500 
L 1159 2956 
Q 1366 3272 1645 3428 
Q 1925 3584 2291 3584 
Q 2894 3584 3203 3211 
Q 3513 2838 3513 2113 
z
" transform="scale(0.015625)"/>
       <path id="DejaVuSans-67" d="M 2906 1791 
Q 2906 2416 2648 2759 
Q 2391 3103 1925 3103 
Q 1463 3103 1205 2759 
Q 947 2416 947 1791 
Q 947 1169 1205 825 
Q 1463 481 1925 481 
Q 2391 481 2648 825 
Q 2906 1169 2906 1791 
z
M 3481 434 
Q 3481 -459 3084 -895 
Q 2688 -1331 1869 -1331 
Q 1566 -1331 1297 -1286 
Q 1028 -1241 775 -1147 
L 775 -588 
Q 1028 -725 1275 -790 
Q 1522 -856 1778 -856 
Q 2344 -856 2625 -561 
Q 2906 -266 2906 331 
L 2906 616 
Q 2728 306 2450 153 
Q 2172 0 1784 0 
Q 1141 0 747 490 
Q 353 981 353 1791 
Q 353 2603 747 3093 
Q 1141 3584 1784 3584 
Q 2172 3584 2450 3431 
Q 2728 3278 2906 2969 
L 2906 3500 
L 3481 3500 
L 3481 434 
z
" transform="scale(0.015625)"/>
       <path id="DejaVuSans-65" d="M 3597 1894 
L 3597 1613 
L 953 1613 
Q 991 1019 1311 708 
Q 1631 397 2203 397 
Q 2534 397 2845 478 
Q 3156 559 3463 722 
L 3463 178 
Q 3153 47 2828 -22 
Q 2503 -91 2169 -91 
Q 1331 -91 842 396 
Q 353 884 353 1716 
Q 353 2575 817 3079 
Q 1281 3584 2069 3584 
Q 2775 3584 3186 3129 
Q 3597 2675 3597 1894 
z
M 3022 2063 
Q 3016 2534 2758 2815 
Q 2500 3097 2075 3097 
Q 1594 3097 1305 2825 
Q 1016 2553 972 2059 
L 3022 2063 
z
" transform="scale(0.015625)"/>
       <path id="DejaVuSans-28" d="M 1984 4856 
Q 1566 4138 1362 3434 
Q 1159 2731 1159 2009 
Q 1159 1288 1364 580 
Q 1569 -128 1984 -844 
L 1484 -844 
Q 1016 -109 783 600 
Q 550 1309 550 2009 
Q 550 2706 781 3412 
Q 1013 4119 1484 4856 
L 1984 4856 
z
" transform="scale(0.015625)"/>
       <path id="DejaVuSans-72" d="M 2631 2963 
Q 2534 3019 2420 3045 
Q 2306 3072 2169 3072 
Q 1681 3072 1420 2755 
Q 1159 2438 1159 1844 
L 1159 0 
L 581 0 
L 581 3500 
L 1159 3500 
L 1159 2956 
Q 1341 3275 1631 3429 
Q 1922 3584 2338 3584 
Q 2397 3584 2469 3576 
Q 2541 3569 2628 3553 
L 2631 2963 
z
" transform="scale(0.015625)"/>
       <path id="DejaVuSans-61" d="M 2194 1759 
Q 1497 1759 1228 1600 
Q 959 1441 959 1056 
Q 959 750 1161 570 
Q 1363 391 1709 391 
Q 2188 391 2477 730 
Q 2766 1069 2766 1631 
L 2766 1759 
L 2194 1759 
z
M 3341 1997 
L 3341 0 
L 2766 0 
L 2766 531 
Q 2569 213 2275 61 
Q 1981 -91 1556 -91 
Q 1019 -91 701 211 
Q 384 513 384 1019 
Q 384 1609 779 1909 
Q 1175 2209 1959 2209 
L 2766 2209 
L 2766 2266 
Q 2766 2663 2505 2880 
Q 2244 3097 1772 3097 
Q 1472 3097 1187 3025 
Q 903 2953 641 2809 
L 641 3341 
Q 956 3463 1253 3523 
Q 1550 3584 1831 3584 
Q 2591 3584 2966 3190 
Q 3341 2797 3341 1997 
z
" transform="scale(0.015625)"/>
       <path id="DejaVuSans-64" d="M 2906 2969 
L 2906 4863 
L 3481 4863 
L 3481 0 
L 2906 0 
L 2906 525 
Q 2725 213 2448 61 
Q 2172 -91 1784 -91 
Q 1150 -91 751 415 
Q 353 922 353 1747 
Q 353 2572 751 3078 
Q 1150 3584 1784 3584 
Q 2172 3584 2448 3432 
Q 2725 3281 2906 2969 
z
M 947 1747 
Q 947 1113 1208 752 
Q 1469 391 1925 391 
Q 2381 391 2643 752 
Q 2906 1113 2906 1747 
Q 2906 2381 2643 2742 
Q 2381 3103 1925 3103 
Q 1469 3103 1208 2742 
Q 947 2381 947 1747 
z
" transform="scale(0.015625)"/>
       <path id="DejaVuSans-29" d="M 513 4856 
L 1013 4856 
Q 1481 4119 1714 3412 
Q 1947 2706 1947 2009 
Q 1947 1309 1714 600 
Q 1481 -109 1013 -844 
L 513 -844 
Q 928 -128 1133 580 
Q 1338 1288 1338 2009 
Q 1338 2731 1133 3434 
Q 928 4138 513 4856 
z
" transform="scale(0.015625)"/>
      </defs>
      <use xlink:href="#DejaVuSans-53"/>
      <use xlink:href="#DejaVuSans-6c" x="63.476562"/>
      <use xlink:href="#DejaVuSans-69" x="91.259766"/>
      <use xlink:href="#DejaVuSans-70" x="119.042969"/>
      <use xlink:href="#DejaVuSans-20" x="182.519531"/>
      <use xlink:href="#DejaVuSans-41" x="214.306641"/>
      <use xlink:href="#DejaVuSans-6e" x="282.714844"/>
      <use xlink:href="#DejaVuSans-67" x="346.09375"/>
      <use xlink:href="#DejaVuSans-6c" x="409.570312"/>
      <use xlink:href="#DejaVuSans-65" x="437.353516"/>
      <use xlink:href="#DejaVuSans-20" x="498.876953"/>
      <use xlink:href="#DejaVuSans-28" x="530.664062"/>
      <use xlink:href="#DejaVuSans-72" x="569.677734"/>
      <use xlink:href="#DejaVuSans-61" x="610.791016"/>
      <use xlink:href="#DejaVuSans-64" x="672.070312"/>
      <use xlink:href="#DejaVuSans-29" x="735.546875"/>
     </g>
    </g>
   </g>
   <g id="matplotlib.axis_2">
    <g id="ytick_1">
     <g id="line2d_13">
      <path d="M 109.46 195.848367 
L 707.99345 195.848367 
" clip-path="url(#p79ee9f8482)" style="fill: none; stroke-dasharray: 1.85,0.8; stroke-dashoffset: 0; stroke: #b0b0b0; stroke-width: 0.5"/>
     </g>
     <g id="line2d_14">
      <defs>
       <path id="m334d4b73b2" d="M 0 0 
L -3.5 0 
" style="stroke: #000000; stroke-width: 0.8"/>
      </defs>
      <g>
       <use xlink:href="#m334d4b73b2" x="109.46" y="195.848367" style="stroke: #000000; stroke-width: 0.8"/>
      </g>
     </g>
     <g id="text_8">
      <!-- −0.2 -->
      <g transform="translate(39.324688 205.726336) scale(0.26 -0.26)">
       <use xlink:href="#DejaVuSans-2212"/>
       <use xlink:href="#DejaVuSans-30" x="83.789062"/>
       <use xlink:href="#DejaVuSans-2e" x="147.412109"/>
       <use xlink:href="#DejaVuSans-32" x="179.199219"/>
      </g>
     </g>
    </g>
    <g id="ytick_2">
     <g id="line2d_15">
      <path d="M 109.46 108.155739 
L 707.99345 108.155739 
" clip-path="url(#p79ee9f8482)" style="fill: none; stroke-dasharray: 1.85,0.8; stroke-dashoffset: 0; stroke: #b0b0b0; stroke-width: 0.5"/>
     </g>
     <g id="line2d_16">
      <g>
       <use xlink:href="#m334d4b73b2" x="109.46" y="108.155739" style="stroke: #000000; stroke-width: 0.8"/>
      </g>
     </g>
     <g id="text_9">
      <!-- 0.0 -->
      <g transform="translate(61.111875 118.033708) scale(0.26 -0.26)">
       <use xlink:href="#DejaVuSans-30"/>
       <use xlink:href="#DejaVuSans-2e" x="63.623047"/>
       <use xlink:href="#DejaVuSans-30" x="95.410156"/>
      </g>
     </g>
    </g>
    <g id="ytick_3">
     <g id="line2d_17">
      <path d="M 109.46 20.463112 
L 707.99345 20.463112 
" clip-path="url(#p79ee9f8482)" style="fill: none; stroke-dasharray: 1.85,0.8; stroke-dashoffset: 0; stroke: #b0b0b0; stroke-width: 0.5"/>
     </g>
     <g id="line2d_18">
      <g>
       <use xlink:href="#m334d4b73b2" x="109.46" y="20.463112" style="stroke: #000000; stroke-width: 0.8"/>
      </g>
     </g>
     <g id="text_10">
      <!-- 0.2 -->
      <g transform="translate(61.111875 30.34108) scale(0.26 -0.26)">
       <use xlink:href="#DejaVuSans-30"/>
       <use xlink:href="#DejaVuSans-2e" x="63.623047"/>
       <use xlink:href="#DejaVuSans-32" x="95.410156"/>
      </g>
     </g>
    </g>
    <g id="text_11">
     <!-- Force (N) -->
     <g transform="translate(29.9175 166.989494) rotate(-90) scale(0.26 -0.26)">
      <defs>
       <path id="DejaVuSans-46" d="M 628 4666 
L 3309 4666 
L 3309 4134 
L 1259 4134 
L 1259 2759 
L 3109 2759 
L 3109 2228 
L 1259 2228 
L 1259 0 
L 628 0 
L 628 4666 
z
" transform="scale(0.015625)"/>
       <path id="DejaVuSans-6f" d="M 1959 3097 
Q 1497 3097 1228 2736 
Q 959 2375 959 1747 
Q 959 1119 1226 758 
Q 1494 397 1959 397 
Q 2419 397 2687 759 
Q 2956 1122 2956 1747 
Q 2956 2369 2687 2733 
Q 2419 3097 1959 3097 
z
M 1959 3584 
Q 2709 3584 3137 3096 
Q 3566 2609 3566 1747 
Q 3566 888 3137 398 
Q 2709 -91 1959 -91 
Q 1206 -91 779 398 
Q 353 888 353 1747 
Q 353 2609 779 3096 
Q 1206 3584 1959 3584 
z
" transform="scale(0.015625)"/>
       <path id="DejaVuSans-63" d="M 3122 3366 
L 3122 2828 
Q 2878 2963 2633 3030 
Q 2388 3097 2138 3097 
Q 1578 3097 1268 2742 
Q 959 2388 959 1747 
Q 959 1106 1268 751 
Q 1578 397 2138 397 
Q 2388 397 2633 464 
Q 2878 531 3122 666 
L 3122 134 
Q 2881 22 2623 -34 
Q 2366 -91 2075 -91 
Q 1284 -91 818 406 
Q 353 903 353 1747 
Q 353 2603 823 3093 
Q 1294 3584 2113 3584 
Q 2378 3584 2631 3529 
Q 2884 3475 3122 3366 
z
" transform="scale(0.015625)"/>
       <path id="DejaVuSans-4e" d="M 628 4666 
L 1478 4666 
L 3547 763 
L 3547 4666 
L 4159 4666 
L 4159 0 
L 3309 0 
L 1241 3903 
L 1241 0 
L 628 0 
L 628 4666 
z
" transform="scale(0.015625)"/>
      </defs>
      <use xlink:href="#DejaVuSans-46"/>
      <use xlink:href="#DejaVuSans-6f" x="53.894531"/>
      <use xlink:href="#DejaVuSans-72" x="115.076172"/>
      <use xlink:href="#DejaVuSans-63" x="153.939453"/>
      <use xlink:href="#DejaVuSans-65" x="208.919922"/>
      <use xlink:href="#DejaVuSans-20" x="270.443359"/>
      <use xlink:href="#DejaVuSans-28" x="302.230469"/>
      <use xlink:href="#DejaVuSans-4e" x="341.244141"/>
      <use xlink:href="#DejaVuSans-29" x="416.048828"/>
     </g>
    </g>
   </g>
   <g id="line2d_19">
    <path d="M 108.966288 191.899846 
L 178.281697 190.379049 
L 224.756688 187.203355 
L 256.598552 182.506644 
L 273.94036 178.34531 
L 286.523131 174.277066 
L 292.457637 171.979099 
L 298.301455 169.44482 
L 303.110152 167.140071 
L 309.108542 163.966236 
L 314.359755 160.898285 
L 319.38268 157.697996 
L 324.370633 154.254279 
L 329.58033 150.369836 
L 334.65495 146.303856 
L 339.985009 141.740405 
L 345.552054 136.670645 
L 351.376265 131.065554 
L 357.833594 124.545952 
L 366.084982 115.872783 
L 391.735522 88.642899 
L 397.990246 82.444632 
L 404.044706 76.756087 
L 409.332108 72.074389 
L 414.724438 67.59659 
L 419.509795 63.88365 
L 424.693178 60.142201 
L 429.785332 56.748324 
L 434.870096 53.63119 
L 439.564976 50.985306 
L 445.666032 47.862824 
L 450.906801 45.447778 
L 455.29322 43.60292 
L 462.247313 40.980916 
L 468.785103 38.822599 
L 474.804566 37.069575 
L 482.108747 35.208896 
L 484.982299 34.549014 
L 491.842301 33.120873 
L 500.348211 31.605308 
L 509.537948 30.23683 
L 520.381447 28.917723 
L 529.72751 27.99066 
L 538.408534 27.272308 
L 551.747312 26.385382 
L 571.811876 25.426701 
L 586.148211 24.943874 
L 613.82816 24.334013 
L 641.398909 24.003888 
L 675.481876 23.821359 
L 708.056301 23.782486 
L 708.056301 23.782486 
" clip-path="url(#p79ee9f8482)" style="fill: none; stroke: #ff0000; stroke-width: 3; stroke-linecap: square"/>
   </g>
   <g id="line2d_20">
    <path d="M 108.946923 191.773808 
L 178.262331 190.29915 
L 224.737323 187.130332 
L 256.579187 182.423765 
L 273.920995 178.255754 
L 286.503766 174.185094 
L 292.438272 171.887398 
L 298.28209 169.35456 
L 303.090787 167.051987 
L 309.089177 163.882204 
L 314.34039 160.819022 
L 319.363314 157.624287 
L 324.351268 154.186898 
L 329.560965 150.309691 
L 334.635584 146.251072 
L 339.965644 141.69531 
L 345.532689 136.633114 
L 351.3569 131.035009 
L 357.814229 124.521717 
L 366.065616 115.854385 
L 373.178273 108.215845 
L 373.442002 108.155739 
L 373.785571 107.561347 
L 386.710242 93.787402 
L 393.748375 86.59302 
L 400.512438 80.018276 
L 406.067511 74.922066 
L 411.917101 69.886717 
L 417.405976 65.489517 
L 421.886881 62.141024 
L 427.490046 58.259254 
L 432.621562 54.996706 
L 437.641941 52.066332 
L 443.354552 49.03162 
L 448.208544 46.689414 
L 453.529051 44.354784 
L 458.499021 42.378103 
L 464.489716 40.235824 
L 468.765738 38.854135 
L 474.785201 37.097994 
L 482.089382 35.233149 
L 484.962934 34.571584 
L 491.822936 33.139478 
L 500.328846 31.619355 
L 509.518583 30.246727 
L 520.362082 28.924078 
L 529.708145 27.995283 
L 538.389168 27.276451 
L 551.727947 26.390837 
L 569.88811 25.512865 
L 586.128846 24.962447 
L 613.808795 24.370468 
L 641.379544 24.061957 
L 675.462511 23.908739 
L 708.036936 23.898669 
L 708.036936 23.898669 
" clip-path="url(#p79ee9f8482)" style="fill: none; stroke-dasharray: 11.1,4.8; stroke-dashoffset: 0; stroke: #0000ff; stroke-width: 3"/>
   </g>
   <g id="line2d_21">
    <path d="M 108.736725 192.967955 
L 178.052134 190.717528 
L 224.527125 187.382759 
L 256.368989 182.924967 
L 273.710798 179.021315 
L 286.293568 175.157881 
L 292.228074 172.946689 
L 298.071893 170.483065 
L 302.880589 168.220731 
L 308.370567 165.355678 
L 313.232445 162.550278 
L 317.962545 159.567009 
L 323.018106 156.093319 
L 328.032962 152.354009 
L 332.909774 148.441699 
L 338.118057 143.976483 
L 343.687402 138.899936 
L 349.700378 133.113147 
L 356.779861 125.972226 
L 365.855419 116.463254 
L 373.41626 108.389102 
L 373.442002 108.155739 
L 373.519083 108.279005 
L 388.24244 92.675141 
L 395.865445 84.915424 
L 402.509292 78.469494 
L 408.358749 73.107585 
L 413.282515 68.857732 
L 418.552054 64.601181 
L 423.664404 60.774371 
L 428.552868 57.399304 
L 433.411239 54.318249 
L 438.654789 51.289682 
L 443.672223 48.666448 
L 449.131461 46.097518 
L 454.627181 43.787788 
L 459.998915 41.773373 
L 465.104426 40.059593 
L 471.541794 38.146669 
L 479.092872 36.209348 
L 484.752736 34.944171 
L 491.612738 33.594509 
L 500.118648 32.158588 
L 509.308385 30.851518 
L 520.151885 29.571369 
L 529.497947 28.650398 
L 538.178971 27.917178 
L 551.517749 26.974358 
L 572.046635 25.850979 
L 585.918649 25.257199 
L 613.598598 24.347722 
L 641.169346 23.692518 
L 675.252314 23.103793 
L 707.826738 22.690719 
L 707.826738 22.690719 
" clip-path="url(#p79ee9f8482)" style="fill: none; stroke-dasharray: 19.2,4.8,3,4.8; stroke-dashoffset: 0; stroke: #000000; stroke-width: 3"/>
   </g>
   <g id="patch_3">
    <path d="M 109.46 201.481817 
L 109.46 14.176858 
" style="fill: none; stroke: #000000; stroke-width: 0.8; stroke-linejoin: miter; stroke-linecap: square"/>
   </g>
   <g id="patch_4">
    <path d="M 707.99345 201.481817 
L 707.99345 14.176858 
" style="fill: none; stroke: #000000; stroke-width: 0.8; stroke-linejoin: miter; stroke-linecap: square"/>
   </g>
   <g id="patch_5">
    <path d="M 109.46 201.481817 
L 707.99345 201.481817 
" style="fill: none; stroke: #000000; stroke-width: 0.8; stroke-linejoin: miter; stroke-linecap: square"/>
   </g>
   <g id="patch_6">
    <path d="M 109.46 14.176858 
L 707.99345 14.176858 
" style="fill: none; stroke: #000000; stroke-width: 0.8; stroke-linejoin: miter; stroke-linecap: square"/>
   </g>
   <g id="legend_1">
    <g id="patch_7">
     <path d="M 124.86 108.986545 
L 253.78 108.986545 
Q 258.18 108.986545 258.18 104.586545 
L 258.18 29.576858 
Q 258.18 25.176858 253.78 25.176858 
L 124.86 25.176858 
Q 120.46 25.176858 120.46 29.576858 
L 120.46 104.586545 
Q 120.46 108.986545 124.86 108.986545 
z
" style="fill: #ffffff; opacity: 0.8; stroke: #cccccc; stroke-linejoin: miter"/>
    </g>
    <g id="line2d_22">
     <path d="M 122.66 36.39342 
L 138.06 36.39342 
L 153.46 36.39342 
" style="fill: none; stroke: #ff0000; stroke-width: 3; stroke-linecap: square"/>
    </g>
    <g id="text_12">
     <!-- GT $F_{fy}$ -->
     <g transform="translate(161.6 44.09342) scale(0.22 -0.22)">
      <defs>
       <path id="DejaVuSans-47" d="M 3809 666 
L 3809 1919 
L 2778 1919 
L 2778 2438 
L 4434 2438 
L 4434 434 
Q 4069 175 3628 42 
Q 3188 -91 2688 -91 
Q 1594 -91 976 548 
Q 359 1188 359 2328 
Q 359 3472 976 4111 
Q 1594 4750 2688 4750 
Q 3144 4750 3555 4637 
Q 3966 4525 4313 4306 
L 4313 3634 
Q 3963 3931 3569 4081 
Q 3175 4231 2741 4231 
Q 1884 4231 1454 3753 
Q 1025 3275 1025 2328 
Q 1025 1384 1454 906 
Q 1884 428 2741 428 
Q 3075 428 3337 486 
Q 3600 544 3809 666 
z
" transform="scale(0.015625)"/>
       <path id="DejaVuSans-54" d="M -19 4666 
L 3928 4666 
L 3928 4134 
L 2272 4134 
L 2272 0 
L 1638 0 
L 1638 4134 
L -19 4134 
L -19 4666 
z
" transform="scale(0.015625)"/>
       <path id="DejaVuSans-Oblique-46" d="M 1081 4666 
L 3756 4666 
L 3653 4134 
L 1606 4134 
L 1338 2759 
L 3188 2759 
L 3084 2228 
L 1234 2228 
L 800 0 
L 172 0 
L 1081 4666 
z
" transform="scale(0.015625)"/>
       <path id="DejaVuSans-Oblique-66" d="M 3059 4863 
L 2969 4384 
L 2419 4384 
Q 2106 4384 1964 4261 
Q 1822 4138 1753 3809 
L 1691 3500 
L 2638 3500 
L 2553 3053 
L 1606 3053 
L 1013 0 
L 434 0 
L 1031 3053 
L 481 3053 
L 563 3500 
L 1113 3500 
L 1159 3744 
Q 1278 4363 1576 4613 
Q 1875 4863 2516 4863 
L 3059 4863 
z
" transform="scale(0.015625)"/>
       <path id="DejaVuSans-Oblique-79" d="M 1588 -325 
Q 1188 -997 936 -1164 
Q 684 -1331 294 -1331 
L -159 -1331 
L -63 -850 
L 269 -850 
Q 509 -850 678 -719 
Q 847 -588 1056 -206 
L 1234 128 
L 459 3500 
L 1069 3500 
L 1650 819 
L 3256 3500 
L 3859 3500 
L 1588 -325 
z
" transform="scale(0.015625)"/>
      </defs>
      <use xlink:href="#DejaVuSans-47" transform="translate(0 0.78125)"/>
      <use xlink:href="#DejaVuSans-54" transform="translate(77.490234 0.78125)"/>
      <use xlink:href="#DejaVuSans-20" transform="translate(138.574219 0.78125)"/>
      <use xlink:href="#DejaVuSans-Oblique-46" transform="translate(170.361328 0.78125)"/>
      <use xlink:href="#DejaVuSans-Oblique-66" transform="translate(227.880859 -15.625) scale(0.7)"/>
      <use xlink:href="#DejaVuSans-Oblique-79" transform="translate(252.524414 -15.625) scale(0.7)"/>
     </g>
    </g>
    <g id="line2d_23">
     <path d="M 122.66 64.329983 
L 138.06 64.329983 
L 153.46 64.329983 
" style="fill: none; stroke-dasharray: 11.1,4.8; stroke-dashoffset: 0; stroke: #0000ff; stroke-width: 3"/>
    </g>
    <g id="text_13">
     <!-- FTHD $F_{fy}$ -->
     <g transform="translate(161.6 72.029983) scale(0.22 -0.22)">
      <defs>
       <path id="DejaVuSans-48" d="M 628 4666 
L 1259 4666 
L 1259 2753 
L 3553 2753 
L 3553 4666 
L 4184 4666 
L 4184 0 
L 3553 0 
L 3553 2222 
L 1259 2222 
L 1259 0 
L 628 0 
L 628 4666 
z
" transform="scale(0.015625)"/>
       <path id="DejaVuSans-44" d="M 1259 4147 
L 1259 519 
L 2022 519 
Q 2988 519 3436 956 
Q 3884 1394 3884 2338 
Q 3884 3275 3436 3711 
Q 2988 4147 2022 4147 
L 1259 4147 
z
M 628 4666 
L 1925 4666 
Q 3281 4666 3915 4102 
Q 4550 3538 4550 2338 
Q 4550 1131 3912 565 
Q 3275 0 1925 0 
L 628 0 
L 628 4666 
z
" transform="scale(0.015625)"/>
      </defs>
      <use xlink:href="#DejaVuSans-46" transform="translate(0 0.09375)"/>
      <use xlink:href="#DejaVuSans-54" transform="translate(57.519531 0.09375)"/>
      <use xlink:href="#DejaVuSans-48" transform="translate(118.603516 0.09375)"/>
      <use xlink:href="#DejaVuSans-44" transform="translate(193.798828 0.09375)"/>
      <use xlink:href="#DejaVuSans-20" transform="translate(270.800781 0.09375)"/>
      <use xlink:href="#DejaVuSans-Oblique-46" transform="translate(302.587891 0.09375)"/>
      <use xlink:href="#DejaVuSans-Oblique-66" transform="translate(360.107422 -16.3125) scale(0.7)"/>
      <use xlink:href="#DejaVuSans-Oblique-79" transform="translate(384.750977 -16.3125) scale(0.7)"/>
     </g>
    </g>
    <g id="line2d_24">
     <path d="M 122.66 92.266545 
L 138.06 92.266545 
L 153.46 92.266545 
" style="fill: none; stroke-dasharray: 19.2,4.8,3,4.8; stroke-dashoffset: 0; stroke: #000000; stroke-width: 3"/>
    </g>
    <g id="text_14">
     <!-- DDM $F_{fy}$ -->
     <g transform="translate(161.6 99.966545) scale(0.22 -0.22)">
      <defs>
       <path id="DejaVuSans-4d" d="M 628 4666 
L 1569 4666 
L 2759 1491 
L 3956 4666 
L 4897 4666 
L 4897 0 
L 4281 0 
L 4281 4097 
L 3078 897 
L 2444 897 
L 1241 4097 
L 1241 0 
L 628 0 
L 628 4666 
z
" transform="scale(0.015625)"/>
      </defs>
      <use xlink:href="#DejaVuSans-44" transform="translate(0 0.09375)"/>
      <use xlink:href="#DejaVuSans-44" transform="translate(77.001953 0.09375)"/>
      <use xlink:href="#DejaVuSans-4d" transform="translate(154.003906 0.09375)"/>
      <use xlink:href="#DejaVuSans-20" transform="translate(240.283203 0.09375)"/>
      <use xlink:href="#DejaVuSans-Oblique-46" transform="translate(272.070312 0.09375)"/>
      <use xlink:href="#DejaVuSans-Oblique-66" transform="translate(329.589844 -16.3125) scale(0.7)"/>
      <use xlink:href="#DejaVuSans-Oblique-79" transform="translate(354.233398 -16.3125) scale(0.7)"/>
     </g>
    </g>
   </g>
  </g>
  <g id="axes_2">
   <g id="patch_8">
    <path d="M 109.46 469.24 
L 707.99345 469.24 
L 707.99345 281.93504 
L 109.46 281.93504 
L 109.46 469.24 
z
" style="fill: none"/>
   </g>
   <g id="matplotlib.axis_3">
    <g id="xtick_7">
     <g id="line2d_25">
      <path d="M 130.234683 469.24 
L 130.234683 281.93504 
" clip-path="url(#p91ebaa283d)" style="fill: none; stroke-dasharray: 1.85,0.8; stroke-dashoffset: 0; stroke: #b0b0b0; stroke-width: 0.5"/>
     </g>
     <g id="line2d_26">
      <g>
       <use xlink:href="#mcf43ac470e" x="130.234683" y="469.24" style="stroke: #000000; stroke-width: 0.8"/>
      </g>
     </g>
     <g id="text_15">
      <!-- −0.2 -->
      <g transform="translate(98.667027 495.995937) scale(0.26 -0.26)">
       <use xlink:href="#DejaVuSans-2212"/>
       <use xlink:href="#DejaVuSans-30" x="83.789062"/>
       <use xlink:href="#DejaVuSans-2e" x="147.412109"/>
       <use xlink:href="#DejaVuSans-32" x="179.199219"/>
      </g>
     </g>
    </g>
    <g id="xtick_8">
     <g id="line2d_27">
      <path d="M 278.625274 469.24 
L 278.625274 281.93504 
" clip-path="url(#p91ebaa283d)" style="fill: none; stroke-dasharray: 1.85,0.8; stroke-dashoffset: 0; stroke: #b0b0b0; stroke-width: 0.5"/>
     </g>
     <g id="line2d_28">
      <g>
       <use xlink:href="#mcf43ac470e" x="278.625274" y="469.24" style="stroke: #000000; stroke-width: 0.8"/>
      </g>
     </g>
     <g id="text_16">
      <!-- 0.0 -->
      <g transform="translate(257.951212 495.995937) scale(0.26 -0.26)">
       <use xlink:href="#DejaVuSans-30"/>
       <use xlink:href="#DejaVuSans-2e" x="63.623047"/>
       <use xlink:href="#DejaVuSans-30" x="95.410156"/>
      </g>
     </g>
    </g>
    <g id="xtick_9">
     <g id="line2d_29">
      <path d="M 427.015865 469.24 
L 427.015865 281.93504 
" clip-path="url(#p91ebaa283d)" style="fill: none; stroke-dasharray: 1.85,0.8; stroke-dashoffset: 0; stroke: #b0b0b0; stroke-width: 0.5"/>
     </g>
     <g id="line2d_30">
      <g>
       <use xlink:href="#mcf43ac470e" x="427.015865" y="469.24" style="stroke: #000000; stroke-width: 0.8"/>
      </g>
     </g>
     <g id="text_17">
      <!-- 0.2 -->
      <g transform="translate(406.341803 495.995937) scale(0.26 -0.26)">
       <use xlink:href="#DejaVuSans-30"/>
       <use xlink:href="#DejaVuSans-2e" x="63.623047"/>
       <use xlink:href="#DejaVuSans-32" x="95.410156"/>
      </g>
     </g>
    </g>
    <g id="xtick_10">
     <g id="line2d_31">
      <path d="M 575.406457 469.24 
L 575.406457 281.93504 
" clip-path="url(#p91ebaa283d)" style="fill: none; stroke-dasharray: 1.85,0.8; stroke-dashoffset: 0; stroke: #b0b0b0; stroke-width: 0.5"/>
     </g>
     <g id="line2d_32">
      <g>
       <use xlink:href="#mcf43ac470e" x="575.406457" y="469.24" style="stroke: #000000; stroke-width: 0.8"/>
      </g>
     </g>
     <g id="text_18">
      <!-- 0.4 -->
      <g transform="translate(554.732394 495.995937) scale(0.26 -0.26)">
       <use xlink:href="#DejaVuSans-30"/>
       <use xlink:href="#DejaVuSans-2e" x="63.623047"/>
       <use xlink:href="#DejaVuSans-34" x="95.410156"/>
      </g>
     </g>
    </g>
    <g id="text_19">
     <!-- Slip Angle (rad) -->
     <g transform="translate(308.031569 525.159063) scale(0.26 -0.26)">
      <use xlink:href="#DejaVuSans-53"/>
      <use xlink:href="#DejaVuSans-6c" x="63.476562"/>
      <use xlink:href="#DejaVuSans-69" x="91.259766"/>
      <use xlink:href="#DejaVuSans-70" x="119.042969"/>
      <use xlink:href="#DejaVuSans-20" x="182.519531"/>
      <use xlink:href="#DejaVuSans-41" x="214.306641"/>
      <use xlink:href="#DejaVuSans-6e" x="282.714844"/>
      <use xlink:href="#DejaVuSans-67" x="346.09375"/>
      <use xlink:href="#DejaVuSans-6c" x="409.570312"/>
      <use xlink:href="#DejaVuSans-65" x="437.353516"/>
      <use xlink:href="#DejaVuSans-20" x="498.876953"/>
      <use xlink:href="#DejaVuSans-28" x="530.664062"/>
      <use xlink:href="#DejaVuSans-72" x="569.677734"/>
      <use xlink:href="#DejaVuSans-61" x="610.791016"/>
      <use xlink:href="#DejaVuSans-64" x="672.070312"/>
      <use xlink:href="#DejaVuSans-29" x="735.546875"/>
     </g>
    </g>
   </g>
   <g id="matplotlib.axis_4">
    <g id="ytick_4">
     <g id="line2d_33">
      <path d="M 109.46 381.671279 
L 707.99345 381.671279 
" clip-path="url(#p91ebaa283d)" style="fill: none; stroke-dasharray: 1.85,0.8; stroke-dashoffset: 0; stroke: #b0b0b0; stroke-width: 0.5"/>
     </g>
     <g id="line2d_34">
      <g>
       <use xlink:href="#m334d4b73b2" x="109.46" y="381.671279" style="stroke: #000000; stroke-width: 0.8"/>
      </g>
     </g>
     <g id="text_20">
      <!-- 0.0 -->
      <g transform="translate(61.111875 391.549248) scale(0.26 -0.26)">
       <use xlink:href="#DejaVuSans-30"/>
       <use xlink:href="#DejaVuSans-2e" x="63.623047"/>
       <use xlink:href="#DejaVuSans-30" x="95.410156"/>
      </g>
     </g>
    </g>
    <g id="ytick_5">
     <g id="line2d_35">
      <path d="M 109.46 281.961577 
L 707.99345 281.961577 
" clip-path="url(#p91ebaa283d)" style="fill: none; stroke-dasharray: 1.85,0.8; stroke-dashoffset: 0; stroke: #b0b0b0; stroke-width: 0.5"/>
     </g>
     <g id="line2d_36">
      <g>
       <use xlink:href="#m334d4b73b2" x="109.46" y="281.961577" style="stroke: #000000; stroke-width: 0.8"/>
      </g>
     </g>
     <g id="text_21">
      <!-- 0.2 -->
      <g transform="translate(61.111875 291.839546) scale(0.26 -0.26)">
       <use xlink:href="#DejaVuSans-30"/>
       <use xlink:href="#DejaVuSans-2e" x="63.623047"/>
       <use xlink:href="#DejaVuSans-32" x="95.410156"/>
      </g>
     </g>
    </g>
    <g id="text_22">
     <!-- Force (N) -->
     <g transform="translate(51.704688 434.747676) rotate(-90) scale(0.26 -0.26)">
      <use xlink:href="#DejaVuSans-46"/>
      <use xlink:href="#DejaVuSans-6f" x="53.894531"/>
      <use xlink:href="#DejaVuSans-72" x="115.076172"/>
      <use xlink:href="#DejaVuSans-63" x="153.939453"/>
      <use xlink:href="#DejaVuSans-65" x="208.919922"/>
      <use xlink:href="#DejaVuSans-20" x="270.443359"/>
      <use xlink:href="#DejaVuSans-28" x="302.230469"/>
      <use xlink:href="#DejaVuSans-4e" x="341.244141"/>
      <use xlink:href="#DejaVuSans-29" x="416.048828"/>
     </g>
    </g>
   </g>
   <g id="line2d_37">
    <path d="M 106.206782 459.947346 
L 136.911157 454.886012 
L 149.783044 451.988171 
L 168.057144 446.851384 
L 175.450937 444.377876 
L 184.862419 440.85889 
L 191.579285 438.075992 
L 198.454311 434.980243 
L 205.083186 431.749486 
L 211.866657 428.187223 
L 218.646956 424.365008 
L 225.372964 420.316696 
L 232.322982 415.872253 
L 239.362453 411.114023 
L 247.137937 405.584429 
L 254.955209 399.774522 
L 265.544766 391.596056 
L 278.534045 381.290372 
L 278.625274 381.671279 
L 278.946603 380.961283 
L 296.18512 367.344216 
L 306.077556 359.821285 
L 314.788356 353.492979 
L 322.203561 348.374588 
L 329.430734 343.653501 
L 336.489079 339.315555 
L 343.386208 335.346925 
L 349.563748 332.022098 
L 356.608373 328.494222 
L 363.106897 325.484096 
L 369.986203 322.544698 
L 377.293387 319.688553 
L 382.370982 317.857329 
L 391.284321 314.928026 
L 399.384711 312.558444 
L 409.113812 310.045845 
L 416.974035 308.255681 
L 424.443408 306.733141 
L 436.291599 304.63488 
L 449.508838 302.689875 
L 459.923729 301.406153 
L 471.546243 300.192419 
L 483.257794 299.167858 
L 500.400646 297.963788 
L 519.106027 296.968888 
L 707.300728 294.664569 
L 707.300728 294.664569 
" clip-path="url(#p91ebaa283d)" style="fill: none; stroke: #ff0000; stroke-width: 3; stroke-linecap: square"/>
   </g>
   <g id="line2d_38">
    <path d="M 106.163026 459.798591 
L 136.867401 454.739588 
L 149.739288 451.850883 
L 168.013388 446.732319 
L 175.407181 444.267029 
L 184.818663 440.758482 
L 191.53553 437.982719 
L 198.410556 434.893806 
L 205.03943 431.669094 
L 211.822901 428.112442 
L 218.603201 424.295317 
L 225.329208 420.251683 
L 232.279226 415.811896 
L 239.318698 411.058446 
L 247.094181 405.534489 
L 254.911453 399.730832 
L 265.50101 391.561794 
L 278.490289 381.268375 
L 278.625274 381.671279 
L 278.902847 380.93967 
L 296.141364 367.336789 
L 306.0338 359.819581 
L 314.7446 353.494717 
L 322.159805 348.378342 
L 329.386978 343.658763 
L 336.445323 339.322218 
L 343.342452 335.355204 
L 349.519993 332.032233 
L 356.564617 328.507094 
L 363.063141 325.50013 
L 369.942447 322.564709 
L 377.249631 319.713362 
L 382.327227 317.885702 
L 391.240565 314.9628 
L 399.340955 312.598794 
L 409.070056 310.091982 
L 416.930279 308.305338 
L 424.399652 306.784892 
L 436.247843 304.686952 
L 449.465082 302.737396 
L 459.879973 301.446207 
L 471.502488 300.220081 
L 483.214038 299.178848 
L 500.356891 297.943387 
L 519.062272 296.905976 
L 707.256972 293.991383 
L 707.256972 293.991383 
" clip-path="url(#p91ebaa283d)" style="fill: none; stroke-dasharray: 11.1,4.8; stroke-dashoffset: 0; stroke: #0000ff; stroke-width: 3"/>
   </g>
   <g id="line2d_39">
    <path d="M 105.94557 460.726138 
L 136.649946 455.53555 
L 149.521833 452.632636 
L 167.795933 447.517261 
L 175.189725 445.054214 
L 184.601208 441.543151 
L 191.318074 438.759229 
L 197.805639 435.836784 
L 204.512424 432.564853 
L 210.705608 429.311978 
L 216.654008 425.977254 
L 223.744247 421.736865 
L 230.748928 417.274799 
L 237.358256 412.832409 
L 245.640093 406.98107 
L 254.041398 400.772325 
L 264.428666 392.811354 
L 280.627684 380.06861 
L 297.737218 366.691435 
L 307.685104 359.191297 
L 316.320958 352.956424 
L 323.920093 347.7366 
L 331.203389 343.002938 
L 337.887394 338.911283 
L 344.590697 335.062887 
L 350.670977 331.798016 
L 357.377481 328.446281 
L 364.330571 325.242629 
L 370.78239 322.508612 
L 377.373259 319.941652 
L 385.540548 317.057729 
L 392.559926 314.822164 
L 399.123499 312.918062 
L 408.852601 310.394908 
L 416.712824 308.589815 
L 424.182196 307.045595 
L 436.030388 304.894792 
L 449.874429 302.774067 
L 465.580883 300.782253 
L 477.679395 299.490438 
L 494.791582 297.950811 
L 500.139435 297.527858 
L 518.844816 296.227576 
L 707.039517 290.448902 
L 707.039517 290.448902 
" clip-path="url(#p91ebaa283d)" style="fill: none; stroke-dasharray: 19.2,4.8,3,4.8; stroke-dashoffset: 0; stroke: #000000; stroke-width: 3"/>
   </g>
   <g id="patch_9">
    <path d="M 109.46 469.24 
L 109.46 281.93504 
" style="fill: none; stroke: #000000; stroke-width: 0.8; stroke-linejoin: miter; stroke-linecap: square"/>
   </g>
   <g id="patch_10">
    <path d="M 707.99345 469.24 
L 707.99345 281.93504 
" style="fill: none; stroke: #000000; stroke-width: 0.8; stroke-linejoin: miter; stroke-linecap: square"/>
   </g>
   <g id="patch_11">
    <path d="M 109.46 469.24 
L 707.99345 469.24 
" style="fill: none; stroke: #000000; stroke-width: 0.8; stroke-linejoin: miter; stroke-linecap: square"/>
   </g>
   <g id="patch_12">
    <path d="M 109.46 281.93504 
L 707.99345 281.93504 
" style="fill: none; stroke: #000000; stroke-width: 0.8; stroke-linejoin: miter; stroke-linecap: square"/>
   </g>
   <g id="legend_2">
    <g id="patch_13">
     <path d="M 124.86 376.744728 
L 254.88 376.744728 
Q 259.28 376.744728 259.28 372.344728 
L 259.28 297.33504 
Q 259.28 292.93504 254.88 292.93504 
L 124.86 292.93504 
Q 120.46 292.93504 120.46 297.33504 
L 120.46 372.344728 
Q 120.46 376.744728 124.86 376.744728 
z
" style="fill: #ffffff; opacity: 0.8; stroke: #cccccc; stroke-linejoin: miter"/>
    </g>
    <g id="line2d_40">
     <path d="M 122.66 304.151603 
L 138.06 304.151603 
L 153.46 304.151603 
" style="fill: none; stroke: #ff0000; stroke-width: 3; stroke-linecap: square"/>
    </g>
    <g id="text_23">
     <!-- GT $F_{ry}$ -->
     <g transform="translate(161.6 311.851603) scale(0.22 -0.22)">
      <defs>
       <path id="DejaVuSans-Oblique-72" d="M 2853 2969 
Q 2766 3016 2653 3041 
Q 2541 3066 2413 3066 
Q 1953 3066 1609 2717 
Q 1266 2369 1153 1784 
L 800 0 
L 225 0 
L 909 3500 
L 1484 3500 
L 1375 2956 
Q 1603 3259 1920 3421 
Q 2238 3584 2597 3584 
Q 2691 3584 2781 3573 
Q 2872 3563 2963 3538 
L 2853 2969 
z
" transform="scale(0.015625)"/>
      </defs>
      <use xlink:href="#DejaVuSans-47" transform="translate(0 0.78125)"/>
      <use xlink:href="#DejaVuSans-54" transform="translate(77.490234 0.78125)"/>
      <use xlink:href="#DejaVuSans-20" transform="translate(138.574219 0.78125)"/>
      <use xlink:href="#DejaVuSans-Oblique-46" transform="translate(170.361328 0.78125)"/>
      <use xlink:href="#DejaVuSans-Oblique-72" transform="translate(227.880859 -15.625) scale(0.7)"/>
      <use xlink:href="#DejaVuSans-Oblique-79" transform="translate(256.660156 -15.625) scale(0.7)"/>
     </g>
    </g>
    <g id="line2d_41">
     <path d="M 122.66 332.088165 
L 138.06 332.088165 
L 153.46 332.088165 
" style="fill: none; stroke-dasharray: 11.1,4.8; stroke-dashoffset: 0; stroke: #0000ff; stroke-width: 3"/>
    </g>
    <g id="text_24">
     <!-- FTHD $F_{ry}$ -->
     <g transform="translate(161.6 339.788165) scale(0.22 -0.22)">
      <use xlink:href="#DejaVuSans-46" transform="translate(0 0.09375)"/>
      <use xlink:href="#DejaVuSans-54" transform="translate(57.519531 0.09375)"/>
      <use xlink:href="#DejaVuSans-48" transform="translate(118.603516 0.09375)"/>
      <use xlink:href="#DejaVuSans-44" transform="translate(193.798828 0.09375)"/>
      <use xlink:href="#DejaVuSans-20" transform="translate(270.800781 0.09375)"/>
      <use xlink:href="#DejaVuSans-Oblique-46" transform="translate(302.587891 0.09375)"/>
      <use xlink:href="#DejaVuSans-Oblique-72" transform="translate(360.107422 -16.3125) scale(0.7)"/>
      <use xlink:href="#DejaVuSans-Oblique-79" transform="translate(388.886719 -16.3125) scale(0.7)"/>
     </g>
    </g>
    <g id="line2d_42">
     <path d="M 122.66 360.024728 
L 138.06 360.024728 
L 153.46 360.024728 
" style="fill: none; stroke-dasharray: 19.2,4.8,3,4.8; stroke-dashoffset: 0; stroke: #000000; stroke-width: 3"/>
    </g>
    <g id="text_25">
     <!-- DDM $F_{ry}$ -->
     <g transform="translate(161.6 367.724728) scale(0.22 -0.22)">
      <use xlink:href="#DejaVuSans-44" transform="translate(0 0.09375)"/>
      <use xlink:href="#DejaVuSans-44" transform="translate(77.001953 0.09375)"/>
      <use xlink:href="#DejaVuSans-4d" transform="translate(154.003906 0.09375)"/>
      <use xlink:href="#DejaVuSans-20" transform="translate(240.283203 0.09375)"/>
      <use xlink:href="#DejaVuSans-Oblique-46" transform="translate(272.070312 0.09375)"/>
      <use xlink:href="#DejaVuSans-Oblique-72" transform="translate(329.589844 -16.3125) scale(0.7)"/>
      <use xlink:href="#DejaVuSans-Oblique-79" transform="translate(358.369141 -16.3125) scale(0.7)"/>
     </g>
    </g>
   </g>
  </g>
 </g>
 <defs>
  <clipPath id="p79ee9f8482">
   <rect x="109.46" y="14.176858" width="598.53345" height="187.30496"/>
  </clipPath>
  <clipPath id="p91ebaa283d">
   <rect x="109.46" y="281.93504" width="598.53345" height="187.30496"/>
  </clipPath>
 </defs>
</svg>
