<?xml version="1.0" encoding="utf-8" standalone="no"?>
<!DOCTYPE svg PUBLIC "-//W3C//DTD SVG 1.1//EN"
  "http://www.w3.org/Graphics/SVG/1.1/DTD/svg11.dtd">
<svg xmlns:xlink="http://www.w3.org/1999/xlink" width="720pt" height="540pt" viewBox="0 0 720 540" xmlns="http://www.w3.org/2000/svg" version="1.1">
 <metadata>
  <rdf:RDF xmlns:dc="http://purl.org/dc/elements/1.1/" xmlns:cc="http://creativecommons.org/ns#" xmlns:rdf="http://www.w3.org/1999/02/22-rdf-syntax-ns#">
   <cc:Work>
    <dc:type rdf:resource="http://purl.org/dc/dcmitype/StillImage"/>
    <dc:date>2024-04-19T14:06:08.691594</dc:date>
    <dc:format>image/svg+xml</dc:format>
    <dc:creator>
     <cc:Agent>
      <dc:title>Matplotlib v3.8.4, https://matplotlib.org/</dc:title>
     </cc:Agent>
    </dc:creator>
   </cc:Work>
  </rdf:RDF>
 </metadata>
 <defs>
  <style type="text/css">*{stroke-linejoin: round; stroke-linecap: butt}</style>
 </defs>
 <g id="figure_1">
  <g id="patch_1">
   <path d="M 0 540 
L 720 540 
L 720 0 
L 0 0 
L 0 540 
z
" style="fill: none"/>
  </g>
  <g id="axes_1">
   <g id="patch_2">
    <path d="M 109.46 202.165461 
L 707.99345 202.165461 
L 707.99345 14.987172 
L 109.46 14.987172 
L 109.46 202.165461 
z
" style="fill: none"/>
   </g>
   <g id="matplotlib.axis_1">
    <g id="xtick_1">
     <g id="line2d_1">
      <path d="M 164.347347 202.165461 
L 164.347347 14.987172 
" clip-path="url(#pe9bf49f08c)" style="fill: none; stroke-dasharray: 1.85,0.8; stroke-dashoffset: 0; stroke: #b0b0b0; stroke-width: 0.5"/>
     </g>
     <g id="line2d_2">
      <defs>
       <path id="m2cf474422b" d="M 0 0 
L 0 3.5 
" style="stroke: #000000; stroke-width: 0.8"/>
      </defs>
      <g>
       <use xlink:href="#m2cf474422b" x="164.347347" y="202.165461" style="stroke: #000000; stroke-width: 0.8"/>
      </g>
     </g>
     <g id="text_1">
      <!-- −0.4 -->
      <g transform="translate(132.779691 228.921399) scale(0.26 -0.26)">
       <defs>
        <path id="DejaVuSans-2212" d="M 678 2272 
L 4684 2272 
L 4684 1741 
L 678 1741 
L 678 2272 
z
" transform="scale(0.015625)"/>
        <path id="DejaVuSans-30" d="M 2034 4250 
Q 1547 4250 1301 3770 
Q 1056 3291 1056 2328 
Q 1056 1369 1301 889 
Q 1547 409 2034 409 
Q 2525 409 2770 889 
Q 3016 1369 3016 2328 
Q 3016 3291 2770 3770 
Q 2525 4250 2034 4250 
z
M 2034 4750 
Q 2819 4750 3233 4129 
Q 3647 3509 3647 2328 
Q 3647 1150 3233 529 
Q 2819 -91 2034 -91 
Q 1250 -91 836 529 
Q 422 1150 422 2328 
Q 422 3509 836 4129 
Q 1250 4750 2034 4750 
z
" transform="scale(0.015625)"/>
        <path id="DejaVuSans-2e" d="M 684 794 
L 1344 794 
L 1344 0 
L 684 0 
L 684 794 
z
" transform="scale(0.015625)"/>
        <path id="DejaVuSans-34" d="M 2419 4116 
L 825 1625 
L 2419 1625 
L 2419 4116 
z
M 2253 4666 
L 3047 4666 
L 3047 1625 
L 3713 1625 
L 3713 1100 
L 3047 1100 
L 3047 0 
L 2419 0 
L 2419 1100 
L 313 1100 
L 313 1709 
L 2253 4666 
z
" transform="scale(0.015625)"/>
       </defs>
       <use xlink:href="#DejaVuSans-2212"/>
       <use xlink:href="#DejaVuSans-30" x="83.789062"/>
       <use xlink:href="#DejaVuSans-2e" x="147.412109"/>
       <use xlink:href="#DejaVuSans-34" x="179.199219"/>
      </g>
     </g>
    </g>
    <g id="xtick_2">
     <g id="line2d_3">
      <path d="M 268.894674 202.165461 
L 268.894674 14.987172 
" clip-path="url(#pe9bf49f08c)" style="fill: none; stroke-dasharray: 1.85,0.8; stroke-dashoffset: 0; stroke: #b0b0b0; stroke-width: 0.5"/>
     </g>
     <g id="line2d_4">
      <g>
       <use xlink:href="#m2cf474422b" x="268.894674" y="202.165461" style="stroke: #000000; stroke-width: 0.8"/>
      </g>
     </g>
     <g id="text_2">
      <!-- −0.2 -->
      <g transform="translate(237.327018 228.921399) scale(0.26 -0.26)">
       <defs>
        <path id="DejaVuSans-32" d="M 1228 531 
L 3431 531 
L 3431 0 
L 469 0 
L 469 531 
Q 828 903 1448 1529 
Q 2069 2156 2228 2338 
Q 2531 2678 2651 2914 
Q 2772 3150 2772 3378 
Q 2772 3750 2511 3984 
Q 2250 4219 1831 4219 
Q 1534 4219 1204 4116 
Q 875 4013 500 3803 
L 500 4441 
Q 881 4594 1212 4672 
Q 1544 4750 1819 4750 
Q 2544 4750 2975 4387 
Q 3406 4025 3406 3419 
Q 3406 3131 3298 2873 
Q 3191 2616 2906 2266 
Q 2828 2175 2409 1742 
Q 1991 1309 1228 531 
z
" transform="scale(0.015625)"/>
       </defs>
       <use xlink:href="#DejaVuSans-2212"/>
       <use xlink:href="#DejaVuSans-30" x="83.789062"/>
       <use xlink:href="#DejaVuSans-2e" x="147.412109"/>
       <use xlink:href="#DejaVuSans-32" x="179.199219"/>
      </g>
     </g>
    </g>
    <g id="xtick_3">
     <g id="line2d_5">
      <path d="M 373.442002 202.165461 
L 373.442002 14.987172 
" clip-path="url(#pe9bf49f08c)" style="fill: none; stroke-dasharray: 1.85,0.8; stroke-dashoffset: 0; stroke: #b0b0b0; stroke-width: 0.5"/>
     </g>
     <g id="line2d_6">
      <g>
       <use xlink:href="#m2cf474422b" x="373.442002" y="202.165461" style="stroke: #000000; stroke-width: 0.8"/>
      </g>
     </g>
     <g id="text_3">
      <!-- 0.0 -->
      <g transform="translate(352.767939 228.921399) scale(0.26 -0.26)">
       <use xlink:href="#DejaVuSans-30"/>
       <use xlink:href="#DejaVuSans-2e" x="63.623047"/>
       <use xlink:href="#DejaVuSans-30" x="95.410156"/>
      </g>
     </g>
    </g>
    <g id="xtick_4">
     <g id="line2d_7">
      <path d="M 477.989329 202.165461 
L 477.989329 14.987172 
" clip-path="url(#pe9bf49f08c)" style="fill: none; stroke-dasharray: 1.85,0.8; stroke-dashoffset: 0; stroke: #b0b0b0; stroke-width: 0.5"/>
     </g>
     <g id="line2d_8">
      <g>
       <use xlink:href="#m2cf474422b" x="477.989329" y="202.165461" style="stroke: #000000; stroke-width: 0.8"/>
      </g>
     </g>
     <g id="text_4">
      <!-- 0.2 -->
      <g transform="translate(457.315267 228.921399) scale(0.26 -0.26)">
       <use xlink:href="#DejaVuSans-30"/>
       <use xlink:href="#DejaVuSans-2e" x="63.623047"/>
       <use xlink:href="#DejaVuSans-32" x="95.410156"/>
      </g>
     </g>
    </g>
    <g id="xtick_5">
     <g id="line2d_9">
      <path d="M 582.536657 202.165461 
L 582.536657 14.987172 
" clip-path="url(#pe9bf49f08c)" style="fill: none; stroke-dasharray: 1.85,0.8; stroke-dashoffset: 0; stroke: #b0b0b0; stroke-width: 0.5"/>
     </g>
     <g id="line2d_10">
      <g>
       <use xlink:href="#m2cf474422b" x="582.536657" y="202.165461" style="stroke: #000000; stroke-width: 0.8"/>
      </g>
     </g>
     <g id="text_5">
      <!-- 0.4 -->
      <g transform="translate(561.862594 228.921399) scale(0.26 -0.26)">
       <use xlink:href="#DejaVuSans-30"/>
       <use xlink:href="#DejaVuSans-2e" x="63.623047"/>
       <use xlink:href="#DejaVuSans-34" x="95.410156"/>
      </g>
     </g>
    </g>
    <g id="xtick_6">
     <g id="line2d_11">
      <path d="M 687.083984 202.165461 
L 687.083984 14.987172 
" clip-path="url(#pe9bf49f08c)" style="fill: none; stroke-dasharray: 1.85,0.8; stroke-dashoffset: 0; stroke: #b0b0b0; stroke-width: 0.5"/>
     </g>
     <g id="line2d_12">
      <g>
       <use xlink:href="#m2cf474422b" x="687.083984" y="202.165461" style="stroke: #000000; stroke-width: 0.8"/>
      </g>
     </g>
     <g id="text_6">
      <!-- 0.6 -->
      <g transform="translate(666.409922 228.921399) scale(0.26 -0.26)">
       <defs>
        <path id="DejaVuSans-36" d="M 2113 2584 
Q 1688 2584 1439 2293 
Q 1191 2003 1191 1497 
Q 1191 994 1439 701 
Q 1688 409 2113 409 
Q 2538 409 2786 701 
Q 3034 994 3034 1497 
Q 3034 2003 2786 2293 
Q 2538 2584 2113 2584 
z
M 3366 4563 
L 3366 3988 
Q 3128 4100 2886 4159 
Q 2644 4219 2406 4219 
Q 1781 4219 1451 3797 
Q 1122 3375 1075 2522 
Q 1259 2794 1537 2939 
Q 1816 3084 2150 3084 
Q 2853 3084 3261 2657 
Q 3669 2231 3669 1497 
Q 3669 778 3244 343 
Q 2819 -91 2113 -91 
Q 1303 -91 875 529 
Q 447 1150 447 2328 
Q 447 3434 972 4092 
Q 1497 4750 2381 4750 
Q 2619 4750 2861 4703 
Q 3103 4656 3366 4563 
z
" transform="scale(0.015625)"/>
       </defs>
       <use xlink:href="#DejaVuSans-30"/>
       <use xlink:href="#DejaVuSans-2e" x="63.623047"/>
       <use xlink:href="#DejaVuSans-36" x="95.410156"/>
      </g>
     </g>
    </g>
    <g id="text_7">
     <!-- Slip Angle (rad) -->
     <g transform="translate(308.031569 258.084524) scale(0.26 -0.26)">
      <defs>
       <path id="DejaVuSans-53" d="M 3425 4513 
L 3425 3897 
Q 3066 4069 2747 4153 
Q 2428 4238 2131 4238 
Q 1616 4238 1336 4038 
Q 1056 3838 1056 3469 
Q 1056 3159 1242 3001 
Q 1428 2844 1947 2747 
L 2328 2669 
Q 3034 2534 3370 2195 
Q 3706 1856 3706 1288 
Q 3706 609 3251 259 
Q 2797 -91 1919 -91 
Q 1588 -91 1214 -16 
Q 841 59 441 206 
L 441 856 
Q 825 641 1194 531 
Q 1563 422 1919 422 
Q 2459 422 2753 634 
Q 3047 847 3047 1241 
Q 3047 1584 2836 1778 
Q 2625 1972 2144 2069 
L 1759 2144 
Q 1053 2284 737 2584 
Q 422 2884 422 3419 
Q 422 4038 858 4394 
Q 1294 4750 2059 4750 
Q 2388 4750 2728 4690 
Q 3069 4631 3425 4513 
z
" transform="scale(0.015625)"/>
       <path id="DejaVuSans-6c" d="M 603 4863 
L 1178 4863 
L 1178 0 
L 603 0 
L 603 4863 
z
" transform="scale(0.015625)"/>
       <path id="DejaVuSans-69" d="M 603 3500 
L 1178 3500 
L 1178 0 
L 603 0 
L 603 3500 
z
M 603 4863 
L 1178 4863 
L 1178 4134 
L 603 4134 
L 603 4863 
z
" transform="scale(0.015625)"/>
       <path id="DejaVuSans-70" d="M 1159 525 
L 1159 -1331 
L 581 -1331 
L 581 3500 
L 1159 3500 
L 1159 2969 
Q 1341 3281 1617 3432 
Q 1894 3584 2278 3584 
Q 2916 3584 3314 3078 
Q 3713 2572 3713 1747 
Q 3713 922 3314 415 
Q 2916 -91 2278 -91 
Q 1894 -91 1617 61 
Q 1341 213 1159 525 
z
M 3116 1747 
Q 3116 2381 2855 2742 
Q 2594 3103 2138 3103 
Q 1681 3103 1420 2742 
Q 1159 2381 1159 1747 
Q 1159 1113 1420 752 
Q 1681 391 2138 391 
Q 2594 391 2855 752 
Q 3116 1113 3116 1747 
z
" transform="scale(0.015625)"/>
       <path id="DejaVuSans-20" transform="scale(0.015625)"/>
       <path id="DejaVuSans-41" d="M 2188 4044 
L 1331 1722 
L 3047 1722 
L 2188 4044 
z
M 1831 4666 
L 2547 4666 
L 4325 0 
L 3669 0 
L 3244 1197 
L 1141 1197 
L 716 0 
L 50 0 
L 1831 4666 
z
" transform="scale(0.015625)"/>
       <path id="DejaVuSans-6e" d="M 3513 2113 
L 3513 0 
L 2938 0 
L 2938 2094 
Q 2938 2591 2744 2837 
Q 2550 3084 2163 3084 
Q 1697 3084 1428 2787 
Q 1159 2491 1159 1978 
L 1159 0 
L 581 0 
L 581 3500 
L 1159 3500 
L 1159 2956 
Q 1366 3272 1645 3428 
Q 1925 3584 2291 3584 
Q 2894 3584 3203 3211 
Q 3513 2838 3513 2113 
z
" transform="scale(0.015625)"/>
       <path id="DejaVuSans-67" d="M 2906 1791 
Q 2906 2416 2648 2759 
Q 2391 3103 1925 3103 
Q 1463 3103 1205 2759 
Q 947 2416 947 1791 
Q 947 1169 1205 825 
Q 1463 481 1925 481 
Q 2391 481 2648 825 
Q 2906 1169 2906 1791 
z
M 3481 434 
Q 3481 -459 3084 -895 
Q 2688 -1331 1869 -1331 
Q 1566 -1331 1297 -1286 
Q 1028 -1241 775 -1147 
L 775 -588 
Q 1028 -725 1275 -790 
Q 1522 -856 1778 -856 
Q 2344 -856 2625 -561 
Q 2906 -266 2906 331 
L 2906 616 
Q 2728 306 2450 153 
Q 2172 0 1784 0 
Q 1141 0 747 490 
Q 353 981 353 1791 
Q 353 2603 747 3093 
Q 1141 3584 1784 3584 
Q 2172 3584 2450 3431 
Q 2728 3278 2906 2969 
L 2906 3500 
L 3481 3500 
L 3481 434 
z
" transform="scale(0.015625)"/>
       <path id="DejaVuSans-65" d="M 3597 1894 
L 3597 1613 
L 953 1613 
Q 991 1019 1311 708 
Q 1631 397 2203 397 
Q 2534 397 2845 478 
Q 3156 559 3463 722 
L 3463 178 
Q 3153 47 2828 -22 
Q 2503 -91 2169 -91 
Q 1331 -91 842 396 
Q 353 884 353 1716 
Q 353 2575 817 3079 
Q 1281 3584 2069 3584 
Q 2775 3584 3186 3129 
Q 3597 2675 3597 1894 
z
M 3022 2063 
Q 3016 2534 2758 2815 
Q 2500 3097 2075 3097 
Q 1594 3097 1305 2825 
Q 1016 2553 972 2059 
L 3022 2063 
z
" transform="scale(0.015625)"/>
       <path id="DejaVuSans-28" d="M 1984 4856 
Q 1566 4138 1362 3434 
Q 1159 2731 1159 2009 
Q 1159 1288 1364 580 
Q 1569 -128 1984 -844 
L 1484 -844 
Q 1016 -109 783 600 
Q 550 1309 550 2009 
Q 550 2706 781 3412 
Q 1013 4119 1484 4856 
L 1984 4856 
z
" transform="scale(0.015625)"/>
       <path id="DejaVuSans-72" d="M 2631 2963 
Q 2534 3019 2420 3045 
Q 2306 3072 2169 3072 
Q 1681 3072 1420 2755 
Q 1159 2438 1159 1844 
L 1159 0 
L 581 0 
L 581 3500 
L 1159 3500 
L 1159 2956 
Q 1341 3275 1631 3429 
Q 1922 3584 2338 3584 
Q 2397 3584 2469 3576 
Q 2541 3569 2628 3553 
L 2631 2963 
z
" transform="scale(0.015625)"/>
       <path id="DejaVuSans-61" d="M 2194 1759 
Q 1497 1759 1228 1600 
Q 959 1441 959 1056 
Q 959 750 1161 570 
Q 1363 391 1709 391 
Q 2188 391 2477 730 
Q 2766 1069 2766 1631 
L 2766 1759 
L 2194 1759 
z
M 3341 1997 
L 3341 0 
L 2766 0 
L 2766 531 
Q 2569 213 2275 61 
Q 1981 -91 1556 -91 
Q 1019 -91 701 211 
Q 384 513 384 1019 
Q 384 1609 779 1909 
Q 1175 2209 1959 2209 
L 2766 2209 
L 2766 2266 
Q 2766 2663 2505 2880 
Q 2244 3097 1772 3097 
Q 1472 3097 1187 3025 
Q 903 2953 641 2809 
L 641 3341 
Q 956 3463 1253 3523 
Q 1550 3584 1831 3584 
Q 2591 3584 2966 3190 
Q 3341 2797 3341 1997 
z
" transform="scale(0.015625)"/>
       <path id="DejaVuSans-64" d="M 2906 2969 
L 2906 4863 
L 3481 4863 
L 3481 0 
L 2906 0 
L 2906 525 
Q 2725 213 2448 61 
Q 2172 -91 1784 -91 
Q 1150 -91 751 415 
Q 353 922 353 1747 
Q 353 2572 751 3078 
Q 1150 3584 1784 3584 
Q 2172 3584 2448 3432 
Q 2725 3281 2906 2969 
z
M 947 1747 
Q 947 1113 1208 752 
Q 1469 391 1925 391 
Q 2381 391 2643 752 
Q 2906 1113 2906 1747 
Q 2906 2381 2643 2742 
Q 2381 3103 1925 3103 
Q 1469 3103 1208 2742 
Q 947 2381 947 1747 
z
" transform="scale(0.015625)"/>
       <path id="DejaVuSans-29" d="M 513 4856 
L 1013 4856 
Q 1481 4119 1714 3412 
Q 1947 2706 1947 2009 
Q 1947 1309 1714 600 
Q 1481 -109 1013 -844 
L 513 -844 
Q 928 -128 1133 580 
Q 1338 1288 1338 2009 
Q 1338 2731 1133 3434 
Q 928 4138 513 4856 
z
" transform="scale(0.015625)"/>
      </defs>
      <use xlink:href="#DejaVuSans-53"/>
      <use xlink:href="#DejaVuSans-6c" x="63.476562"/>
      <use xlink:href="#DejaVuSans-69" x="91.259766"/>
      <use xlink:href="#DejaVuSans-70" x="119.042969"/>
      <use xlink:href="#DejaVuSans-20" x="182.519531"/>
      <use xlink:href="#DejaVuSans-41" x="214.306641"/>
      <use xlink:href="#DejaVuSans-6e" x="282.714844"/>
      <use xlink:href="#DejaVuSans-67" x="346.09375"/>
      <use xlink:href="#DejaVuSans-6c" x="409.570312"/>
      <use xlink:href="#DejaVuSans-65" x="437.353516"/>
      <use xlink:href="#DejaVuSans-20" x="498.876953"/>
      <use xlink:href="#DejaVuSans-28" x="530.664062"/>
      <use xlink:href="#DejaVuSans-72" x="569.677734"/>
      <use xlink:href="#DejaVuSans-61" x="610.791016"/>
      <use xlink:href="#DejaVuSans-64" x="672.070312"/>
      <use xlink:href="#DejaVuSans-29" x="735.546875"/>
     </g>
    </g>
   </g>
   <g id="matplotlib.axis_2">
    <g id="ytick_1">
     <g id="line2d_13">
      <path d="M 109.46 197.605217 
L 707.99345 197.605217 
" clip-path="url(#pe9bf49f08c)" style="fill: none; stroke-dasharray: 1.85,0.8; stroke-dashoffset: 0; stroke: #b0b0b0; stroke-width: 0.5"/>
     </g>
     <g id="line2d_14">
      <defs>
       <path id="m32807a4e56" d="M 0 0 
L -3.5 0 
" style="stroke: #000000; stroke-width: 0.8"/>
      </defs>
      <g>
       <use xlink:href="#m32807a4e56" x="109.46" y="197.605217" style="stroke: #000000; stroke-width: 0.8"/>
      </g>
     </g>
     <g id="text_8">
      <!-- −0.2 -->
      <g transform="translate(39.324688 207.483185) scale(0.26 -0.26)">
       <use xlink:href="#DejaVuSans-2212"/>
       <use xlink:href="#DejaVuSans-30" x="83.789062"/>
       <use xlink:href="#DejaVuSans-2e" x="147.412109"/>
       <use xlink:href="#DejaVuSans-32" x="179.199219"/>
      </g>
     </g>
    </g>
    <g id="ytick_2">
     <g id="line2d_15">
      <path d="M 109.46 109.035944 
L 707.99345 109.035944 
" clip-path="url(#pe9bf49f08c)" style="fill: none; stroke-dasharray: 1.85,0.8; stroke-dashoffset: 0; stroke: #b0b0b0; stroke-width: 0.5"/>
     </g>
     <g id="line2d_16">
      <g>
       <use xlink:href="#m32807a4e56" x="109.46" y="109.035944" style="stroke: #000000; stroke-width: 0.8"/>
      </g>
     </g>
     <g id="text_9">
      <!-- 0.0 -->
      <g transform="translate(61.111875 118.913912) scale(0.26 -0.26)">
       <use xlink:href="#DejaVuSans-30"/>
       <use xlink:href="#DejaVuSans-2e" x="63.623047"/>
       <use xlink:href="#DejaVuSans-30" x="95.410156"/>
      </g>
     </g>
    </g>
    <g id="ytick_3">
     <g id="line2d_17">
      <path d="M 109.46 20.466671 
L 707.99345 20.466671 
" clip-path="url(#pe9bf49f08c)" style="fill: none; stroke-dasharray: 1.85,0.8; stroke-dashoffset: 0; stroke: #b0b0b0; stroke-width: 0.5"/>
     </g>
     <g id="line2d_18">
      <g>
       <use xlink:href="#m32807a4e56" x="109.46" y="20.466671" style="stroke: #000000; stroke-width: 0.8"/>
      </g>
     </g>
     <g id="text_10">
      <!-- 0.2 -->
      <g transform="translate(61.111875 30.34464) scale(0.26 -0.26)">
       <use xlink:href="#DejaVuSans-30"/>
       <use xlink:href="#DejaVuSans-2e" x="63.623047"/>
       <use xlink:href="#DejaVuSans-32" x="95.410156"/>
      </g>
     </g>
    </g>
    <g id="text_11">
     <!-- Force (N) -->
     <g transform="translate(29.9175 167.736473) rotate(-90) scale(0.26 -0.26)">
      <defs>
       <path id="DejaVuSans-46" d="M 628 4666 
L 3309 4666 
L 3309 4134 
L 1259 4134 
L 1259 2759 
L 3109 2759 
L 3109 2228 
L 1259 2228 
L 1259 0 
L 628 0 
L 628 4666 
z
" transform="scale(0.015625)"/>
       <path id="DejaVuSans-6f" d="M 1959 3097 
Q 1497 3097 1228 2736 
Q 959 2375 959 1747 
Q 959 1119 1226 758 
Q 1494 397 1959 397 
Q 2419 397 2687 759 
Q 2956 1122 2956 1747 
Q 2956 2369 2687 2733 
Q 2419 3097 1959 3097 
z
M 1959 3584 
Q 2709 3584 3137 3096 
Q 3566 2609 3566 1747 
Q 3566 888 3137 398 
Q 2709 -91 1959 -91 
Q 1206 -91 779 398 
Q 353 888 353 1747 
Q 353 2609 779 3096 
Q 1206 3584 1959 3584 
z
" transform="scale(0.015625)"/>
       <path id="DejaVuSans-63" d="M 3122 3366 
L 3122 2828 
Q 2878 2963 2633 3030 
Q 2388 3097 2138 3097 
Q 1578 3097 1268 2742 
Q 959 2388 959 1747 
Q 959 1106 1268 751 
Q 1578 397 2138 397 
Q 2388 397 2633 464 
Q 2878 531 3122 666 
L 3122 134 
Q 2881 22 2623 -34 
Q 2366 -91 2075 -91 
Q 1284 -91 818 406 
Q 353 903 353 1747 
Q 353 2603 823 3093 
Q 1294 3584 2113 3584 
Q 2378 3584 2631 3529 
Q 2884 3475 3122 3366 
z
" transform="scale(0.015625)"/>
       <path id="DejaVuSans-4e" d="M 628 4666 
L 1478 4666 
L 3547 763 
L 3547 4666 
L 4159 4666 
L 4159 0 
L 3309 0 
L 1241 3903 
L 1241 0 
L 628 0 
L 628 4666 
z
" transform="scale(0.015625)"/>
      </defs>
      <use xlink:href="#DejaVuSans-46"/>
      <use xlink:href="#DejaVuSans-6f" x="53.894531"/>
      <use xlink:href="#DejaVuSans-72" x="115.076172"/>
      <use xlink:href="#DejaVuSans-63" x="153.939453"/>
      <use xlink:href="#DejaVuSans-65" x="208.919922"/>
      <use xlink:href="#DejaVuSans-20" x="270.443359"/>
      <use xlink:href="#DejaVuSans-28" x="302.230469"/>
      <use xlink:href="#DejaVuSans-4e" x="341.244141"/>
      <use xlink:href="#DejaVuSans-29" x="416.048828"/>
     </g>
    </g>
   </g>
   <g id="line2d_19">
    <path d="M 108.966288 193.617223 
L 178.281697 192.081223 
L 224.756688 188.873782 
L 256.598552 184.130119 
L 273.94036 179.927185 
L 286.523131 175.818272 
L 292.457637 173.497333 
L 298.301455 170.937719 
L 303.110152 168.60993 
L 309.108542 165.404367 
L 314.359755 162.305746 
L 319.38268 159.073464 
L 324.370633 155.595321 
L 329.569905 151.680195 
L 334.65495 147.565419 
L 339.969491 142.970194 
L 345.133373 138.231326 
L 351.187563 132.362648 
L 357.833594 125.590006 
L 366.084982 116.830133 
L 391.735522 89.328038 
L 397.990246 83.067807 
L 404.044706 77.322396 
L 409.332108 72.593896 
L 414.724438 68.071333 
L 419.509795 64.321275 
L 424.693178 60.542423 
L 429.785332 57.114619 
L 434.870096 53.966324 
L 439.564976 51.29399 
L 445.666032 48.140293 
L 450.906801 45.701104 
L 455.29322 43.837803 
L 462.247313 41.189587 
L 468.785103 39.009695 
L 474.804566 37.239145 
L 482.108747 35.359866 
L 484.982299 34.693387 
L 491.842301 33.250969 
L 500.348211 31.720253 
L 509.537948 30.338095 
L 520.381447 29.005802 
L 529.72751 28.06947 
L 538.408534 27.343937 
L 551.747312 26.448145 
L 569.907475 25.555963 
L 586.148211 24.992227 
L 613.82816 24.376269 
L 641.398909 24.042844 
L 675.481876 23.85849 
L 708.056301 23.819228 
L 708.056301 23.819228 
" clip-path="url(#pe9bf49f08c)" style="fill: none; stroke: #ff0000; stroke-width: 3; stroke-linecap: square"/>
   </g>
   <g id="line2d_20">
    <path d="M 108.835638 193.657357 
L 178.151047 192.061098 
L 224.626038 188.857166 
L 256.467902 184.151401 
L 273.80971 179.979957 
L 286.392481 175.895144 
L 292.326987 173.584831 
L 298.170805 171.03464 
L 302.979502 168.713525 
L 308.85644 165.582815 
L 313.876042 162.636852 
L 318.764472 159.514943 
L 323.529777 156.223398 
L 328.824928 152.272966 
L 333.763612 148.31026 
L 339.127221 143.708774 
L 344.715465 138.600826 
L 349.79929 133.698816 
L 356.878774 126.524939 
L 364.465375 118.495366 
L 373.066988 109.154784 
L 373.442002 109.035944 
L 373.617996 108.553336 
L 386.598957 94.535584 
L 393.63709 87.239829 
L 400.401153 80.568077 
L 405.956226 75.394033 
L 411.805816 70.280125 
L 417.294691 65.813747 
L 421.775596 62.41283 
L 427.378761 58.471365 
L 432.510277 55.160289 
L 437.530656 52.188276 
L 443.243267 49.113092 
L 448.097259 46.74198 
L 453.417766 44.380982 
L 458.387736 42.384171 
L 464.378431 40.222623 
L 468.654453 38.830018 
L 474.673916 37.061788 
L 481.978097 35.186273 
L 484.851649 34.521427 
L 491.711651 33.082985 
L 500.217561 31.556903 
L 509.407298 30.178827 
L 520.250797 28.849586 
L 529.59686 27.914119 
L 538.277883 27.187874 
L 551.616662 26.288254 
L 571.681225 25.30872 
L 586.017561 24.809712 
L 613.69751 24.166322 
L 641.268259 23.80112 
L 675.351226 23.574872 
L 707.925651 23.495276 
L 707.925651 23.495276 
" clip-path="url(#pe9bf49f08c)" style="fill: none; stroke-dasharray: 11.1,4.8; stroke-dashoffset: 0; stroke: #0000ff; stroke-width: 3"/>
   </g>
   <g id="line2d_21">
    <path d="M 109.349594 192.410089 
L 178.665003 190.331498 
L 225.139994 187.068857 
L 256.981858 182.522612 
L 274.323666 178.455503 
L 286.906437 174.399316 
L 292.840943 172.0752 
L 298.684761 169.489356 
L 303.493458 167.1214 
L 308.983436 164.135434 
L 314.05205 161.099552 
L 318.575413 158.158919 
L 323.630975 154.614405 
L 328.99966 150.560464 
L 334.277568 146.301267 
L 340.368315 141.082836 
L 346.73242 135.335847 
L 354.459173 128.047031 
L 364.518892 118.22668 
L 373.350504 109.459431 
L 373.442002 109.035944 
L 373.513795 109.29694 
L 373.580944 109.230119 
L 390.648134 92.402523 
L 398.925821 84.537039 
L 406.422855 77.735742 
L 412.319772 72.674128 
L 418.294154 67.856662 
L 422.289552 64.828281 
L 428.178263 60.665813 
L 433.024233 57.517061 
L 438.044613 54.519012 
L 443.376991 51.622357 
L 448.611215 49.054866 
L 453.931722 46.707982 
L 458.901692 44.73753 
L 464.892387 42.621845 
L 469.168409 41.269208 
L 475.187872 39.564002 
L 482.492053 37.770115 
L 485.365605 37.137597 
L 492.225607 35.77421 
L 500.731517 34.332947 
L 509.921254 33.031635 
L 520.764753 31.769541 
L 530.110816 30.870872 
L 538.791839 30.162028 
L 552.130618 29.260658 
L 572.659504 28.204449 
L 586.531517 27.655523 
L 614.211466 26.829974 
L 645.572548 26.182525 
L 684.470844 25.635491 
L 708.439607 25.388618 
L 708.439607 25.388618 
" clip-path="url(#pe9bf49f08c)" style="fill: none; stroke-dasharray: 19.2,4.8,3,4.8; stroke-dashoffset: 0; stroke: #000000; stroke-width: 3"/>
   </g>
   <g id="patch_3">
    <path d="M 109.46 202.165461 
L 109.46 14.987172 
" style="fill: none; stroke: #000000; stroke-width: 0.8; stroke-linejoin: miter; stroke-linecap: square"/>
   </g>
   <g id="patch_4">
    <path d="M 707.99345 202.165461 
L 707.99345 14.987172 
" style="fill: none; stroke: #000000; stroke-width: 0.8; stroke-linejoin: miter; stroke-linecap: square"/>
   </g>
   <g id="patch_5">
    <path d="M 109.46 202.165461 
L 707.99345 202.165461 
" style="fill: none; stroke: #000000; stroke-width: 0.8; stroke-linejoin: miter; stroke-linecap: square"/>
   </g>
   <g id="patch_6">
    <path d="M 109.46 14.987172 
L 707.99345 14.987172 
" style="fill: none; stroke: #000000; stroke-width: 0.8; stroke-linejoin: miter; stroke-linecap: square"/>
   </g>
   <g id="legend_1">
    <g id="patch_7">
     <path d="M 124.86 109.796859 
L 253.78 109.796859 
Q 258.18 109.796859 258.18 105.396859 
L 258.18 30.387172 
Q 258.18 25.987172 253.78 25.987172 
L 124.86 25.987172 
Q 120.46 25.987172 120.46 30.387172 
L 120.46 105.396859 
Q 120.46 109.796859 124.86 109.796859 
z
" style="fill: #ffffff; opacity: 0.8; stroke: #cccccc; stroke-linejoin: miter"/>
    </g>
    <g id="line2d_22">
     <path d="M 122.66 37.203734 
L 138.06 37.203734 
L 153.46 37.203734 
" style="fill: none; stroke: #ff0000; stroke-width: 3; stroke-linecap: square"/>
    </g>
    <g id="text_12">
     <!-- GT $F_{fy}$ -->
     <g transform="translate(161.6 44.903734) scale(0.22 -0.22)">
      <defs>
       <path id="DejaVuSans-47" d="M 3809 666 
L 3809 1919 
L 2778 1919 
L 2778 2438 
L 4434 2438 
L 4434 434 
Q 4069 175 3628 42 
Q 3188 -91 2688 -91 
Q 1594 -91 976 548 
Q 359 1188 359 2328 
Q 359 3472 976 4111 
Q 1594 4750 2688 4750 
Q 3144 4750 3555 4637 
Q 3966 4525 4313 4306 
L 4313 3634 
Q 3963 3931 3569 4081 
Q 3175 4231 2741 4231 
Q 1884 4231 1454 3753 
Q 1025 3275 1025 2328 
Q 1025 1384 1454 906 
Q 1884 428 2741 428 
Q 3075 428 3337 486 
Q 3600 544 3809 666 
z
" transform="scale(0.015625)"/>
       <path id="DejaVuSans-54" d="M -19 4666 
L 3928 4666 
L 3928 4134 
L 2272 4134 
L 2272 0 
L 1638 0 
L 1638 4134 
L -19 4134 
L -19 4666 
z
" transform="scale(0.015625)"/>
       <path id="DejaVuSans-Oblique-46" d="M 1081 4666 
L 3756 4666 
L 3653 4134 
L 1606 4134 
L 1338 2759 
L 3188 2759 
L 3084 2228 
L 1234 2228 
L 800 0 
L 172 0 
L 1081 4666 
z
" transform="scale(0.015625)"/>
       <path id="DejaVuSans-Oblique-66" d="M 3059 4863 
L 2969 4384 
L 2419 4384 
Q 2106 4384 1964 4261 
Q 1822 4138 1753 3809 
L 1691 3500 
L 2638 3500 
L 2553 3053 
L 1606 3053 
L 1013 0 
L 434 0 
L 1031 3053 
L 481 3053 
L 563 3500 
L 1113 3500 
L 1159 3744 
Q 1278 4363 1576 4613 
Q 1875 4863 2516 4863 
L 3059 4863 
z
" transform="scale(0.015625)"/>
       <path id="DejaVuSans-Oblique-79" d="M 1588 -325 
Q 1188 -997 936 -1164 
Q 684 -1331 294 -1331 
L -159 -1331 
L -63 -850 
L 269 -850 
Q 509 -850 678 -719 
Q 847 -588 1056 -206 
L 1234 128 
L 459 3500 
L 1069 3500 
L 1650 819 
L 3256 3500 
L 3859 3500 
L 1588 -325 
z
" transform="scale(0.015625)"/>
      </defs>
      <use xlink:href="#DejaVuSans-47" transform="translate(0 0.78125)"/>
      <use xlink:href="#DejaVuSans-54" transform="translate(77.490234 0.78125)"/>
      <use xlink:href="#DejaVuSans-20" transform="translate(138.574219 0.78125)"/>
      <use xlink:href="#DejaVuSans-Oblique-46" transform="translate(170.361328 0.78125)"/>
      <use xlink:href="#DejaVuSans-Oblique-66" transform="translate(227.880859 -15.625) scale(0.7)"/>
      <use xlink:href="#DejaVuSans-Oblique-79" transform="translate(252.524414 -15.625) scale(0.7)"/>
     </g>
    </g>
    <g id="line2d_23">
     <path d="M 122.66 65.140297 
L 138.06 65.140297 
L 153.46 65.140297 
" style="fill: none; stroke-dasharray: 11.1,4.8; stroke-dashoffset: 0; stroke: #0000ff; stroke-width: 3"/>
    </g>
    <g id="text_13">
     <!-- FTHD $F_{fy}$ -->
     <g transform="translate(161.6 72.840297) scale(0.22 -0.22)">
      <defs>
       <path id="DejaVuSans-48" d="M 628 4666 
L 1259 4666 
L 1259 2753 
L 3553 2753 
L 3553 4666 
L 4184 4666 
L 4184 0 
L 3553 0 
L 3553 2222 
L 1259 2222 
L 1259 0 
L 628 0 
L 628 4666 
z
" transform="scale(0.015625)"/>
       <path id="DejaVuSans-44" d="M 1259 4147 
L 1259 519 
L 2022 519 
Q 2988 519 3436 956 
Q 3884 1394 3884 2338 
Q 3884 3275 3436 3711 
Q 2988 4147 2022 4147 
L 1259 4147 
z
M 628 4666 
L 1925 4666 
Q 3281 4666 3915 4102 
Q 4550 3538 4550 2338 
Q 4550 1131 3912 565 
Q 3275 0 1925 0 
L 628 0 
L 628 4666 
z
" transform="scale(0.015625)"/>
      </defs>
      <use xlink:href="#DejaVuSans-46" transform="translate(0 0.09375)"/>
      <use xlink:href="#DejaVuSans-54" transform="translate(57.519531 0.09375)"/>
      <use xlink:href="#DejaVuSans-48" transform="translate(118.603516 0.09375)"/>
      <use xlink:href="#DejaVuSans-44" transform="translate(193.798828 0.09375)"/>
      <use xlink:href="#DejaVuSans-20" transform="translate(270.800781 0.09375)"/>
      <use xlink:href="#DejaVuSans-Oblique-46" transform="translate(302.587891 0.09375)"/>
      <use xlink:href="#DejaVuSans-Oblique-66" transform="translate(360.107422 -16.3125) scale(0.7)"/>
      <use xlink:href="#DejaVuSans-Oblique-79" transform="translate(384.750977 -16.3125) scale(0.7)"/>
     </g>
    </g>
    <g id="line2d_24">
     <path d="M 122.66 93.076859 
L 138.06 93.076859 
L 153.46 93.076859 
" style="fill: none; stroke-dasharray: 19.2,4.8,3,4.8; stroke-dashoffset: 0; stroke: #000000; stroke-width: 3"/>
    </g>
    <g id="text_14">
     <!-- DDM $F_{fy}$ -->
     <g transform="translate(161.6 100.776859) scale(0.22 -0.22)">
      <defs>
       <path id="DejaVuSans-4d" d="M 628 4666 
L 1569 4666 
L 2759 1491 
L 3956 4666 
L 4897 4666 
L 4897 0 
L 4281 0 
L 4281 4097 
L 3078 897 
L 2444 897 
L 1241 4097 
L 1241 0 
L 628 0 
L 628 4666 
z
" transform="scale(0.015625)"/>
      </defs>
      <use xlink:href="#DejaVuSans-44" transform="translate(0 0.09375)"/>
      <use xlink:href="#DejaVuSans-44" transform="translate(77.001953 0.09375)"/>
      <use xlink:href="#DejaVuSans-4d" transform="translate(154.003906 0.09375)"/>
      <use xlink:href="#DejaVuSans-20" transform="translate(240.283203 0.09375)"/>
      <use xlink:href="#DejaVuSans-Oblique-46" transform="translate(272.070312 0.09375)"/>
      <use xlink:href="#DejaVuSans-Oblique-66" transform="translate(329.589844 -16.3125) scale(0.7)"/>
      <use xlink:href="#DejaVuSans-Oblique-79" transform="translate(354.233398 -16.3125) scale(0.7)"/>
     </g>
    </g>
   </g>
  </g>
  <g id="axes_2">
   <g id="patch_8">
    <path d="M 109.46 469.24 
L 707.99345 469.24 
L 707.99345 282.061711 
L 109.46 282.061711 
L 109.46 469.24 
z
" style="fill: none"/>
   </g>
   <g id="matplotlib.axis_3">
    <g id="xtick_7">
     <g id="line2d_25">
      <path d="M 130.234683 469.24 
L 130.234683 282.061711 
" clip-path="url(#p1444353a9a)" style="fill: none; stroke-dasharray: 1.85,0.8; stroke-dashoffset: 0; stroke: #b0b0b0; stroke-width: 0.5"/>
     </g>
     <g id="line2d_26">
      <g>
       <use xlink:href="#m2cf474422b" x="130.234683" y="469.24" style="stroke: #000000; stroke-width: 0.8"/>
      </g>
     </g>
     <g id="text_15">
      <!-- −0.2 -->
      <g transform="translate(98.667027 495.995937) scale(0.26 -0.26)">
       <use xlink:href="#DejaVuSans-2212"/>
       <use xlink:href="#DejaVuSans-30" x="83.789062"/>
       <use xlink:href="#DejaVuSans-2e" x="147.412109"/>
       <use xlink:href="#DejaVuSans-32" x="179.199219"/>
      </g>
     </g>
    </g>
    <g id="xtick_8">
     <g id="line2d_27">
      <path d="M 278.625274 469.24 
L 278.625274 282.061711 
" clip-path="url(#p1444353a9a)" style="fill: none; stroke-dasharray: 1.85,0.8; stroke-dashoffset: 0; stroke: #b0b0b0; stroke-width: 0.5"/>
     </g>
     <g id="line2d_28">
      <g>
       <use xlink:href="#m2cf474422b" x="278.625274" y="469.24" style="stroke: #000000; stroke-width: 0.8"/>
      </g>
     </g>
     <g id="text_16">
      <!-- 0.0 -->
      <g transform="translate(257.951212 495.995937) scale(0.26 -0.26)">
       <use xlink:href="#DejaVuSans-30"/>
       <use xlink:href="#DejaVuSans-2e" x="63.623047"/>
       <use xlink:href="#DejaVuSans-30" x="95.410156"/>
      </g>
     </g>
    </g>
    <g id="xtick_9">
     <g id="line2d_29">
      <path d="M 427.015865 469.24 
L 427.015865 282.061711 
" clip-path="url(#p1444353a9a)" style="fill: none; stroke-dasharray: 1.85,0.8; stroke-dashoffset: 0; stroke: #b0b0b0; stroke-width: 0.5"/>
     </g>
     <g id="line2d_30">
      <g>
       <use xlink:href="#m2cf474422b" x="427.015865" y="469.24" style="stroke: #000000; stroke-width: 0.8"/>
      </g>
     </g>
     <g id="text_17">
      <!-- 0.2 -->
      <g transform="translate(406.341803 495.995937) scale(0.26 -0.26)">
       <use xlink:href="#DejaVuSans-30"/>
       <use xlink:href="#DejaVuSans-2e" x="63.623047"/>
       <use xlink:href="#DejaVuSans-32" x="95.410156"/>
      </g>
     </g>
    </g>
    <g id="xtick_10">
     <g id="line2d_31">
      <path d="M 575.406457 469.24 
L 575.406457 282.061711 
" clip-path="url(#p1444353a9a)" style="fill: none; stroke-dasharray: 1.85,0.8; stroke-dashoffset: 0; stroke: #b0b0b0; stroke-width: 0.5"/>
     </g>
     <g id="line2d_32">
      <g>
       <use xlink:href="#m2cf474422b" x="575.406457" y="469.24" style="stroke: #000000; stroke-width: 0.8"/>
      </g>
     </g>
     <g id="text_18">
      <!-- 0.4 -->
      <g transform="translate(554.732394 495.995937) scale(0.26 -0.26)">
       <use xlink:href="#DejaVuSans-30"/>
       <use xlink:href="#DejaVuSans-2e" x="63.623047"/>
       <use xlink:href="#DejaVuSans-34" x="95.410156"/>
      </g>
     </g>
    </g>
    <g id="text_19">
     <!-- Slip Angle (rad) -->
     <g transform="translate(308.031569 525.159063) scale(0.26 -0.26)">
      <use xlink:href="#DejaVuSans-53"/>
      <use xlink:href="#DejaVuSans-6c" x="63.476562"/>
      <use xlink:href="#DejaVuSans-69" x="91.259766"/>
      <use xlink:href="#DejaVuSans-70" x="119.042969"/>
      <use xlink:href="#DejaVuSans-20" x="182.519531"/>
      <use xlink:href="#DejaVuSans-41" x="214.306641"/>
      <use xlink:href="#DejaVuSans-6e" x="282.714844"/>
      <use xlink:href="#DejaVuSans-67" x="346.09375"/>
      <use xlink:href="#DejaVuSans-6c" x="409.570312"/>
      <use xlink:href="#DejaVuSans-65" x="437.353516"/>
      <use xlink:href="#DejaVuSans-20" x="498.876953"/>
      <use xlink:href="#DejaVuSans-28" x="530.664062"/>
      <use xlink:href="#DejaVuSans-72" x="569.677734"/>
      <use xlink:href="#DejaVuSans-61" x="610.791016"/>
      <use xlink:href="#DejaVuSans-64" x="672.070312"/>
      <use xlink:href="#DejaVuSans-29" x="735.546875"/>
     </g>
    </g>
   </g>
   <g id="matplotlib.axis_4">
    <g id="ytick_4">
     <g id="line2d_33">
      <path d="M 109.46 382.371938 
L 707.99345 382.371938 
" clip-path="url(#p1444353a9a)" style="fill: none; stroke-dasharray: 1.85,0.8; stroke-dashoffset: 0; stroke: #b0b0b0; stroke-width: 0.5"/>
     </g>
     <g id="line2d_34">
      <g>
       <use xlink:href="#m32807a4e56" x="109.46" y="382.371938" style="stroke: #000000; stroke-width: 0.8"/>
      </g>
     </g>
     <g id="text_20">
      <!-- 0.0 -->
      <g transform="translate(61.111875 392.249907) scale(0.26 -0.26)">
       <use xlink:href="#DejaVuSans-30"/>
       <use xlink:href="#DejaVuSans-2e" x="63.623047"/>
       <use xlink:href="#DejaVuSans-30" x="95.410156"/>
      </g>
     </g>
    </g>
    <g id="ytick_5">
     <g id="line2d_35">
      <path d="M 109.46 282.639835 
L 707.99345 282.639835 
" clip-path="url(#p1444353a9a)" style="fill: none; stroke-dasharray: 1.85,0.8; stroke-dashoffset: 0; stroke: #b0b0b0; stroke-width: 0.5"/>
     </g>
     <g id="line2d_36">
      <g>
       <use xlink:href="#m32807a4e56" x="109.46" y="282.639835" style="stroke: #000000; stroke-width: 0.8"/>
      </g>
     </g>
     <g id="text_21">
      <!-- 0.2 -->
      <g transform="translate(61.111875 292.517803) scale(0.26 -0.26)">
       <use xlink:href="#DejaVuSans-30"/>
       <use xlink:href="#DejaVuSans-2e" x="63.623047"/>
       <use xlink:href="#DejaVuSans-32" x="95.410156"/>
      </g>
     </g>
    </g>
    <g id="text_22">
     <!-- Force (N) -->
     <g transform="translate(51.704688 434.811012) rotate(-90) scale(0.26 -0.26)">
      <use xlink:href="#DejaVuSans-46"/>
      <use xlink:href="#DejaVuSans-6f" x="53.894531"/>
      <use xlink:href="#DejaVuSans-72" x="115.076172"/>
      <use xlink:href="#DejaVuSans-63" x="153.939453"/>
      <use xlink:href="#DejaVuSans-65" x="208.919922"/>
      <use xlink:href="#DejaVuSans-20" x="270.443359"/>
      <use xlink:href="#DejaVuSans-28" x="302.230469"/>
      <use xlink:href="#DejaVuSans-4e" x="341.244141"/>
      <use xlink:href="#DejaVuSans-29" x="416.048828"/>
     </g>
    </g>
   </g>
   <g id="line2d_37">
    <path d="M 106.206782 460.665592 
L 136.911157 455.60312 
L 149.783044 452.704628 
L 168.057144 447.566688 
L 175.450937 445.092623 
L 184.862419 441.572847 
L 191.579285 438.789324 
L 198.454311 435.69288 
L 205.083186 432.461397 
L 211.866657 428.898333 
L 218.646956 425.07526 
L 225.372964 421.026037 
L 232.322982 416.580596 
L 239.362453 411.821297 
L 247.137937 406.290461 
L 254.955209 400.479248 
L 265.544766 392.298945 
L 278.534045 381.990945 
L 278.625274 382.371938 
L 278.946603 381.661783 
L 296.18512 368.041656 
L 306.077556 360.517035 
L 314.788356 354.187308 
L 322.203561 349.067767 
L 329.430734 344.345618 
L 336.489079 340.006698 
L 343.386208 336.037177 
L 349.563748 332.711603 
L 356.608373 329.182934 
L 363.106897 326.172132 
L 369.986203 323.232073 
L 377.293387 320.375287 
L 382.370982 318.543651 
L 391.284321 315.61369 
L 399.384711 313.243575 
L 409.113812 310.730413 
L 416.974035 308.939846 
L 424.443408 307.416964 
L 436.291599 305.318231 
L 449.508838 303.372789 
L 459.923729 302.088779 
L 471.546243 300.874773 
L 483.257794 299.849981 
L 500.400646 298.645641 
L 519.106027 297.650517 
L 707.300728 295.34568 
L 707.300728 295.34568 
" clip-path="url(#p1444353a9a)" style="fill: none; stroke: #ff0000; stroke-width: 3; stroke-linecap: square"/>
   </g>
   <g id="line2d_38">
    <path d="M 106.041457 460.731896 
L 136.745833 455.66572 
L 149.61772 452.787036 
L 167.89182 447.687706 
L 175.285612 445.229245 
L 184.697095 441.726347 
L 191.413961 438.951543 
L 198.288987 435.860266 
L 204.917862 432.62968 
L 211.701332 429.063206 
L 218.481632 425.232542 
L 225.207639 421.172211 
L 232.157657 416.712454 
L 239.197129 411.936873 
L 246.972613 406.387395 
L 254.789884 400.557987 
L 265.379441 392.354893 
L 278.36872 382.020245 
L 278.625274 382.371938 
L 278.700887 381.754517 
L 296.019796 368.027183 
L 305.912231 360.470335 
L 314.623032 354.107991 
L 322.038236 348.959063 
L 329.265409 344.208558 
L 336.323755 339.843843 
L 343.220884 335.852287 
L 349.398424 332.51046 
L 356.443048 328.967821 
L 362.941573 325.948574 
L 369.820879 323.00398 
L 375.980572 320.577569 
L 382.205658 318.31679 
L 391.118997 315.392712 
L 399.219386 313.02944 
L 408.948488 310.523974 
L 416.808711 308.737568 
L 424.278083 307.215828 
L 436.126275 305.111475 
L 449.343513 303.14697 
L 459.758405 301.837608 
L 471.380919 300.584463 
L 483.092469 299.509103 
L 500.235322 298.212391 
L 518.940703 297.095229 
L 707.135404 293.153844 
L 707.135404 293.153844 
" clip-path="url(#p1444353a9a)" style="fill: none; stroke-dasharray: 11.1,4.8; stroke-dashoffset: 0; stroke: #0000ff; stroke-width: 3"/>
   </g>
   <g id="line2d_39">
    <path d="M 106.661227 460.425239 
L 137.365602 454.777325 
L 150.237489 451.666749 
L 168.511589 446.25167 
L 175.905382 443.671174 
L 185.316864 440.02077 
L 192.03373 437.149144 
L 199.082197 433.886873 
L 205.537631 430.67136 
L 212.727834 426.834218 
L 219.593131 422.925792 
L 226.829846 418.561692 
L 235.451633 413.066395 
L 243.452377 407.720047 
L 254.225929 400.227641 
L 267.286003 390.845189 
L 278.610237 382.581859 
L 278.625274 382.371938 
L 278.98849 382.305235 
L 300.64059 366.607271 
L 309.970454 360.049959 
L 320.644834 352.832948 
L 328.910228 347.520618 
L 336.471404 342.914475 
L 343.840653 338.685281 
L 351.386634 334.638682 
L 358.093138 331.29106 
L 365.266972 327.970289 
L 372.18643 325.017319 
L 378.088915 322.685752 
L 386.256205 319.729592 
L 393.275582 317.423572 
L 399.839156 315.448773 
L 409.568257 312.815388 
L 417.42848 310.918608 
L 424.897853 309.286428 
L 436.746044 306.996479 
L 449.963283 304.81148 
L 461.641226 303.151326 
L 474.089805 301.613876 
L 483.712239 300.564727 
L 500.855091 298.94536 
L 519.560472 297.474702 
L 707.755173 290.569815 
L 707.755173 290.569815 
" clip-path="url(#p1444353a9a)" style="fill: none; stroke-dasharray: 19.2,4.8,3,4.8; stroke-dashoffset: 0; stroke: #000000; stroke-width: 3"/>
   </g>
   <g id="patch_9">
    <path d="M 109.46 469.24 
L 109.46 282.061711 
" style="fill: none; stroke: #000000; stroke-width: 0.8; stroke-linejoin: miter; stroke-linecap: square"/>
   </g>
   <g id="patch_10">
    <path d="M 707.99345 469.24 
L 707.99345 282.061711 
" style="fill: none; stroke: #000000; stroke-width: 0.8; stroke-linejoin: miter; stroke-linecap: square"/>
   </g>
   <g id="patch_11">
    <path d="M 109.46 469.24 
L 707.99345 469.24 
" style="fill: none; stroke: #000000; stroke-width: 0.8; stroke-linejoin: miter; stroke-linecap: square"/>
   </g>
   <g id="patch_12">
    <path d="M 109.46 282.061711 
L 707.99345 282.061711 
" style="fill: none; stroke: #000000; stroke-width: 0.8; stroke-linejoin: miter; stroke-linecap: square"/>
   </g>
   <g id="legend_2">
    <g id="patch_13">
     <path d="M 124.86 376.871398 
L 254.88 376.871398 
Q 259.28 376.871398 259.28 372.471398 
L 259.28 297.461711 
Q 259.28 293.061711 254.88 293.061711 
L 124.86 293.061711 
Q 120.46 293.061711 120.46 297.461711 
L 120.46 372.471398 
Q 120.46 376.871398 124.86 376.871398 
z
" style="fill: #ffffff; opacity: 0.8; stroke: #cccccc; stroke-linejoin: miter"/>
    </g>
    <g id="line2d_40">
     <path d="M 122.66 304.278273 
L 138.06 304.278273 
L 153.46 304.278273 
" style="fill: none; stroke: #ff0000; stroke-width: 3; stroke-linecap: square"/>
    </g>
    <g id="text_23">
     <!-- GT $F_{ry}$ -->
     <g transform="translate(161.6 311.978273) scale(0.22 -0.22)">
      <defs>
       <path id="DejaVuSans-Oblique-72" d="M 2853 2969 
Q 2766 3016 2653 3041 
Q 2541 3066 2413 3066 
Q 1953 3066 1609 2717 
Q 1266 2369 1153 1784 
L 800 0 
L 225 0 
L 909 3500 
L 1484 3500 
L 1375 2956 
Q 1603 3259 1920 3421 
Q 2238 3584 2597 3584 
Q 2691 3584 2781 3573 
Q 2872 3563 2963 3538 
L 2853 2969 
z
" transform="scale(0.015625)"/>
      </defs>
      <use xlink:href="#DejaVuSans-47" transform="translate(0 0.78125)"/>
      <use xlink:href="#DejaVuSans-54" transform="translate(77.490234 0.78125)"/>
      <use xlink:href="#DejaVuSans-20" transform="translate(138.574219 0.78125)"/>
      <use xlink:href="#DejaVuSans-Oblique-46" transform="translate(170.361328 0.78125)"/>
      <use xlink:href="#DejaVuSans-Oblique-72" transform="translate(227.880859 -15.625) scale(0.7)"/>
      <use xlink:href="#DejaVuSans-Oblique-79" transform="translate(256.660156 -15.625) scale(0.7)"/>
     </g>
    </g>
    <g id="line2d_41">
     <path d="M 122.66 332.214836 
L 138.06 332.214836 
L 153.46 332.214836 
" style="fill: none; stroke-dasharray: 11.1,4.8; stroke-dashoffset: 0; stroke: #0000ff; stroke-width: 3"/>
    </g>
    <g id="text_24">
     <!-- FTHD $F_{ry}$ -->
     <g transform="translate(161.6 339.914836) scale(0.22 -0.22)">
      <use xlink:href="#DejaVuSans-46" transform="translate(0 0.09375)"/>
      <use xlink:href="#DejaVuSans-54" transform="translate(57.519531 0.09375)"/>
      <use xlink:href="#DejaVuSans-48" transform="translate(118.603516 0.09375)"/>
      <use xlink:href="#DejaVuSans-44" transform="translate(193.798828 0.09375)"/>
      <use xlink:href="#DejaVuSans-20" transform="translate(270.800781 0.09375)"/>
      <use xlink:href="#DejaVuSans-Oblique-46" transform="translate(302.587891 0.09375)"/>
      <use xlink:href="#DejaVuSans-Oblique-72" transform="translate(360.107422 -16.3125) scale(0.7)"/>
      <use xlink:href="#DejaVuSans-Oblique-79" transform="translate(388.886719 -16.3125) scale(0.7)"/>
     </g>
    </g>
    <g id="line2d_42">
     <path d="M 122.66 360.151398 
L 138.06 360.151398 
L 153.46 360.151398 
" style="fill: none; stroke-dasharray: 19.2,4.8,3,4.8; stroke-dashoffset: 0; stroke: #000000; stroke-width: 3"/>
    </g>
    <g id="text_25">
     <!-- DDM $F_{ry}$ -->
     <g transform="translate(161.6 367.851398) scale(0.22 -0.22)">
      <use xlink:href="#DejaVuSans-44" transform="translate(0 0.09375)"/>
      <use xlink:href="#DejaVuSans-44" transform="translate(77.001953 0.09375)"/>
      <use xlink:href="#DejaVuSans-4d" transform="translate(154.003906 0.09375)"/>
      <use xlink:href="#DejaVuSans-20" transform="translate(240.283203 0.09375)"/>
      <use xlink:href="#DejaVuSans-Oblique-46" transform="translate(272.070312 0.09375)"/>
      <use xlink:href="#DejaVuSans-Oblique-72" transform="translate(329.589844 -16.3125) scale(0.7)"/>
      <use xlink:href="#DejaVuSans-Oblique-79" transform="translate(358.369141 -16.3125) scale(0.7)"/>
     </g>
    </g>
   </g>
  </g>
 </g>
 <defs>
  <clipPath id="pe9bf49f08c">
   <rect x="109.46" y="14.987172" width="598.53345" height="187.178289"/>
  </clipPath>
  <clipPath id="p1444353a9a">
   <rect x="109.46" y="282.061711" width="598.53345" height="187.178289"/>
  </clipPath>
 </defs>
</svg>
