<?xml version="1.0" encoding="utf-8" standalone="no"?>
<!DOCTYPE svg PUBLIC "-//W3C//DTD SVG 1.1//EN"
  "http://www.w3.org/Graphics/SVG/1.1/DTD/svg11.dtd">
<svg xmlns:xlink="http://www.w3.org/1999/xlink" width="720pt" height="540pt" viewBox="0 0 720 540" xmlns="http://www.w3.org/2000/svg" version="1.1">
 <metadata>
  <rdf:RDF xmlns:dc="http://purl.org/dc/elements/1.1/" xmlns:cc="http://creativecommons.org/ns#" xmlns:rdf="http://www.w3.org/1999/02/22-rdf-syntax-ns#">
   <cc:Work>
    <dc:type rdf:resource="http://purl.org/dc/dcmitype/StillImage"/>
    <dc:date>2024-04-19T14:05:50.307209</dc:date>
    <dc:format>image/svg+xml</dc:format>
    <dc:creator>
     <cc:Agent>
      <dc:title>Matplotlib v3.8.4, https://matplotlib.org/</dc:title>
     </cc:Agent>
    </dc:creator>
   </cc:Work>
  </rdf:RDF>
 </metadata>
 <defs>
  <style type="text/css">*{stroke-linejoin: round; stroke-linecap: butt}</style>
 </defs>
 <g id="figure_1">
  <g id="patch_1">
   <path d="M 0 540 
L 720 540 
L 720 0 
L 0 0 
L 0 540 
z
" style="fill: none"/>
  </g>
  <g id="axes_1">
   <g id="patch_2">
    <path d="M 109.46 200.558585 
L 707.99345 200.558585 
L 707.99345 10.8 
L 109.46 10.8 
L 109.46 200.558585 
z
" style="fill: none"/>
   </g>
   <g id="matplotlib.axis_1">
    <g id="xtick_1">
     <g id="line2d_1">
      <path d="M 164.347347 200.558585 
L 164.347347 10.8 
" clip-path="url(#p02e7bd82cc)" style="fill: none; stroke-dasharray: 1.85,0.8; stroke-dashoffset: 0; stroke: #b0b0b0; stroke-width: 0.5"/>
     </g>
     <g id="line2d_2">
      <defs>
       <path id="mf98896b24e" d="M 0 0 
L 0 3.5 
" style="stroke: #000000; stroke-width: 0.8"/>
      </defs>
      <g>
       <use xlink:href="#mf98896b24e" x="164.347347" y="200.558585" style="stroke: #000000; stroke-width: 0.8"/>
      </g>
     </g>
     <g id="text_1">
      <!-- −0.4 -->
      <g transform="translate(132.779691 227.314523) scale(0.26 -0.26)">
       <defs>
        <path id="DejaVuSans-2212" d="M 678 2272 
L 4684 2272 
L 4684 1741 
L 678 1741 
L 678 2272 
z
" transform="scale(0.015625)"/>
        <path id="DejaVuSans-30" d="M 2034 4250 
Q 1547 4250 1301 3770 
Q 1056 3291 1056 2328 
Q 1056 1369 1301 889 
Q 1547 409 2034 409 
Q 2525 409 2770 889 
Q 3016 1369 3016 2328 
Q 3016 3291 2770 3770 
Q 2525 4250 2034 4250 
z
M 2034 4750 
Q 2819 4750 3233 4129 
Q 3647 3509 3647 2328 
Q 3647 1150 3233 529 
Q 2819 -91 2034 -91 
Q 1250 -91 836 529 
Q 422 1150 422 2328 
Q 422 3509 836 4129 
Q 1250 4750 2034 4750 
z
" transform="scale(0.015625)"/>
        <path id="DejaVuSans-2e" d="M 684 794 
L 1344 794 
L 1344 0 
L 684 0 
L 684 794 
z
" transform="scale(0.015625)"/>
        <path id="DejaVuSans-34" d="M 2419 4116 
L 825 1625 
L 2419 1625 
L 2419 4116 
z
M 2253 4666 
L 3047 4666 
L 3047 1625 
L 3713 1625 
L 3713 1100 
L 3047 1100 
L 3047 0 
L 2419 0 
L 2419 1100 
L 313 1100 
L 313 1709 
L 2253 4666 
z
" transform="scale(0.015625)"/>
       </defs>
       <use xlink:href="#DejaVuSans-2212"/>
       <use xlink:href="#DejaVuSans-30" x="83.789062"/>
       <use xlink:href="#DejaVuSans-2e" x="147.412109"/>
       <use xlink:href="#DejaVuSans-34" x="179.199219"/>
      </g>
     </g>
    </g>
    <g id="xtick_2">
     <g id="line2d_3">
      <path d="M 268.894674 200.558585 
L 268.894674 10.8 
" clip-path="url(#p02e7bd82cc)" style="fill: none; stroke-dasharray: 1.85,0.8; stroke-dashoffset: 0; stroke: #b0b0b0; stroke-width: 0.5"/>
     </g>
     <g id="line2d_4">
      <g>
       <use xlink:href="#mf98896b24e" x="268.894674" y="200.558585" style="stroke: #000000; stroke-width: 0.8"/>
      </g>
     </g>
     <g id="text_2">
      <!-- −0.2 -->
      <g transform="translate(237.327018 227.314523) scale(0.26 -0.26)">
       <defs>
        <path id="DejaVuSans-32" d="M 1228 531 
L 3431 531 
L 3431 0 
L 469 0 
L 469 531 
Q 828 903 1448 1529 
Q 2069 2156 2228 2338 
Q 2531 2678 2651 2914 
Q 2772 3150 2772 3378 
Q 2772 3750 2511 3984 
Q 2250 4219 1831 4219 
Q 1534 4219 1204 4116 
Q 875 4013 500 3803 
L 500 4441 
Q 881 4594 1212 4672 
Q 1544 4750 1819 4750 
Q 2544 4750 2975 4387 
Q 3406 4025 3406 3419 
Q 3406 3131 3298 2873 
Q 3191 2616 2906 2266 
Q 2828 2175 2409 1742 
Q 1991 1309 1228 531 
z
" transform="scale(0.015625)"/>
       </defs>
       <use xlink:href="#DejaVuSans-2212"/>
       <use xlink:href="#DejaVuSans-30" x="83.789062"/>
       <use xlink:href="#DejaVuSans-2e" x="147.412109"/>
       <use xlink:href="#DejaVuSans-32" x="179.199219"/>
      </g>
     </g>
    </g>
    <g id="xtick_3">
     <g id="line2d_5">
      <path d="M 373.442002 200.558585 
L 373.442002 10.8 
" clip-path="url(#p02e7bd82cc)" style="fill: none; stroke-dasharray: 1.85,0.8; stroke-dashoffset: 0; stroke: #b0b0b0; stroke-width: 0.5"/>
     </g>
     <g id="line2d_6">
      <g>
       <use xlink:href="#mf98896b24e" x="373.442002" y="200.558585" style="stroke: #000000; stroke-width: 0.8"/>
      </g>
     </g>
     <g id="text_3">
      <!-- 0.0 -->
      <g transform="translate(352.767939 227.314523) scale(0.26 -0.26)">
       <use xlink:href="#DejaVuSans-30"/>
       <use xlink:href="#DejaVuSans-2e" x="63.623047"/>
       <use xlink:href="#DejaVuSans-30" x="95.410156"/>
      </g>
     </g>
    </g>
    <g id="xtick_4">
     <g id="line2d_7">
      <path d="M 477.989329 200.558585 
L 477.989329 10.8 
" clip-path="url(#p02e7bd82cc)" style="fill: none; stroke-dasharray: 1.85,0.8; stroke-dashoffset: 0; stroke: #b0b0b0; stroke-width: 0.5"/>
     </g>
     <g id="line2d_8">
      <g>
       <use xlink:href="#mf98896b24e" x="477.989329" y="200.558585" style="stroke: #000000; stroke-width: 0.8"/>
      </g>
     </g>
     <g id="text_4">
      <!-- 0.2 -->
      <g transform="translate(457.315267 227.314523) scale(0.26 -0.26)">
       <use xlink:href="#DejaVuSans-30"/>
       <use xlink:href="#DejaVuSans-2e" x="63.623047"/>
       <use xlink:href="#DejaVuSans-32" x="95.410156"/>
      </g>
     </g>
    </g>
    <g id="xtick_5">
     <g id="line2d_9">
      <path d="M 582.536657 200.558585 
L 582.536657 10.8 
" clip-path="url(#p02e7bd82cc)" style="fill: none; stroke-dasharray: 1.85,0.8; stroke-dashoffset: 0; stroke: #b0b0b0; stroke-width: 0.5"/>
     </g>
     <g id="line2d_10">
      <g>
       <use xlink:href="#mf98896b24e" x="582.536657" y="200.558585" style="stroke: #000000; stroke-width: 0.8"/>
      </g>
     </g>
     <g id="text_5">
      <!-- 0.4 -->
      <g transform="translate(561.862594 227.314523) scale(0.26 -0.26)">
       <use xlink:href="#DejaVuSans-30"/>
       <use xlink:href="#DejaVuSans-2e" x="63.623047"/>
       <use xlink:href="#DejaVuSans-34" x="95.410156"/>
      </g>
     </g>
    </g>
    <g id="xtick_6">
     <g id="line2d_11">
      <path d="M 687.083984 200.558585 
L 687.083984 10.8 
" clip-path="url(#p02e7bd82cc)" style="fill: none; stroke-dasharray: 1.85,0.8; stroke-dashoffset: 0; stroke: #b0b0b0; stroke-width: 0.5"/>
     </g>
     <g id="line2d_12">
      <g>
       <use xlink:href="#mf98896b24e" x="687.083984" y="200.558585" style="stroke: #000000; stroke-width: 0.8"/>
      </g>
     </g>
     <g id="text_6">
      <!-- 0.6 -->
      <g transform="translate(666.409922 227.314523) scale(0.26 -0.26)">
       <defs>
        <path id="DejaVuSans-36" d="M 2113 2584 
Q 1688 2584 1439 2293 
Q 1191 2003 1191 1497 
Q 1191 994 1439 701 
Q 1688 409 2113 409 
Q 2538 409 2786 701 
Q 3034 994 3034 1497 
Q 3034 2003 2786 2293 
Q 2538 2584 2113 2584 
z
M 3366 4563 
L 3366 3988 
Q 3128 4100 2886 4159 
Q 2644 4219 2406 4219 
Q 1781 4219 1451 3797 
Q 1122 3375 1075 2522 
Q 1259 2794 1537 2939 
Q 1816 3084 2150 3084 
Q 2853 3084 3261 2657 
Q 3669 2231 3669 1497 
Q 3669 778 3244 343 
Q 2819 -91 2113 -91 
Q 1303 -91 875 529 
Q 447 1150 447 2328 
Q 447 3434 972 4092 
Q 1497 4750 2381 4750 
Q 2619 4750 2861 4703 
Q 3103 4656 3366 4563 
z
" transform="scale(0.015625)"/>
       </defs>
       <use xlink:href="#DejaVuSans-30"/>
       <use xlink:href="#DejaVuSans-2e" x="63.623047"/>
       <use xlink:href="#DejaVuSans-36" x="95.410156"/>
      </g>
     </g>
    </g>
    <g id="text_7">
     <!-- Slip Angle (rad) -->
     <g transform="translate(308.031569 256.477648) scale(0.26 -0.26)">
      <defs>
       <path id="DejaVuSans-53" d="M 3425 4513 
L 3425 3897 
Q 3066 4069 2747 4153 
Q 2428 4238 2131 4238 
Q 1616 4238 1336 4038 
Q 1056 3838 1056 3469 
Q 1056 3159 1242 3001 
Q 1428 2844 1947 2747 
L 2328 2669 
Q 3034 2534 3370 2195 
Q 3706 1856 3706 1288 
Q 3706 609 3251 259 
Q 2797 -91 1919 -91 
Q 1588 -91 1214 -16 
Q 841 59 441 206 
L 441 856 
Q 825 641 1194 531 
Q 1563 422 1919 422 
Q 2459 422 2753 634 
Q 3047 847 3047 1241 
Q 3047 1584 2836 1778 
Q 2625 1972 2144 2069 
L 1759 2144 
Q 1053 2284 737 2584 
Q 422 2884 422 3419 
Q 422 4038 858 4394 
Q 1294 4750 2059 4750 
Q 2388 4750 2728 4690 
Q 3069 4631 3425 4513 
z
" transform="scale(0.015625)"/>
       <path id="DejaVuSans-6c" d="M 603 4863 
L 1178 4863 
L 1178 0 
L 603 0 
L 603 4863 
z
" transform="scale(0.015625)"/>
       <path id="DejaVuSans-69" d="M 603 3500 
L 1178 3500 
L 1178 0 
L 603 0 
L 603 3500 
z
M 603 4863 
L 1178 4863 
L 1178 4134 
L 603 4134 
L 603 4863 
z
" transform="scale(0.015625)"/>
       <path id="DejaVuSans-70" d="M 1159 525 
L 1159 -1331 
L 581 -1331 
L 581 3500 
L 1159 3500 
L 1159 2969 
Q 1341 3281 1617 3432 
Q 1894 3584 2278 3584 
Q 2916 3584 3314 3078 
Q 3713 2572 3713 1747 
Q 3713 922 3314 415 
Q 2916 -91 2278 -91 
Q 1894 -91 1617 61 
Q 1341 213 1159 525 
z
M 3116 1747 
Q 3116 2381 2855 2742 
Q 2594 3103 2138 3103 
Q 1681 3103 1420 2742 
Q 1159 2381 1159 1747 
Q 1159 1113 1420 752 
Q 1681 391 2138 391 
Q 2594 391 2855 752 
Q 3116 1113 3116 1747 
z
" transform="scale(0.015625)"/>
       <path id="DejaVuSans-20" transform="scale(0.015625)"/>
       <path id="DejaVuSans-41" d="M 2188 4044 
L 1331 1722 
L 3047 1722 
L 2188 4044 
z
M 1831 4666 
L 2547 4666 
L 4325 0 
L 3669 0 
L 3244 1197 
L 1141 1197 
L 716 0 
L 50 0 
L 1831 4666 
z
" transform="scale(0.015625)"/>
       <path id="DejaVuSans-6e" d="M 3513 2113 
L 3513 0 
L 2938 0 
L 2938 2094 
Q 2938 2591 2744 2837 
Q 2550 3084 2163 3084 
Q 1697 3084 1428 2787 
Q 1159 2491 1159 1978 
L 1159 0 
L 581 0 
L 581 3500 
L 1159 3500 
L 1159 2956 
Q 1366 3272 1645 3428 
Q 1925 3584 2291 3584 
Q 2894 3584 3203 3211 
Q 3513 2838 3513 2113 
z
" transform="scale(0.015625)"/>
       <path id="DejaVuSans-67" d="M 2906 1791 
Q 2906 2416 2648 2759 
Q 2391 3103 1925 3103 
Q 1463 3103 1205 2759 
Q 947 2416 947 1791 
Q 947 1169 1205 825 
Q 1463 481 1925 481 
Q 2391 481 2648 825 
Q 2906 1169 2906 1791 
z
M 3481 434 
Q 3481 -459 3084 -895 
Q 2688 -1331 1869 -1331 
Q 1566 -1331 1297 -1286 
Q 1028 -1241 775 -1147 
L 775 -588 
Q 1028 -725 1275 -790 
Q 1522 -856 1778 -856 
Q 2344 -856 2625 -561 
Q 2906 -266 2906 331 
L 2906 616 
Q 2728 306 2450 153 
Q 2172 0 1784 0 
Q 1141 0 747 490 
Q 353 981 353 1791 
Q 353 2603 747 3093 
Q 1141 3584 1784 3584 
Q 2172 3584 2450 3431 
Q 2728 3278 2906 2969 
L 2906 3500 
L 3481 3500 
L 3481 434 
z
" transform="scale(0.015625)"/>
       <path id="DejaVuSans-65" d="M 3597 1894 
L 3597 1613 
L 953 1613 
Q 991 1019 1311 708 
Q 1631 397 2203 397 
Q 2534 397 2845 478 
Q 3156 559 3463 722 
L 3463 178 
Q 3153 47 2828 -22 
Q 2503 -91 2169 -91 
Q 1331 -91 842 396 
Q 353 884 353 1716 
Q 353 2575 817 3079 
Q 1281 3584 2069 3584 
Q 2775 3584 3186 3129 
Q 3597 2675 3597 1894 
z
M 3022 2063 
Q 3016 2534 2758 2815 
Q 2500 3097 2075 3097 
Q 1594 3097 1305 2825 
Q 1016 2553 972 2059 
L 3022 2063 
z
" transform="scale(0.015625)"/>
       <path id="DejaVuSans-28" d="M 1984 4856 
Q 1566 4138 1362 3434 
Q 1159 2731 1159 2009 
Q 1159 1288 1364 580 
Q 1569 -128 1984 -844 
L 1484 -844 
Q 1016 -109 783 600 
Q 550 1309 550 2009 
Q 550 2706 781 3412 
Q 1013 4119 1484 4856 
L 1984 4856 
z
" transform="scale(0.015625)"/>
       <path id="DejaVuSans-72" d="M 2631 2963 
Q 2534 3019 2420 3045 
Q 2306 3072 2169 3072 
Q 1681 3072 1420 2755 
Q 1159 2438 1159 1844 
L 1159 0 
L 581 0 
L 581 3500 
L 1159 3500 
L 1159 2956 
Q 1341 3275 1631 3429 
Q 1922 3584 2338 3584 
Q 2397 3584 2469 3576 
Q 2541 3569 2628 3553 
L 2631 2963 
z
" transform="scale(0.015625)"/>
       <path id="DejaVuSans-61" d="M 2194 1759 
Q 1497 1759 1228 1600 
Q 959 1441 959 1056 
Q 959 750 1161 570 
Q 1363 391 1709 391 
Q 2188 391 2477 730 
Q 2766 1069 2766 1631 
L 2766 1759 
L 2194 1759 
z
M 3341 1997 
L 3341 0 
L 2766 0 
L 2766 531 
Q 2569 213 2275 61 
Q 1981 -91 1556 -91 
Q 1019 -91 701 211 
Q 384 513 384 1019 
Q 384 1609 779 1909 
Q 1175 2209 1959 2209 
L 2766 2209 
L 2766 2266 
Q 2766 2663 2505 2880 
Q 2244 3097 1772 3097 
Q 1472 3097 1187 3025 
Q 903 2953 641 2809 
L 641 3341 
Q 956 3463 1253 3523 
Q 1550 3584 1831 3584 
Q 2591 3584 2966 3190 
Q 3341 2797 3341 1997 
z
" transform="scale(0.015625)"/>
       <path id="DejaVuSans-64" d="M 2906 2969 
L 2906 4863 
L 3481 4863 
L 3481 0 
L 2906 0 
L 2906 525 
Q 2725 213 2448 61 
Q 2172 -91 1784 -91 
Q 1150 -91 751 415 
Q 353 922 353 1747 
Q 353 2572 751 3078 
Q 1150 3584 1784 3584 
Q 2172 3584 2448 3432 
Q 2725 3281 2906 2969 
z
M 947 1747 
Q 947 1113 1208 752 
Q 1469 391 1925 391 
Q 2381 391 2643 752 
Q 2906 1113 2906 1747 
Q 2906 2381 2643 2742 
Q 2381 3103 1925 3103 
Q 1469 3103 1208 2742 
Q 947 2381 947 1747 
z
" transform="scale(0.015625)"/>
       <path id="DejaVuSans-29" d="M 513 4856 
L 1013 4856 
Q 1481 4119 1714 3412 
Q 1947 2706 1947 2009 
Q 1947 1309 1714 600 
Q 1481 -109 1013 -844 
L 513 -844 
Q 928 -128 1133 580 
Q 1338 1288 1338 2009 
Q 1338 2731 1133 3434 
Q 928 4138 513 4856 
z
" transform="scale(0.015625)"/>
      </defs>
      <use xlink:href="#DejaVuSans-53"/>
      <use xlink:href="#DejaVuSans-6c" x="63.476562"/>
      <use xlink:href="#DejaVuSans-69" x="91.259766"/>
      <use xlink:href="#DejaVuSans-70" x="119.042969"/>
      <use xlink:href="#DejaVuSans-20" x="182.519531"/>
      <use xlink:href="#DejaVuSans-41" x="214.306641"/>
      <use xlink:href="#DejaVuSans-6e" x="282.714844"/>
      <use xlink:href="#DejaVuSans-67" x="346.09375"/>
      <use xlink:href="#DejaVuSans-6c" x="409.570312"/>
      <use xlink:href="#DejaVuSans-65" x="437.353516"/>
      <use xlink:href="#DejaVuSans-20" x="498.876953"/>
      <use xlink:href="#DejaVuSans-28" x="530.664062"/>
      <use xlink:href="#DejaVuSans-72" x="569.677734"/>
      <use xlink:href="#DejaVuSans-61" x="610.791016"/>
      <use xlink:href="#DejaVuSans-64" x="672.070312"/>
      <use xlink:href="#DejaVuSans-29" x="735.546875"/>
     </g>
    </g>
   </g>
   <g id="matplotlib.axis_2">
    <g id="ytick_1">
     <g id="line2d_13">
      <path d="M 109.46 189.828726 
L 707.99345 189.828726 
" clip-path="url(#p02e7bd82cc)" style="fill: none; stroke-dasharray: 1.85,0.8; stroke-dashoffset: 0; stroke: #b0b0b0; stroke-width: 0.5"/>
     </g>
     <g id="line2d_14">
      <defs>
       <path id="m799ec94b2d" d="M 0 0 
L -3.5 0 
" style="stroke: #000000; stroke-width: 0.8"/>
      </defs>
      <g>
       <use xlink:href="#m799ec94b2d" x="109.46" y="189.828726" style="stroke: #000000; stroke-width: 0.8"/>
      </g>
     </g>
     <g id="text_8">
      <!-- −0.2 -->
      <g transform="translate(39.324688 199.706695) scale(0.26 -0.26)">
       <use xlink:href="#DejaVuSans-2212"/>
       <use xlink:href="#DejaVuSans-30" x="83.789062"/>
       <use xlink:href="#DejaVuSans-2e" x="147.412109"/>
       <use xlink:href="#DejaVuSans-32" x="179.199219"/>
      </g>
     </g>
    </g>
    <g id="ytick_2">
     <g id="line2d_15">
      <path d="M 109.46 105.959293 
L 707.99345 105.959293 
" clip-path="url(#p02e7bd82cc)" style="fill: none; stroke-dasharray: 1.85,0.8; stroke-dashoffset: 0; stroke: #b0b0b0; stroke-width: 0.5"/>
     </g>
     <g id="line2d_16">
      <g>
       <use xlink:href="#m799ec94b2d" x="109.46" y="105.959293" style="stroke: #000000; stroke-width: 0.8"/>
      </g>
     </g>
     <g id="text_9">
      <!-- 0.0 -->
      <g transform="translate(61.111875 115.837261) scale(0.26 -0.26)">
       <use xlink:href="#DejaVuSans-30"/>
       <use xlink:href="#DejaVuSans-2e" x="63.623047"/>
       <use xlink:href="#DejaVuSans-30" x="95.410156"/>
      </g>
     </g>
    </g>
    <g id="ytick_3">
     <g id="line2d_17">
      <path d="M 109.46 22.089859 
L 707.99345 22.089859 
" clip-path="url(#p02e7bd82cc)" style="fill: none; stroke-dasharray: 1.85,0.8; stroke-dashoffset: 0; stroke: #b0b0b0; stroke-width: 0.5"/>
     </g>
     <g id="line2d_18">
      <g>
       <use xlink:href="#m799ec94b2d" x="109.46" y="22.089859" style="stroke: #000000; stroke-width: 0.8"/>
      </g>
     </g>
     <g id="text_10">
      <!-- 0.2 -->
      <g transform="translate(61.111875 31.967828) scale(0.26 -0.26)">
       <use xlink:href="#DejaVuSans-30"/>
       <use xlink:href="#DejaVuSans-2e" x="63.623047"/>
       <use xlink:href="#DejaVuSans-32" x="95.410156"/>
      </g>
     </g>
    </g>
    <g id="text_11">
     <!-- Force (N) -->
     <g transform="translate(29.9175 164.839449) rotate(-90) scale(0.26 -0.26)">
      <defs>
       <path id="DejaVuSans-46" d="M 628 4666 
L 3309 4666 
L 3309 4134 
L 1259 4134 
L 1259 2759 
L 3109 2759 
L 3109 2228 
L 1259 2228 
L 1259 0 
L 628 0 
L 628 4666 
z
" transform="scale(0.015625)"/>
       <path id="DejaVuSans-6f" d="M 1959 3097 
Q 1497 3097 1228 2736 
Q 959 2375 959 1747 
Q 959 1119 1226 758 
Q 1494 397 1959 397 
Q 2419 397 2687 759 
Q 2956 1122 2956 1747 
Q 2956 2369 2687 2733 
Q 2419 3097 1959 3097 
z
M 1959 3584 
Q 2709 3584 3137 3096 
Q 3566 2609 3566 1747 
Q 3566 888 3137 398 
Q 2709 -91 1959 -91 
Q 1206 -91 779 398 
Q 353 888 353 1747 
Q 353 2609 779 3096 
Q 1206 3584 1959 3584 
z
" transform="scale(0.015625)"/>
       <path id="DejaVuSans-63" d="M 3122 3366 
L 3122 2828 
Q 2878 2963 2633 3030 
Q 2388 3097 2138 3097 
Q 1578 3097 1268 2742 
Q 959 2388 959 1747 
Q 959 1106 1268 751 
Q 1578 397 2138 397 
Q 2388 397 2633 464 
Q 2878 531 3122 666 
L 3122 134 
Q 2881 22 2623 -34 
Q 2366 -91 2075 -91 
Q 1284 -91 818 406 
Q 353 903 353 1747 
Q 353 2603 823 3093 
Q 1294 3584 2113 3584 
Q 2378 3584 2631 3529 
Q 2884 3475 3122 3366 
z
" transform="scale(0.015625)"/>
       <path id="DejaVuSans-4e" d="M 628 4666 
L 1478 4666 
L 3547 763 
L 3547 4666 
L 4159 4666 
L 4159 0 
L 3309 0 
L 1241 3903 
L 1241 0 
L 628 0 
L 628 4666 
z
" transform="scale(0.015625)"/>
      </defs>
      <use xlink:href="#DejaVuSans-46"/>
      <use xlink:href="#DejaVuSans-6f" x="53.894531"/>
      <use xlink:href="#DejaVuSans-72" x="115.076172"/>
      <use xlink:href="#DejaVuSans-63" x="153.939453"/>
      <use xlink:href="#DejaVuSans-65" x="208.919922"/>
      <use xlink:href="#DejaVuSans-20" x="270.443359"/>
      <use xlink:href="#DejaVuSans-28" x="302.230469"/>
      <use xlink:href="#DejaVuSans-4e" x="341.244141"/>
      <use xlink:href="#DejaVuSans-29" x="416.048828"/>
     </g>
    </g>
   </g>
   <g id="line2d_19">
    <path d="M 108.966288 186.052352 
L 178.281697 184.597858 
L 224.756688 181.560617 
L 256.598552 177.068671 
L 273.94036 173.088762 
L 286.523131 169.197884 
L 292.457637 167.000103 
L 298.301455 164.576313 
L 303.110152 162.372045 
L 309.108542 159.336582 
L 314.453767 156.347413 
L 319.804321 153.073097 
L 324.764206 149.777227 
L 329.888618 146.104279 
L 335.358556 141.884302 
L 340.743448 137.436133 
L 346.349114 132.513968 
L 352.368889 126.930184 
L 359.352015 120.131714 
L 368.214635 111.160134 
L 373.197638 106.030953 
L 373.442002 105.959293 
L 373.804936 105.40473 
L 386.729607 92.225432 
L 393.76774 85.340288 
L 400.531803 79.046766 
L 406.086877 74.167573 
L 411.936466 69.345944 
L 417.425341 65.135016 
L 421.906247 61.928336 
L 427.794957 58.030392 
L 432.640927 55.087455 
L 437.661307 52.282345 
L 443.373917 49.378201 
L 448.937966 46.826426 
L 454.468414 44.541367 
L 460.228478 42.406372 
L 465.333988 40.705162 
L 471.771357 38.79186 
L 479.322435 36.840813 
L 484.982299 35.561649 
L 491.842301 34.195772 
L 500.348211 32.746281 
L 509.537948 31.437466 
L 520.381447 30.17587 
L 529.72751 29.289224 
L 538.408534 28.60219 
L 551.747312 27.753933 
L 571.811876 26.837047 
L 586.148211 26.375271 
L 613.82816 25.791998 
L 641.398909 25.476266 
L 675.481876 25.301695 
L 708.056301 25.264517 
L 708.056301 25.264517 
" clip-path="url(#p02e7bd82cc)" style="fill: none; stroke: #ff0000; stroke-width: 3; stroke-linecap: square"/>
   </g>
   <g id="line2d_20">
    <path d="M 108.684474 185.497102 
L 177.999883 183.886807 
L 224.474874 180.847457 
L 256.316738 176.441243 
L 273.658547 172.537458 
L 286.241317 168.708227 
L 292.175823 166.539365 
L 298.019642 164.142982 
L 302.828338 161.960029 
L 308.826728 158.949171 
L 314.171953 155.97991 
L 319.522507 152.723732 
L 324.482392 149.443438 
L 329.606804 145.785955 
L 335.076742 141.582725 
L 340.461634 137.152383 
L 346.0673 132.251301 
L 352.087075 126.693897 
L 359.322045 119.681808 
L 368.330186 110.603493 
L 373.364009 105.447667 
L 373.442002 105.959293 
L 373.523123 105.284437 
L 387.109794 91.50159 
L 394.752978 84.082999 
L 400.897917 78.411027 
L 407.000632 73.093728 
L 412.493337 68.608691 
L 417.629034 64.689518 
L 421.624433 61.829002 
L 427.227597 58.096801 
L 432.359113 54.961312 
L 437.379493 52.147374 
L 443.092103 49.236879 
L 448.656152 46.682787 
L 454.1866 44.398957 
L 459.946664 42.268465 
L 465.052175 40.573443 
L 471.489543 38.670038 
L 479.040621 36.732285 
L 484.700485 35.463422 
L 491.560487 34.10958 
L 500.066397 32.673292 
L 509.256134 31.375547 
L 520.099634 30.121808 
L 529.445696 29.237087 
L 538.12672 28.547852 
L 551.465498 27.689208 
L 571.994384 26.72496 
L 585.866397 26.252163 
L 613.546347 25.599834 
L 641.117095 25.205171 
L 675.200062 24.927606 
L 707.774487 24.792083 
L 707.774487 24.792083 
" clip-path="url(#p02e7bd82cc)" style="fill: none; stroke-dasharray: 11.1,4.8; stroke-dashoffset: 0; stroke: #0000ff; stroke-width: 3"/>
   </g>
   <g id="line2d_21">
    <path d="M 107.957261 191.933195 
L 177.27267 190.103383 
L 223.747661 187.426086 
L 255.589525 183.77244 
L 272.931334 180.448349 
L 285.514104 177.025489 
L 291.44861 175.00529 
L 295.802515 173.321879 
L 301.025367 171.047614 
L 305.738981 168.729631 
L 310.406877 166.160947 
L 314.57731 163.618406 
L 318.795294 160.795995 
L 322.6514 157.98783 
L 327.253498 154.348793 
L 331.855056 150.403459 
L 335.820826 146.770321 
L 340.8644 141.868328 
L 346.924032 135.628613 
L 353.775818 128.23321 
L 363.586998 117.283393 
L 373.333782 106.243777 
L 373.442002 105.959293 
L 373.641549 105.894521 
L 391.988629 85.241852 
L 399.849779 76.72976 
L 405.07785 71.320353 
L 410.927439 65.599573 
L 416.131348 60.866096 
L 420.557393 57.135191 
L 424.528437 54.030879 
L 429.216452 50.666054 
L 432.631775 48.416615 
L 436.65228 45.97943 
L 441.321332 43.420758 
L 445.889315 41.180091 
L 451.303415 38.829776 
L 454.284193 37.664193 
L 461.099937 35.302043 
L 466.204833 33.775966 
L 470.76233 32.565326 
L 478.313408 30.828943 
L 483.973272 29.71449 
L 490.833274 28.542102 
L 499.339184 27.312613 
L 513.15909 25.72421 
L 523.94118 24.749631 
L 537.399507 23.771033 
L 550.738285 22.996134 
L 571.267171 22.073855 
L 597.485916 21.218174 
L 626.900707 20.531973 
L 658.10316 20.003558 
L 707.047274 19.42539 
L 707.047274 19.42539 
" clip-path="url(#p02e7bd82cc)" style="fill: none; stroke-dasharray: 19.2,4.8,3,4.8; stroke-dashoffset: 0; stroke: #000000; stroke-width: 3"/>
   </g>
   <g id="patch_3">
    <path d="M 109.46 200.558585 
L 109.46 10.8 
" style="fill: none; stroke: #000000; stroke-width: 0.8; stroke-linejoin: miter; stroke-linecap: square"/>
   </g>
   <g id="patch_4">
    <path d="M 707.99345 200.558585 
L 707.99345 10.8 
" style="fill: none; stroke: #000000; stroke-width: 0.8; stroke-linejoin: miter; stroke-linecap: square"/>
   </g>
   <g id="patch_5">
    <path d="M 109.46 200.558585 
L 707.99345 200.558585 
" style="fill: none; stroke: #000000; stroke-width: 0.8; stroke-linejoin: miter; stroke-linecap: square"/>
   </g>
   <g id="patch_6">
    <path d="M 109.46 10.8 
L 707.99345 10.8 
" style="fill: none; stroke: #000000; stroke-width: 0.8; stroke-linejoin: miter; stroke-linecap: square"/>
   </g>
   <g id="legend_1">
    <g id="patch_7">
     <path d="M 124.86 105.609687 
L 253.78 105.609687 
Q 258.18 105.609687 258.18 101.209687 
L 258.18 26.2 
Q 258.18 21.8 253.78 21.8 
L 124.86 21.8 
Q 120.46 21.8 120.46 26.2 
L 120.46 101.209687 
Q 120.46 105.609687 124.86 105.609687 
z
" style="fill: #ffffff; opacity: 0.8; stroke: #cccccc; stroke-linejoin: miter"/>
    </g>
    <g id="line2d_22">
     <path d="M 122.66 33.016562 
L 138.06 33.016562 
L 153.46 33.016562 
" style="fill: none; stroke: #ff0000; stroke-width: 3; stroke-linecap: square"/>
    </g>
    <g id="text_12">
     <!-- GT $F_{fy}$ -->
     <g transform="translate(161.6 40.716562) scale(0.22 -0.22)">
      <defs>
       <path id="DejaVuSans-47" d="M 3809 666 
L 3809 1919 
L 2778 1919 
L 2778 2438 
L 4434 2438 
L 4434 434 
Q 4069 175 3628 42 
Q 3188 -91 2688 -91 
Q 1594 -91 976 548 
Q 359 1188 359 2328 
Q 359 3472 976 4111 
Q 1594 4750 2688 4750 
Q 3144 4750 3555 4637 
Q 3966 4525 4313 4306 
L 4313 3634 
Q 3963 3931 3569 4081 
Q 3175 4231 2741 4231 
Q 1884 4231 1454 3753 
Q 1025 3275 1025 2328 
Q 1025 1384 1454 906 
Q 1884 428 2741 428 
Q 3075 428 3337 486 
Q 3600 544 3809 666 
z
" transform="scale(0.015625)"/>
       <path id="DejaVuSans-54" d="M -19 4666 
L 3928 4666 
L 3928 4134 
L 2272 4134 
L 2272 0 
L 1638 0 
L 1638 4134 
L -19 4134 
L -19 4666 
z
" transform="scale(0.015625)"/>
       <path id="DejaVuSans-Oblique-46" d="M 1081 4666 
L 3756 4666 
L 3653 4134 
L 1606 4134 
L 1338 2759 
L 3188 2759 
L 3084 2228 
L 1234 2228 
L 800 0 
L 172 0 
L 1081 4666 
z
" transform="scale(0.015625)"/>
       <path id="DejaVuSans-Oblique-66" d="M 3059 4863 
L 2969 4384 
L 2419 4384 
Q 2106 4384 1964 4261 
Q 1822 4138 1753 3809 
L 1691 3500 
L 2638 3500 
L 2553 3053 
L 1606 3053 
L 1013 0 
L 434 0 
L 1031 3053 
L 481 3053 
L 563 3500 
L 1113 3500 
L 1159 3744 
Q 1278 4363 1576 4613 
Q 1875 4863 2516 4863 
L 3059 4863 
z
" transform="scale(0.015625)"/>
       <path id="DejaVuSans-Oblique-79" d="M 1588 -325 
Q 1188 -997 936 -1164 
Q 684 -1331 294 -1331 
L -159 -1331 
L -63 -850 
L 269 -850 
Q 509 -850 678 -719 
Q 847 -588 1056 -206 
L 1234 128 
L 459 3500 
L 1069 3500 
L 1650 819 
L 3256 3500 
L 3859 3500 
L 1588 -325 
z
" transform="scale(0.015625)"/>
      </defs>
      <use xlink:href="#DejaVuSans-47" transform="translate(0 0.78125)"/>
      <use xlink:href="#DejaVuSans-54" transform="translate(77.490234 0.78125)"/>
      <use xlink:href="#DejaVuSans-20" transform="translate(138.574219 0.78125)"/>
      <use xlink:href="#DejaVuSans-Oblique-46" transform="translate(170.361328 0.78125)"/>
      <use xlink:href="#DejaVuSans-Oblique-66" transform="translate(227.880859 -15.625) scale(0.7)"/>
      <use xlink:href="#DejaVuSans-Oblique-79" transform="translate(252.524414 -15.625) scale(0.7)"/>
     </g>
    </g>
    <g id="line2d_23">
     <path d="M 122.66 60.953125 
L 138.06 60.953125 
L 153.46 60.953125 
" style="fill: none; stroke-dasharray: 11.1,4.8; stroke-dashoffset: 0; stroke: #0000ff; stroke-width: 3"/>
    </g>
    <g id="text_13">
     <!-- FTHD $F_{fy}$ -->
     <g transform="translate(161.6 68.653125) scale(0.22 -0.22)">
      <defs>
       <path id="DejaVuSans-48" d="M 628 4666 
L 1259 4666 
L 1259 2753 
L 3553 2753 
L 3553 4666 
L 4184 4666 
L 4184 0 
L 3553 0 
L 3553 2222 
L 1259 2222 
L 1259 0 
L 628 0 
L 628 4666 
z
" transform="scale(0.015625)"/>
       <path id="DejaVuSans-44" d="M 1259 4147 
L 1259 519 
L 2022 519 
Q 2988 519 3436 956 
Q 3884 1394 3884 2338 
Q 3884 3275 3436 3711 
Q 2988 4147 2022 4147 
L 1259 4147 
z
M 628 4666 
L 1925 4666 
Q 3281 4666 3915 4102 
Q 4550 3538 4550 2338 
Q 4550 1131 3912 565 
Q 3275 0 1925 0 
L 628 0 
L 628 4666 
z
" transform="scale(0.015625)"/>
      </defs>
      <use xlink:href="#DejaVuSans-46" transform="translate(0 0.09375)"/>
      <use xlink:href="#DejaVuSans-54" transform="translate(57.519531 0.09375)"/>
      <use xlink:href="#DejaVuSans-48" transform="translate(118.603516 0.09375)"/>
      <use xlink:href="#DejaVuSans-44" transform="translate(193.798828 0.09375)"/>
      <use xlink:href="#DejaVuSans-20" transform="translate(270.800781 0.09375)"/>
      <use xlink:href="#DejaVuSans-Oblique-46" transform="translate(302.587891 0.09375)"/>
      <use xlink:href="#DejaVuSans-Oblique-66" transform="translate(360.107422 -16.3125) scale(0.7)"/>
      <use xlink:href="#DejaVuSans-Oblique-79" transform="translate(384.750977 -16.3125) scale(0.7)"/>
     </g>
    </g>
    <g id="line2d_24">
     <path d="M 122.66 88.889687 
L 138.06 88.889687 
L 153.46 88.889687 
" style="fill: none; stroke-dasharray: 19.2,4.8,3,4.8; stroke-dashoffset: 0; stroke: #000000; stroke-width: 3"/>
    </g>
    <g id="text_14">
     <!-- DDM $F_{fy}$ -->
     <g transform="translate(161.6 96.589687) scale(0.22 -0.22)">
      <defs>
       <path id="DejaVuSans-4d" d="M 628 4666 
L 1569 4666 
L 2759 1491 
L 3956 4666 
L 4897 4666 
L 4897 0 
L 4281 0 
L 4281 4097 
L 3078 897 
L 2444 897 
L 1241 4097 
L 1241 0 
L 628 0 
L 628 4666 
z
" transform="scale(0.015625)"/>
      </defs>
      <use xlink:href="#DejaVuSans-44" transform="translate(0 0.09375)"/>
      <use xlink:href="#DejaVuSans-44" transform="translate(77.001953 0.09375)"/>
      <use xlink:href="#DejaVuSans-4d" transform="translate(154.003906 0.09375)"/>
      <use xlink:href="#DejaVuSans-20" transform="translate(240.283203 0.09375)"/>
      <use xlink:href="#DejaVuSans-Oblique-46" transform="translate(272.070312 0.09375)"/>
      <use xlink:href="#DejaVuSans-Oblique-66" transform="translate(329.589844 -16.3125) scale(0.7)"/>
      <use xlink:href="#DejaVuSans-Oblique-79" transform="translate(354.233398 -16.3125) scale(0.7)"/>
     </g>
    </g>
   </g>
  </g>
  <g id="axes_2">
   <g id="patch_8">
    <path d="M 109.46 469.24 
L 707.99345 469.24 
L 707.99345 279.481415 
L 109.46 279.481415 
L 109.46 469.24 
z
" style="fill: none"/>
   </g>
   <g id="matplotlib.axis_3">
    <g id="xtick_7">
     <g id="line2d_25">
      <path d="M 130.234683 469.24 
L 130.234683 279.481415 
" clip-path="url(#pf8244d07c1)" style="fill: none; stroke-dasharray: 1.85,0.8; stroke-dashoffset: 0; stroke: #b0b0b0; stroke-width: 0.5"/>
     </g>
     <g id="line2d_26">
      <g>
       <use xlink:href="#mf98896b24e" x="130.234683" y="469.24" style="stroke: #000000; stroke-width: 0.8"/>
      </g>
     </g>
     <g id="text_15">
      <!-- −0.2 -->
      <g transform="translate(98.667027 495.995938) scale(0.26 -0.26)">
       <use xlink:href="#DejaVuSans-2212"/>
       <use xlink:href="#DejaVuSans-30" x="83.789062"/>
       <use xlink:href="#DejaVuSans-2e" x="147.412109"/>
       <use xlink:href="#DejaVuSans-32" x="179.199219"/>
      </g>
     </g>
    </g>
    <g id="xtick_8">
     <g id="line2d_27">
      <path d="M 278.625274 469.24 
L 278.625274 279.481415 
" clip-path="url(#pf8244d07c1)" style="fill: none; stroke-dasharray: 1.85,0.8; stroke-dashoffset: 0; stroke: #b0b0b0; stroke-width: 0.5"/>
     </g>
     <g id="line2d_28">
      <g>
       <use xlink:href="#mf98896b24e" x="278.625274" y="469.24" style="stroke: #000000; stroke-width: 0.8"/>
      </g>
     </g>
     <g id="text_16">
      <!-- 0.0 -->
      <g transform="translate(257.951212 495.995938) scale(0.26 -0.26)">
       <use xlink:href="#DejaVuSans-30"/>
       <use xlink:href="#DejaVuSans-2e" x="63.623047"/>
       <use xlink:href="#DejaVuSans-30" x="95.410156"/>
      </g>
     </g>
    </g>
    <g id="xtick_9">
     <g id="line2d_29">
      <path d="M 427.015865 469.24 
L 427.015865 279.481415 
" clip-path="url(#pf8244d07c1)" style="fill: none; stroke-dasharray: 1.85,0.8; stroke-dashoffset: 0; stroke: #b0b0b0; stroke-width: 0.5"/>
     </g>
     <g id="line2d_30">
      <g>
       <use xlink:href="#mf98896b24e" x="427.015865" y="469.24" style="stroke: #000000; stroke-width: 0.8"/>
      </g>
     </g>
     <g id="text_17">
      <!-- 0.2 -->
      <g transform="translate(406.341803 495.995938) scale(0.26 -0.26)">
       <use xlink:href="#DejaVuSans-30"/>
       <use xlink:href="#DejaVuSans-2e" x="63.623047"/>
       <use xlink:href="#DejaVuSans-32" x="95.410156"/>
      </g>
     </g>
    </g>
    <g id="xtick_10">
     <g id="line2d_31">
      <path d="M 575.406457 469.24 
L 575.406457 279.481415 
" clip-path="url(#pf8244d07c1)" style="fill: none; stroke-dasharray: 1.85,0.8; stroke-dashoffset: 0; stroke: #b0b0b0; stroke-width: 0.5"/>
     </g>
     <g id="line2d_32">
      <g>
       <use xlink:href="#mf98896b24e" x="575.406457" y="469.24" style="stroke: #000000; stroke-width: 0.8"/>
      </g>
     </g>
     <g id="text_18">
      <!-- 0.4 -->
      <g transform="translate(554.732394 495.995938) scale(0.26 -0.26)">
       <use xlink:href="#DejaVuSans-30"/>
       <use xlink:href="#DejaVuSans-2e" x="63.623047"/>
       <use xlink:href="#DejaVuSans-34" x="95.410156"/>
      </g>
     </g>
    </g>
    <g id="text_19">
     <!-- Slip Angle (rad) -->
     <g transform="translate(308.031569 525.159063) scale(0.26 -0.26)">
      <use xlink:href="#DejaVuSans-53"/>
      <use xlink:href="#DejaVuSans-6c" x="63.476562"/>
      <use xlink:href="#DejaVuSans-69" x="91.259766"/>
      <use xlink:href="#DejaVuSans-70" x="119.042969"/>
      <use xlink:href="#DejaVuSans-20" x="182.519531"/>
      <use xlink:href="#DejaVuSans-41" x="214.306641"/>
      <use xlink:href="#DejaVuSans-6e" x="282.714844"/>
      <use xlink:href="#DejaVuSans-67" x="346.09375"/>
      <use xlink:href="#DejaVuSans-6c" x="409.570312"/>
      <use xlink:href="#DejaVuSans-65" x="437.353516"/>
      <use xlink:href="#DejaVuSans-20" x="498.876953"/>
      <use xlink:href="#DejaVuSans-28" x="530.664062"/>
      <use xlink:href="#DejaVuSans-72" x="569.677734"/>
      <use xlink:href="#DejaVuSans-61" x="610.791016"/>
      <use xlink:href="#DejaVuSans-64" x="672.070312"/>
      <use xlink:href="#DejaVuSans-29" x="735.546875"/>
     </g>
    </g>
   </g>
   <g id="matplotlib.axis_4">
    <g id="ytick_4">
     <g id="line2d_33">
      <path d="M 109.46 378.704878 
L 707.99345 378.704878 
" clip-path="url(#pf8244d07c1)" style="fill: none; stroke-dasharray: 1.85,0.8; stroke-dashoffset: 0; stroke: #b0b0b0; stroke-width: 0.5"/>
     </g>
     <g id="line2d_34">
      <g>
       <use xlink:href="#m799ec94b2d" x="109.46" y="378.704878" style="stroke: #000000; stroke-width: 0.8"/>
      </g>
     </g>
     <g id="text_20">
      <!-- 0.0 -->
      <g transform="translate(61.111875 388.582846) scale(0.26 -0.26)">
       <use xlink:href="#DejaVuSans-30"/>
       <use xlink:href="#DejaVuSans-2e" x="63.623047"/>
       <use xlink:href="#DejaVuSans-30" x="95.410156"/>
      </g>
     </g>
    </g>
    <g id="ytick_5">
     <g id="line2d_35">
      <path d="M 109.46 281.044835 
L 707.99345 281.044835 
" clip-path="url(#pf8244d07c1)" style="fill: none; stroke-dasharray: 1.85,0.8; stroke-dashoffset: 0; stroke: #b0b0b0; stroke-width: 0.5"/>
     </g>
     <g id="line2d_36">
      <g>
       <use xlink:href="#m799ec94b2d" x="109.46" y="281.044835" style="stroke: #000000; stroke-width: 0.8"/>
      </g>
     </g>
     <g id="text_21">
      <!-- 0.2 -->
      <g transform="translate(61.111875 290.922804) scale(0.26 -0.26)">
       <use xlink:href="#DejaVuSans-30"/>
       <use xlink:href="#DejaVuSans-2e" x="63.623047"/>
       <use xlink:href="#DejaVuSans-32" x="95.410156"/>
      </g>
     </g>
    </g>
    <g id="text_22">
     <!-- Force (N) -->
     <g transform="translate(51.704688 433.520864) rotate(-90) scale(0.26 -0.26)">
      <use xlink:href="#DejaVuSans-46"/>
      <use xlink:href="#DejaVuSans-6f" x="53.894531"/>
      <use xlink:href="#DejaVuSans-72" x="115.076172"/>
      <use xlink:href="#DejaVuSans-63" x="153.939453"/>
      <use xlink:href="#DejaVuSans-65" x="208.919922"/>
      <use xlink:href="#DejaVuSans-20" x="270.443359"/>
      <use xlink:href="#DejaVuSans-28" x="302.230469"/>
      <use xlink:href="#DejaVuSans-4e" x="341.244141"/>
      <use xlink:href="#DejaVuSans-29" x="416.048828"/>
     </g>
    </g>
   </g>
   <g id="line2d_37">
    <path d="M 106.206782 455.371881 
L 136.911157 450.414588 
L 149.783044 447.576316 
L 168.057144 442.545123 
L 175.450937 440.122461 
L 184.862419 436.675812 
L 191.579285 433.95012 
L 198.454311 430.918009 
L 205.083186 427.753664 
L 211.866657 424.264627 
L 218.646956 420.520983 
L 225.519997 416.466454 
L 232.423022 412.138307 
L 239.940008 407.149398 
L 248.25606 401.326567 
L 256.63999 395.181986 
L 266.831558 387.434779 
L 278.534045 378.3318 
L 278.625274 378.704878 
L 278.946603 378.009477 
L 296.18512 364.672326 
L 306.077556 357.304038 
L 314.788356 351.105819 
L 322.203561 346.092643 
L 329.430734 341.468603 
L 336.489079 337.219829 
L 343.386208 333.33278 
L 349.563748 330.076299 
L 356.991127 326.440994 
L 363.793712 323.374233 
L 369.986203 320.793719 
L 377.325581 317.984534 
L 382.370982 316.202705 
L 391.284321 313.333617 
L 399.384711 311.012745 
L 409.113812 308.551796 
L 416.974035 306.79843 
L 424.443408 305.307189 
L 436.291599 303.25206 
L 449.508838 301.347037 
L 459.923729 300.089703 
L 471.546243 298.900919 
L 483.257794 297.897419 
L 500.400646 296.718101 
L 519.106027 295.743652 
L 707.300728 293.486701 
L 707.300728 293.486701 
" clip-path="url(#pf8244d07c1)" style="fill: none; stroke: #ff0000; stroke-width: 3; stroke-linecap: square"/>
   </g>
   <g id="line2d_38">
    <path d="M 105.890646 455.476268 
L 136.595021 450.279639 
L 149.466908 447.376535 
L 167.741008 442.288416 
L 175.134801 439.853136 
L 184.546283 436.397612 
L 191.263149 433.66971 
L 198.138175 430.63824 
L 204.76705 427.476825 
L 211.550521 423.992785 
L 218.33082 420.255973 
L 225.258813 416.176863 
L 232.106886 411.892974 
L 239.623872 406.918511 
L 247.955449 401.103962 
L 256.323854 394.993499 
L 266.515422 387.277623 
L 278.550076 377.952489 
L 278.625274 378.704878 
L 278.630467 377.889917 
L 296.575426 364.058325 
L 305.76142 357.234499 
L 314.699396 350.878367 
L 322.688048 345.489692 
L 329.736132 340.99495 
L 336.886523 336.701947 
L 343.070072 333.214365 
L 349.247612 329.941395 
L 356.674991 326.284482 
L 363.477576 323.196257 
L 369.670067 320.594652 
L 377.009445 317.758164 
L 382.054846 315.95583 
L 390.968185 313.046344 
L 399.068575 310.68334 
L 408.797676 308.163926 
L 416.657899 306.35648 
L 424.127272 304.807899 
L 435.975463 302.649781 
L 449.192702 300.612942 
L 459.607593 299.240068 
L 471.230107 297.911519 
L 482.941658 296.757194 
L 500.08451 295.34257 
L 518.789891 294.097111 
L 706.984592 289.159747 
L 706.984592 289.159747 
" clip-path="url(#pf8244d07c1)" style="fill: none; stroke-dasharray: 11.1,4.8; stroke-dashoffset: 0; stroke: #0000ff; stroke-width: 3"/>
   </g>
   <g id="line2d_39">
    <path d="M 103.898548 460.61461 
L 134.602923 456.838824 
L 147.47481 454.55233 
L 165.218659 450.380216 
L 172.045336 448.375544 
L 178.772623 446.139394 
L 184.455422 444.027277 
L 190.7429 441.430654 
L 196.319518 438.883144 
L 201.846823 436.119288 
L 207.40438 433.092727 
L 212.943323 429.826425 
L 218.673648 426.188021 
L 224.067167 422.532096 
L 230.950599 417.565351 
L 237.631775 412.461146 
L 245.963351 405.781125 
L 255.245967 398.044221 
L 268.858362 386.38935 
L 278.580662 377.975756 
L 278.625274 378.704878 
L 279.781277 376.935609 
L 301.990806 357.84164 
L 312.480123 349.118694 
L 320.361183 342.833611 
L 327.516014 337.408475 
L 333.708726 332.976544 
L 339.902463 328.821535 
L 345.691994 325.207863 
L 351.250176 321.993195 
L 357.106202 318.877729 
L 362.755884 316.131293 
L 368.514048 313.58406 
L 373.837663 311.443289 
L 380.062749 309.183172 
L 385.656505 307.358248 
L 392.618398 305.333227 
L 397.076477 304.166406 
L 405.160289 302.280066 
L 413.44973 300.614543 
L 422.135174 299.116745 
L 433.983366 297.409709 
L 447.827406 295.805085 
L 463.533861 294.370698 
L 480.94956 293.133988 
L 498.092413 292.18203 
L 516.797794 291.362235 
L 704.992495 288.106805 
L 704.992495 288.106805 
" clip-path="url(#pf8244d07c1)" style="fill: none; stroke-dasharray: 19.2,4.8,3,4.8; stroke-dashoffset: 0; stroke: #000000; stroke-width: 3"/>
   </g>
   <g id="patch_9">
    <path d="M 109.46 469.24 
L 109.46 279.481415 
" style="fill: none; stroke: #000000; stroke-width: 0.8; stroke-linejoin: miter; stroke-linecap: square"/>
   </g>
   <g id="patch_10">
    <path d="M 707.99345 469.24 
L 707.99345 279.481415 
" style="fill: none; stroke: #000000; stroke-width: 0.8; stroke-linejoin: miter; stroke-linecap: square"/>
   </g>
   <g id="patch_11">
    <path d="M 109.46 469.24 
L 707.99345 469.24 
" style="fill: none; stroke: #000000; stroke-width: 0.8; stroke-linejoin: miter; stroke-linecap: square"/>
   </g>
   <g id="patch_12">
    <path d="M 109.46 279.481415 
L 707.99345 279.481415 
" style="fill: none; stroke: #000000; stroke-width: 0.8; stroke-linejoin: miter; stroke-linecap: square"/>
   </g>
   <g id="legend_2">
    <g id="patch_13">
     <path d="M 124.86 374.291102 
L 254.88 374.291102 
Q 259.28 374.291102 259.28 369.891102 
L 259.28 294.881415 
Q 259.28 290.481415 254.88 290.481415 
L 124.86 290.481415 
Q 120.46 290.481415 120.46 294.881415 
L 120.46 369.891102 
Q 120.46 374.291102 124.86 374.291102 
z
" style="fill: #ffffff; opacity: 0.8; stroke: #cccccc; stroke-linejoin: miter"/>
    </g>
    <g id="line2d_40">
     <path d="M 122.66 301.697977 
L 138.06 301.697977 
L 153.46 301.697977 
" style="fill: none; stroke: #ff0000; stroke-width: 3; stroke-linecap: square"/>
    </g>
    <g id="text_23">
     <!-- GT $F_{ry}$ -->
     <g transform="translate(161.6 309.397977) scale(0.22 -0.22)">
      <defs>
       <path id="DejaVuSans-Oblique-72" d="M 2853 2969 
Q 2766 3016 2653 3041 
Q 2541 3066 2413 3066 
Q 1953 3066 1609 2717 
Q 1266 2369 1153 1784 
L 800 0 
L 225 0 
L 909 3500 
L 1484 3500 
L 1375 2956 
Q 1603 3259 1920 3421 
Q 2238 3584 2597 3584 
Q 2691 3584 2781 3573 
Q 2872 3563 2963 3538 
L 2853 2969 
z
" transform="scale(0.015625)"/>
      </defs>
      <use xlink:href="#DejaVuSans-47" transform="translate(0 0.78125)"/>
      <use xlink:href="#DejaVuSans-54" transform="translate(77.490234 0.78125)"/>
      <use xlink:href="#DejaVuSans-20" transform="translate(138.574219 0.78125)"/>
      <use xlink:href="#DejaVuSans-Oblique-46" transform="translate(170.361328 0.78125)"/>
      <use xlink:href="#DejaVuSans-Oblique-72" transform="translate(227.880859 -15.625) scale(0.7)"/>
      <use xlink:href="#DejaVuSans-Oblique-79" transform="translate(256.660156 -15.625) scale(0.7)"/>
     </g>
    </g>
    <g id="line2d_41">
     <path d="M 122.66 329.63454 
L 138.06 329.63454 
L 153.46 329.63454 
" style="fill: none; stroke-dasharray: 11.1,4.8; stroke-dashoffset: 0; stroke: #0000ff; stroke-width: 3"/>
    </g>
    <g id="text_24">
     <!-- FTHD $F_{ry}$ -->
     <g transform="translate(161.6 337.33454) scale(0.22 -0.22)">
      <use xlink:href="#DejaVuSans-46" transform="translate(0 0.09375)"/>
      <use xlink:href="#DejaVuSans-54" transform="translate(57.519531 0.09375)"/>
      <use xlink:href="#DejaVuSans-48" transform="translate(118.603516 0.09375)"/>
      <use xlink:href="#DejaVuSans-44" transform="translate(193.798828 0.09375)"/>
      <use xlink:href="#DejaVuSans-20" transform="translate(270.800781 0.09375)"/>
      <use xlink:href="#DejaVuSans-Oblique-46" transform="translate(302.587891 0.09375)"/>
      <use xlink:href="#DejaVuSans-Oblique-72" transform="translate(360.107422 -16.3125) scale(0.7)"/>
      <use xlink:href="#DejaVuSans-Oblique-79" transform="translate(388.886719 -16.3125) scale(0.7)"/>
     </g>
    </g>
    <g id="line2d_42">
     <path d="M 122.66 357.571102 
L 138.06 357.571102 
L 153.46 357.571102 
" style="fill: none; stroke-dasharray: 19.2,4.8,3,4.8; stroke-dashoffset: 0; stroke: #000000; stroke-width: 3"/>
    </g>
    <g id="text_25">
     <!-- DDM $F_{ry}$ -->
     <g transform="translate(161.6 365.271102) scale(0.22 -0.22)">
      <use xlink:href="#DejaVuSans-44" transform="translate(0 0.09375)"/>
      <use xlink:href="#DejaVuSans-44" transform="translate(77.001953 0.09375)"/>
      <use xlink:href="#DejaVuSans-4d" transform="translate(154.003906 0.09375)"/>
      <use xlink:href="#DejaVuSans-20" transform="translate(240.283203 0.09375)"/>
      <use xlink:href="#DejaVuSans-Oblique-46" transform="translate(272.070312 0.09375)"/>
      <use xlink:href="#DejaVuSans-Oblique-72" transform="translate(329.589844 -16.3125) scale(0.7)"/>
      <use xlink:href="#DejaVuSans-Oblique-79" transform="translate(358.369141 -16.3125) scale(0.7)"/>
     </g>
    </g>
   </g>
  </g>
 </g>
 <defs>
  <clipPath id="p02e7bd82cc">
   <rect x="109.46" y="10.8" width="598.53345" height="189.758585"/>
  </clipPath>
  <clipPath id="pf8244d07c1">
   <rect x="109.46" y="279.481415" width="598.53345" height="189.758585"/>
  </clipPath>
 </defs>
</svg>
